<?xml version="1.0" standalone="no"?>
<!DOCTYPE svg PUBLIC "-//W3C//DTD SVG 20010904//EN"
 "http://www.w3.org/TR/2001/REC-SVG-20010904/DTD/svg10.dtd">
<svg version="1.0" xmlns="http://www.w3.org/2000/svg"
 width="900.000000pt" height="900.000000pt" viewBox="0 0 900.000000 900.000000"
 preserveAspectRatio="xMidYMid meet">

<g transform="translate(0.000000,900.000000) scale(0.100000,-0.100000)"
fill="#000000" stroke="none">
<path d="M4016 6977 c-17 -13 -18 -38 -18 -425 0 -227 4 -417 8 -423 4 -7 21
-9 48 -4 48 9 649 8 718 -1 67 -9 82 5 74 71 -10 76 -6 659 4 696 7 22 6 40
-3 58 -11 24 -17 26 -67 24 -155 -5 -663 -3 -687 3 -15 3 -35 8 -44 10 -8 2
-23 -2 -33 -9z m174 -122 c19 -17 46 -20 55 -6 7 12 69 -5 73 -19 2 -6 12 -10
23 -10 10 0 19 -4 19 -9 0 -14 -48 -22 -115 -19 -39 1 -71 -4 -92 -14 -30 -15
-32 -15 -52 8 -26 29 -27 69 -3 84 21 13 70 5 92 -15z m528 9 c23 -16 31 -67
12 -79 -11 -7 -11 -457 0 -490 10 -27 -9 -65 -32 -65 -28 0 -58 18 -58 35 0 8
-5 15 -10 15 -6 0 1 12 15 27 27 30 32 49 14 55 -13 4 -13 181 0 273 5 33 7
63 5 67 -3 4 0 9 6 13 19 12 10 43 -20 68 -26 22 -29 29 -21 51 10 24 35 45
56 46 6 0 21 -7 33 -16z m-167 -35 c9 -5 19 -5 23 -2 3 3 6 1 6 -6 0 -17 -45
-31 -104 -31 -75 0 -103 32 -43 49 33 9 90 5 118 -10z m-398 -130 c5 -4 11
-29 12 -56 2 -27 6 -84 10 -127 5 -51 3 -97 -5 -136 -12 -58 -12 -60 11 -79
13 -11 33 -19 44 -17 39 7 65 18 65 28 0 7 16 8 43 3 23 -4 89 -10 146 -14 71
-5 106 -12 109 -20 4 -11 6 -11 14 0 8 12 9 12 6 0 -2 -8 -12 -15 -23 -17 -10
-1 -21 -7 -24 -11 -3 -5 -75 -9 -158 -10 -117 0 -155 3 -164 13 -15 18 -34 18
-50 -2 -7 -8 -25 -22 -40 -30 -27 -14 -29 -13 -43 15 -12 22 -13 37 -5 66 6
22 8 102 5 202 -5 141 -3 170 11 197 11 22 18 27 21 16 3 -8 9 -18 15 -21z
m210 -104 l37 1 0 -58 c0 -32 4 -58 10 -58 6 0 10 -9 10 -21 0 -18 -5 -20 -47
-17 -43 3 -48 6 -51 28 -2 14 -10 28 -18 33 -7 4 -11 14 -8 21 3 8 1 31 -5 52
-9 31 -8 39 7 50 15 11 18 9 22 -9 4 -18 12 -22 43 -22z m204 -57 c-2 -13 -4
-3 -4 22 0 25 2 35 4 23 2 -13 2 -33 0 -45z"/>
<path d="M5082 6964 c-24 -16 -29 -53 -11 -85 13 -26 20 -428 7 -497 -6 -36
-6 -64 2 -86 8 -25 7 -42 -5 -75 -19 -56 -19 -56 8 -82 19 -18 29 -20 77 -14
104 12 573 15 627 3 44 -9 56 -8 77 6 33 21 33 25 -5 72 -25 32 -29 44 -23 69
23 88 -1 165 -53 165 -12 0 -23 5 -23 11 0 5 -4 8 -9 5 -18 -11 -31 -103 -22
-151 8 -42 7 -47 -15 -61 -17 -12 -35 -14 -66 -9 -24 4 -45 11 -48 16 -3 4
-39 1 -80 -7 -67 -13 -110 -12 -162 3 -42 11 -5 53 46 53 20 0 36 -5 36 -10 0
-10 36 -8 87 4 13 2 35 -1 49 -8 23 -12 28 -11 49 8 18 17 24 34 26 81 2 33 6
65 10 70 4 6 23 10 43 9 30 -2 36 2 45 27 22 63 7 95 -89 192 -50 50 -90 94
-90 98 0 13 -68 39 -87 32 -26 -10 -42 -34 -43 -63 0 -14 -9 -33 -20 -43 -18
-15 -27 -16 -60 -7 -22 6 -42 15 -46 21 -6 10 33 60 45 56 12 -4 48 28 55 49
11 35 -26 58 -92 59 -65 0 -118 -29 -101 -56 5 -8 9 -18 8 -24 0 -25 -30 48
-33 82 -4 53 -14 72 -47 88 -35 19 -39 19 -67 -1z m178 -306 c11 -12 20 -28
20 -35 0 -7 14 -16 30 -19 17 -4 30 -10 30 -15 0 -5 5 -9 10 -9 6 0 10 13 10
29 0 26 3 30 30 29 17 -1 38 6 48 14 32 28 72 31 93 7 25 -29 24 -37 -8 -51
-29 -13 -83 -65 -83 -80 0 -4 -9 -8 -20 -8 -19 0 -24 -16 -23 -76 0 -6 -12 -8
-29 -6 -22 3 -30 11 -35 33 -3 16 -9 29 -14 29 -4 0 -9 10 -11 22 -5 32 -26
33 -39 1 -26 -70 -11 -219 26 -245 12 -9 -44 -58 -67 -58 -9 0 -29 5 -44 10
-23 9 -26 14 -20 42 3 17 13 39 21 48 8 9 15 31 15 48 0 18 5 32 10 32 16 0
12 26 -11 65 -18 31 -20 45 -15 97 8 63 29 118 46 118 5 0 18 -10 30 -22z
m374 -74 c14 -37 3 -94 -19 -94 -18 0 -25 -48 -8 -54 8 -3 12 -10 8 -15 -3 -6
-13 -7 -22 -4 -10 4 -14 2 -11 -7 6 -19 -22 -50 -44 -50 -10 0 -18 4 -18 8 0
4 -14 13 -32 20 -31 11 -31 12 -13 32 10 11 24 20 32 20 7 0 13 9 13 20 0 14
5 18 17 13 9 -4 14 -2 10 3 -9 16 14 97 31 112 22 17 49 15 56 -4z"/>
<path d="M3693 6944 c-24 -14 -43 -29 -43 -33 0 -15 -53 -30 -117 -33 -56 -4
-66 -8 -98 -41 -22 -23 -52 -41 -78 -48 -51 -12 -67 -25 -87 -63 -8 -16 -27
-34 -42 -40 -16 -6 -37 -28 -52 -56 -14 -25 -35 -55 -47 -66 -31 -28 -51 -72
-58 -129 -3 -27 -11 -50 -17 -50 -27 0 -47 -38 -46 -87 0 -28 -6 -64 -14 -80
-35 -67 7 -115 79 -91 21 7 152 9 369 8 378 -3 369 -5 352 63 l-9 37 -255 0
c-140 0 -288 -4 -327 -8 -69 -8 -74 -7 -97 16 -21 22 -23 29 -16 63 5 21 6 42
4 46 -7 11 16 39 26 33 15 -9 40 33 50 85 6 30 16 58 23 62 34 22 76 -4 77
-47 0 -26 -47 -95 -65 -95 -7 0 -17 -5 -21 -12 -5 -7 -2 -8 7 -3 11 6 11 5 3
-4 -21 -23 6 -61 49 -67 20 -4 37 -11 37 -16 0 -11 156 -2 205 12 95 27 109
29 116 18 4 -6 18 -10 33 -10 15 0 26 -6 26 -14 0 -8 5 -14 10 -14 6 0 10 4
10 8 0 5 17 8 38 7 20 -2 43 2 50 7 14 12 18 454 3 476 -4 8 -14 13 -22 12
-38 -6 -38 3 -1 39 22 21 45 56 52 77 11 33 11 39 -6 51 -26 19 -54 16 -101
-13z m-231 -177 c9 8 43 10 98 7 125 -7 122 -7 117 -24 -2 -9 2 -21 10 -28 15
-15 18 -42 3 -42 -5 0 -10 9 -10 20 0 11 -4 20 -10 20 -5 0 -10 -7 -10 -15 0
-9 -7 -18 -15 -21 -11 -4 -15 -21 -15 -56 0 -43 -21 -108 -36 -108 -13 0 -53
57 -49 70 2 8 6 34 10 57 6 40 5 43 -22 50 -40 10 -40 10 -71 12 -25 1 -28 5
-28 36 0 19 3 29 7 23 6 -9 11 -9 21 -1z m-54 -128 c2 -22 -2 -39 -8 -39 -5 0
-10 -13 -10 -29 0 -62 -45 -47 -74 25 -22 53 -15 75 25 84 48 12 65 2 67 -41z
m58 -165 c16 -55 8 -66 -37 -46 -23 10 -40 26 -47 44 -6 16 -16 27 -22 26 -7
-2 -15 3 -17 10 -4 10 9 12 53 10 l58 -3 12 -41z"/>
<path d="M3586 6665 c4 -8 7 -15 9 -15 2 0 5 7 9 15 3 9 0 15 -9 15 -9 0 -12
-6 -9 -15z"/>
<path d="M3023 5899 c-11 -4 -23 -12 -26 -16 -3 -5 -7 -175 -8 -378 -2 -346
-1 -369 17 -382 10 -7 26 -13 36 -13 23 0 86 59 72 68 -17 13 -31 56 -27 87 2
17 6 68 8 114 3 47 9 89 15 95 15 15 12 65 -10 151 -26 100 -25 129 2 155 26
23 45 25 67 6 9 -8 39 -17 66 -20 28 -3 74 -9 103 -14 32 -5 72 -4 103 2 41 8
52 8 59 -4 14 -22 13 -24 -20 -59 -17 -17 -36 -29 -42 -25 -24 15 -87 13 -103
-3 -12 -12 -13 -18 -5 -23 9 -6 8 -14 -5 -34 -15 -22 -20 -24 -34 -14 -25 20
-31 31 -31 59 0 14 -5 30 -12 37 -16 16 -48 15 -48 -1 0 -7 -9 -18 -20 -25
-11 -7 -20 -23 -20 -37 0 -14 -6 -41 -14 -60 -12 -29 -12 -34 0 -39 8 -3 14
-10 14 -16 0 -6 -4 -8 -10 -5 -5 3 -10 1 -10 -5 0 -6 6 -13 14 -16 7 -3 21
-23 31 -45 10 -21 24 -39 32 -39 22 0 17 -74 -8 -96 -27 -24 -69 -111 -63
-128 12 -30 56 -41 153 -38 53 2 107 3 121 3 47 1 235 -10 275 -16 45 -6 88
11 93 38 2 10 -10 30 -28 47 -29 27 -31 34 -25 70 4 22 10 40 15 40 4 0 1 19
-7 42 -8 23 -14 60 -13 82 3 71 0 86 -14 86 -8 0 -22 -9 -30 -21 -8 -12 -19
-18 -24 -15 -18 11 -42 -6 -42 -29 0 -13 -4 -27 -10 -30 -5 -3 -10 -19 -10
-35 0 -25 -5 -31 -39 -40 -37 -10 -77 -40 -52 -40 6 0 11 -7 11 -15 0 -19 69
-38 86 -24 9 7 19 7 31 1 16 -9 15 -11 -10 -17 -15 -4 -27 -11 -27 -15 0 -13
-32 -17 -63 -9 -16 5 -25 4 -22 -2 4 -5 -3 -9 -15 -9 -12 0 -19 4 -16 9 4 5
-2 7 -11 5 -41 -8 -113 -10 -124 -4 -8 5 -3 13 15 25 24 16 61 79 58 98 -1 4
5 7 13 7 19 0 60 42 76 79 8 18 21 31 32 31 10 0 22 10 27 23 5 12 9 18 10 12
2 -26 20 24 20 56 0 32 4 38 38 53 22 10 45 17 53 16 37 -6 48 1 54 33 11 57
12 62 18 77 13 32 16 90 7 116 l-10 26 -108 -2 c-59 -1 -163 -3 -232 -3 -69 0
-168 0 -220 -1 -52 0 -109 5 -125 11 -17 6 -40 7 -52 2z m570 -156 c-7 -2 -19
-2 -25 0 -7 3 -2 5 12 5 14 0 19 -2 13 -5z m-153 -118 c0 -8 -4 -15 -10 -15
-5 0 -10 7 -10 15 0 8 5 15 10 15 6 0 10 -7 10 -15z m-85 -215 c3 -5 -3 -10
-15 -10 -12 0 -18 5 -15 10 3 6 10 10 15 10 5 0 12 -4 15 -10z"/>
<path d="M5092 5893 c-15 -28 -15 -752 -1 -769 16 -19 49 -18 99 5 30 13 51
17 70 11 15 -4 119 -8 231 -8 112 0 236 -3 275 -7 59 -6 73 -4 87 10 25 25 21
69 -8 91 -33 25 -37 40 -18 60 11 10 19 45 25 102 4 48 9 96 11 107 4 34 -14
169 -25 192 -8 16 -7 29 6 53 26 53 30 95 11 124 l-17 26 -289 -3 c-214 -2
-292 -5 -297 -14 -6 -9 -21 -6 -57 12 -57 29 -91 32 -103 8z m171 -113 c3 -11
11 -19 18 -18 15 4 23 -26 14 -50 -3 -9 -5 -18 -3 -19 2 -1 -7 -12 -19 -25
-18 -19 -20 -27 -10 -37 12 -12 15 -63 16 -247 l1 -82 63 7 c109 11 248 6 258
-10 6 -11 12 -11 27 -3 20 13 85 10 126 -6 32 -12 33 -47 2 -42 -11 2 -22 -2
-27 -9 -6 -10 -18 -10 -57 -1 -40 9 -57 8 -93 -5 -35 -12 -70 -14 -167 -10
-68 3 -135 2 -148 -3 -13 -5 -31 -7 -39 -4 -21 9 -46 59 -35 70 5 5 11 86 14
179 2 94 5 177 6 185 1 8 -4 34 -10 57 -11 36 -10 45 6 67 23 31 50 33 57 6z
m296 -19 c12 -7 12 -13 3 -24 -7 -7 -9 -17 -5 -21 4 -4 1 -11 -7 -17 -21 -13
-143 0 -153 17 -10 17 -34 18 -40 2 -3 -9 -7 -7 -12 5 -15 36 -1 42 101 45 55
1 105 -2 113 -7z m170 -39 c-8 -3 -20 -10 -28 -16 -11 -8 -13 -8 -7 2 5 8 -1
12 -21 12 l-28 0 24 19 c23 18 27 18 49 3 17 -11 21 -17 11 -20z m-209 -162
c0 -11 7 -20 16 -20 11 0 14 -8 12 -27 -2 -16 -8 -27 -15 -25 -9 1 -13 -12
-13 -43 l0 -45 -40 0 c-33 0 -40 3 -40 20 0 16 7 20 31 20 24 0 30 4 27 18 -2
11 -12 17 -28 17 -22 0 -25 5 -28 43 -2 33 0 42 12 42 9 0 16 5 16 10 0 6 11
10 25 10 18 0 25 -5 25 -20z m167 -72 c-3 -8 -6 -5 -6 6 -1 11 2 17 5 13 3 -3
4 -12 1 -19z m-377 -78 c0 -5 -4 -10 -10 -10 -5 0 -10 5 -10 10 0 6 5 10 10
10 6 0 10 -4 10 -10z"/>
<path d="M4005 4883 c-14 -13 -16 -26 -10 -62 4 -25 6 -199 5 -387 -1 -294 1
-342 14 -353 23 -19 49 -9 67 26 9 18 22 39 29 48 8 10 10 33 5 77 -4 35 -8
149 -9 255 -1 139 -4 195 -13 205 -22 21 -16 66 11 84 23 14 28 14 60 -1 20
-10 36 -24 36 -31 0 -8 9 -14 20 -14 11 0 20 -7 20 -15 0 -9 -9 -15 -21 -15
-14 0 -19 -5 -16 -14 3 -8 9 -31 13 -50 4 -26 11 -36 25 -36 28 0 23 -14 -9
-26 -35 -13 -45 -53 -36 -136 4 -36 3 -63 -4 -71 -6 -7 -12 -36 -13 -65 -2
-29 -6 -52 -9 -52 -4 0 -12 -11 -18 -25 -6 -14 -8 -25 -4 -25 4 0 8 -10 9 -22
2 -28 17 -36 79 -44 70 -8 109 2 138 36 13 16 26 27 29 24 15 -15 127 79 127
107 0 5 7 9 15 9 8 0 15 4 15 8 0 5 20 23 44 42 25 18 50 47 57 64 6 17 27 45
45 61 30 27 41 54 43 107 1 10 18 33 40 53 34 32 39 43 44 93 4 31 9 72 13 90
10 50 -9 65 -71 58 -100 -12 -669 -10 -692 2 -30 17 -59 15 -78 -5z m723 -105
c20 -20 13 -55 -18 -86 -28 -29 -51 -35 -66 -19 -4 4 -18 7 -31 7 -12 0 -31 8
-41 18 -10 10 -28 17 -39 16 -12 -2 -20 2 -20 11 0 8 4 12 9 9 4 -3 8 -1 8 5
0 5 25 13 55 16 30 4 55 11 55 15 0 19 71 25 88 8z m-328 -8 c0 -5 9 -10 20
-10 25 0 72 -29 65 -40 -14 -23 -169 -34 -206 -15 -25 14 -27 18 -17 35 7 11
20 20 30 20 9 0 20 5 23 10 3 6 24 10 46 10 21 0 39 -4 39 -10z m214 -182 c-4
-6 0 -16 9 -23 9 -7 18 -21 20 -31 1 -10 6 -25 11 -32 11 -18 6 -20 -31 -15
-29 5 -33 9 -35 37 -2 45 -3 50 -11 64 -6 8 0 12 18 12 17 0 24 -4 19 -12z
m-184 -69 c0 -17 -6 -32 -15 -35 -8 -4 -15 -12 -15 -20 0 -7 -12 -16 -27 -20
-16 -3 -34 -7 -40 -10 -18 -5 -16 33 1 39 7 3 16 23 20 45 4 27 12 42 24 45
30 6 52 -12 52 -44z m142 -98 c-5 -38 -71 -99 -124 -114 -30 -9 -49 -22 -63
-44 -11 -18 -25 -34 -32 -37 -16 -7 -43 21 -42 42 0 10 3 12 6 5 9 -24 63 39
66 77 2 32 6 35 33 36 35 1 80 30 89 56 6 17 56 29 66 15 3 -4 4 -20 1 -36z"/>
<path d="M5100 4887 c-21 -11 -25 -19 -23 -52 2 -22 4 -67 6 -100 3 -72 20
-99 64 -108 48 -9 60 21 39 96 -5 18 -4 32 4 42 14 17 75 20 85 5 3 -5 36 -6
83 -2 76 7 306 8 412 1 30 -2 62 -1 70 1 41 13 55 81 20 100 -21 11 -585 15
-612 5 -8 -3 -36 1 -63 10 -60 18 -54 18 -85 2z"/>
<path d="M2998 4880 c-22 -14 -23 -58 -3 -107 8 -19 15 -49 15 -65 0 -21 10
-39 31 -59 27 -25 33 -39 38 -95 7 -60 10 -68 52 -108 24 -23 59 -64 77 -90
19 -26 41 -50 49 -53 9 -4 32 -22 51 -40 19 -19 57 -44 83 -55 26 -12 53 -32
60 -45 22 -42 92 -43 147 -3 27 20 62 19 62 -1 0 -5 7 -9 15 -9 7 0 18 -6 22
-12 20 -32 52 -50 69 -40 14 8 17 21 15 73 -2 35 -4 167 -5 294 -1 211 -2 230
-19 233 -33 6 -77 -21 -78 -48 0 -23 -1 -23 -8 -5 -5 11 -7 23 -5 26 2 3 -2 6
-9 7 -7 0 -38 10 -70 21 -53 19 -62 19 -93 6 -38 -16 -45 -43 -16 -67 29 -26
50 -28 117 -14 l65 14 0 -25 c0 -22 -35 -84 -52 -91 -5 -2 -8 -17 -8 -33 0
-30 -14 -39 -23 -15 -4 9 -14 12 -27 9 -16 -4 -23 0 -27 16 -3 11 -10 21 -15
21 -9 0 -66 55 -67 65 -1 3 -1 12 -1 20 0 8 -5 15 -11 15 -5 0 -7 -5 -3 -12 4
-6 3 -8 -4 -4 -6 3 -10 20 -10 36 1 17 -1 33 -4 35 -18 19 -208 32 -208 15 0
-6 -9 -10 -20 -10 -11 0 -20 -6 -20 -12 0 -9 -3 -8 -10 2 -7 11 -12 12 -21 3
-17 -17 -49 26 -49 65 0 41 21 56 67 47 21 -4 76 -7 123 -7 46 1 87 -2 90 -6
3 -4 19 -12 37 -18 27 -10 43 -8 104 13 63 21 78 23 122 13 45 -9 76 -8 144 6
28 5 46 56 29 79 -11 16 -40 17 -312 15 -389 -4 -362 -4 -419 4 -31 4 -57 2
-67 -4z m282 -265 c0 -8 6 -15 13 -15 6 0 2 -8 -10 -18 -27 -21 -44 -63 -36
-91 3 -12 22 -30 42 -40 20 -11 45 -29 55 -40 16 -18 30 -21 69 -20 33 2 51
-2 57 -12 6 -9 4 -16 -6 -19 -13 -5 -12 -9 4 -27 17 -20 21 -21 46 -8 15 8 39
12 56 8 27 -5 29 -8 28 -49 0 -28 -5 -44 -13 -44 -7 0 -32 -3 -56 -6 -36 -5
-49 -2 -71 16 -21 16 -26 26 -19 38 8 15 3 17 -32 19 -36 1 -47 9 -109 72 -37
40 -68 76 -68 80 0 5 -6 11 -14 14 -17 7 -27 55 -19 100 4 28 11 37 37 45 44
14 46 14 46 -3z m320 -185 c0 -5 -4 -10 -10 -10 -5 0 -10 5 -10 10 0 6 5 10
10 10 6 0 10 -4 10 -10z"/>
<path d="M5766 4708 c-10 -6 -69 -12 -130 -15 -61 -2 -118 -4 -126 -5 -8 -1
-46 2 -85 6 -90 10 -134 8 -149 -7 -16 -16 -36 -74 -29 -81 4 -3 -1 -6 -10 -6
-9 0 -19 5 -22 10 -19 30 -51 -58 -40 -108 6 -29 64 -70 83 -58 9 5 14 41 14
101 1 38 14 50 65 58 55 9 71 -7 70 -70 0 -26 -5 -52 -11 -58 -23 -22 -66 -37
-86 -32 -39 10 -51 -2 -44 -42 10 -57 21 -71 56 -71 34 0 57 23 58 57 0 32 10
53 26 53 8 0 14 -4 14 -9 0 -5 12 -13 28 -19 15 -5 39 -21 53 -34 41 -38 59
-44 139 -47 29 -1 40 -5 40 -17 0 -8 4 -13 9 -10 5 3 11 0 14 -7 2 -7 19 -14
37 -15 17 -1 29 2 26 6 -3 5 4 18 15 28 11 10 17 24 15 31 -4 9 3 13 19 13 16
0 25 6 25 15 0 8 3 15 8 15 5 0 7 163 3 272 -1 19 -39 58 -55 58 -6 0 -19 -6
-30 -12z m-46 -214 c0 -14 4 -23 9 -20 5 4 7 -2 4 -12 -5 -22 -41 -26 -60 -6
-8 7 -21 14 -29 14 -9 0 -13 9 -12 25 2 16 8 25 20 25 9 0 20 5 23 10 11 18
45 -9 45 -36z m60 -124 c0 -5 -5 -10 -11 -10 -5 0 -7 5 -4 10 3 6 8 10 11 10
2 0 4 -4 4 -10z"/>
<path d="M5465 4328 c-56 -32 -56 -73 0 -102 22 -12 46 -33 53 -48 19 -41 42
-48 134 -47 46 1 107 -1 136 -6 50 -7 52 -7 53 16 1 13 0 30 -1 38 -1 8 4 18
12 23 10 8 10 11 1 15 -7 2 -13 9 -13 14 0 6 -9 20 -21 32 -18 20 -22 20 -32
6 -13 -17 -57 -27 -156 -35 -81 -7 -111 0 -111 27 0 17 -26 80 -33 79 -1 0
-11 -6 -22 -12z"/>
<path d="M4865 3460 c-112 -7 -151 -20 -265 -90 -66 -40 -77 -51 -92 -94 -10
-26 -28 -68 -39 -93 -53 -116 -48 -284 11 -404 18 -35 37 -75 43 -89 11 -23
60 -54 174 -110 131 -64 379 -48 448 30 18 20 20 39 23 191 l4 168 -26 26
c-19 19 -35 25 -69 25 -24 0 -71 3 -104 6 -53 6 -63 4 -82 -15 -24 -24 -28
-73 -6 -91 8 -7 37 -17 63 -21 67 -13 86 -39 78 -108 -11 -95 -32 -113 -135
-114 -49 0 -78 6 -114 23 -48 23 -54 29 -128 130 l-40 55 3 120 3 120 45 67
c65 96 125 130 243 136 82 4 90 3 125 -22 63 -44 112 -31 112 29 0 64 -57 117
-140 127 -19 3 -80 2 -135 -2z"/>
<path d="M6249 3460 c-93 -16 -239 -111 -273 -178 -45 -88 -66 -178 -66 -276
0 -79 5 -105 38 -201 l37 -110 80 -57 c105 -76 156 -93 270 -93 98 1 134 13
229 79 86 61 102 82 141 191 35 100 37 108 33 212 -4 93 -9 119 -37 190 -37
93 -47 106 -117 155 -124 87 -208 109 -335 88z m142 -141 c57 -19 95 -55 134
-126 49 -88 55 -119 45 -218 -7 -69 -15 -94 -52 -161 -38 -71 -49 -82 -98
-107 -71 -37 -137 -34 -207 9 -40 24 -55 43 -93 114 -42 81 -44 89 -44 170 0
75 4 93 33 155 48 100 68 124 125 151 56 26 105 30 157 13z"/>
<path d="M7659 3462 c-59 -7 -61 -15 -60 -299 1 -209 -1 -262 -13 -278 -27
-37 -58 -7 -121 119 -32 64 -73 133 -90 154 -18 20 -41 55 -53 77 -11 22 -30
49 -42 60 -13 11 -33 43 -45 70 -34 75 -56 90 -127 90 -52 -1 -63 -4 -83 -27
l-22 -26 1 -406 c1 -368 3 -407 18 -425 27 -32 65 -37 96 -14 l27 20 1 254 c1
263 6 299 42 299 28 0 40 -13 61 -62 19 -44 56 -105 119 -193 16 -22 35 -56
42 -75 7 -19 26 -48 41 -65 15 -16 40 -52 56 -80 24 -40 42 -56 92 -82 76 -40
122 -43 156 -9 l24 24 -4 417 c-4 365 -6 420 -20 435 -17 19 -53 27 -96 22z"/>
<path d="M1437 3442 c-9 -10 -23 -49 -31 -88 -18 -86 -27 -110 -60 -158 -14
-20 -28 -57 -32 -82 -3 -24 -22 -74 -40 -110 -19 -36 -41 -94 -49 -128 -8 -35
-29 -97 -46 -137 -48 -116 -51 -128 -45 -153 10 -42 88 -53 134 -18 12 10 33
44 46 77 38 92 41 93 243 86 198 -7 201 -8 214 -93 13 -85 77 -121 154 -86 48
22 46 98 -4 177 -17 25 -37 76 -45 112 -9 35 -29 92 -46 126 -17 34 -37 91
-44 127 -8 36 -27 89 -44 118 -16 29 -35 77 -42 106 -7 28 -22 66 -34 84 -18
27 -31 34 -86 44 -92 18 -124 17 -143 -4z m150 -239 c6 -15 15 -54 21 -86 6
-32 20 -70 31 -86 24 -34 47 -112 38 -133 -6 -17 -35 -23 -154 -34 -64 -5 -73
-4 -93 16 -26 26 -22 59 21 193 33 100 43 123 72 154 24 27 49 18 64 -24z"/>
<path d="M2217 3438 l-23 -23 3 -415 2 -415 23 -19 c18 -15 35 -17 88 -14 36
3 123 1 194 -3 74 -5 138 -4 152 1 33 13 48 55 33 92 -18 43 -40 50 -137 43
-56 -5 -102 -3 -130 5 -70 18 -71 24 -68 400 l3 324 -23 23 c-31 31 -87 31
-117 1z"/>
<path d="M2961 3434 c-20 -26 -21 -36 -20 -433 1 -223 5 -414 10 -423 13 -24
67 -38 114 -29 22 4 96 4 165 1 135 -7 184 0 200 30 16 30 12 65 -11 86 -18
17 -37 19 -145 19 -115 0 -125 2 -146 23 l-23 23 0 343 c0 324 -1 345 -19 365
-29 32 -98 29 -125 -5z"/>
<path d="M3695 3435 c-16 -24 -18 -828 -3 -858 14 -27 52 -37 100 -29 24 5
122 5 218 1 205 -9 220 -5 220 61 0 55 -38 91 -85 80 -5 -1 -64 -2 -129 -1
-155 1 -156 2 -156 127 0 149 12 160 159 149 75 -6 89 -5 108 11 36 30 39 69
9 98 -24 25 -29 26 -134 23 -139 -3 -142 -1 -142 102 0 117 -2 116 181 117
145 2 154 3 171 24 22 27 23 69 4 96 -14 18 -29 19 -261 19 -238 0 -248 0
-260 -20z"/>
<path d="M5503 3436 c-18 -22 -19 -48 -18 -436 l0 -412 24 -19 c29 -24 82 -25
110 -1 21 17 21 23 23 435 l3 419 -24 19 c-34 28 -95 25 -118 -5z"/>
</g>
</svg>
