<?xml version="1.0" standalone="no"?>
<!DOCTYPE svg PUBLIC "-//W3C//DTD SVG 20010904//EN"
 "http://www.w3.org/TR/2001/REC-SVG-20010904/DTD/svg10.dtd">
<svg version="1.0" xmlns="http://www.w3.org/2000/svg"
 width="902.000000pt" height="798.000000pt" viewBox="0 0 902.000000 798.000000"
 preserveAspectRatio="xMidYMid meet">

<g transform="translate(0.000000,798.000000) scale(0.100000,-0.100000)"
fill="#000000" stroke="none">
<path d="M1683 6734 l-403 -404 0 -1470 0 -1470 405 -405 405 -405 495 0 495
0 0 -385 0 -386 45 -44 c24 -25 49 -45 55 -45 6 0 172 -162 370 -360 l360
-360 1230 0 1230 0 180 180 c99 99 184 180 190 180 5 0 111 101 235 225 l225
225 0 1185 0 1185 220 0 220 0 0 680 0 680 -910 0 -910 0 0 395 0 395 -405
405 -405 405 -1462 -1 -1463 -1 -402 -404z m3572 -159 l345 -345 0 -465 0
-465 -460 0 -460 0 0 350 0 350 -1130 0 -1130 0 0 -1140 0 -1140 436 0 c364 0
438 2 450 14 12 12 14 71 14 340 l0 326 -230 0 -230 0 0 460 0 460 690 0 690
0 0 -800 0 -800 220 0 220 0 0 340 0 340 460 0 460 0 0 -455 0 -455 -345 -345
-345 -345 -335 0 -335 0 0 -330 0 -330 900 0 900 0 0 1590 0 1590 690 0 690 0
0 -460 0 -460 -230 0 -230 0 0 -1255 0 -1255 -295 -295 c-162 -162 -300 -295
-305 -295 -14 0 -60 -46 -60 -60 0 -6 -4 -8 -10 -5 -5 3 -10 1 -10 -4 0 -8
-343 -11 -1135 -11 l-1135 0 -180 180 c-99 99 -184 180 -190 180 -6 0 -80 70
-165 155 l-155 155 0 455 0 455 -565 0 -565 0 -345 345 -345 345 0 1370 0
1370 343 344 342 344 1363 1 1362 1 345 -345z"/>
</g>
</svg>
