<?xml version="1.0" standalone="no"?>
<!DOCTYPE svg PUBLIC "-//W3C//DTD SVG 20010904//EN"
 "http://www.w3.org/TR/2001/REC-SVG-20010904/DTD/svg10.dtd">
<svg version="1.0" xmlns="http://www.w3.org/2000/svg"
 width="214.000000pt" height="214.000000pt" viewBox="0 0 214.000000 214.000000"
 preserveAspectRatio="xMidYMid meet">

<g transform="translate(0.000000,214.000000) scale(0.100000,-0.100000)"
fill="#000000" stroke="none">
<path d="M684 1756 c-7 -30 18 -76 41 -76 25 0 38 37 23 68 -18 37 -55 42 -64
8z"/>
<path d="M817 1773 c-4 -3 -7 -22 -7 -42 0 -55 -20 -84 -62 -94 -50 -12 -85 7
-118 63 -41 70 -94 59 -76 -15 3 -13 14 -26 24 -29 9 -3 37 -10 61 -16 28 -7
57 -24 75 -45 17 -18 40 -35 51 -39 19 -5 21 -2 17 27 -4 36 32 91 68 102 25
8 33 36 21 69 -10 24 -39 35 -54 19z"/>
<path d="M937 1743 c-13 -12 -7 -61 9 -74 14 -11 18 -10 30 6 17 23 17 30 4
56 -11 19 -31 25 -43 12z"/>
<path d="M1037 1693 c-13 -12 -6 -48 16 -84 l22 -36 -1 51 c0 28 -1 57 -2 64
-2 13 -24 16 -35 5z"/>
<path d="M415 1669 c-10 -29 25 -74 56 -74 19 0 25 6 27 28 6 55 -68 95 -83
46z"/>
<path d="M823 1624 c-7 -20 9 -49 28 -49 22 0 18 59 -4 63 -9 2 -20 -4 -24
-14z"/>
<path d="M927 1624 c-13 -13 -7 -52 8 -58 17 -6 29 13 23 40 -3 19 -20 28 -31
18z"/>
<path d="M1114 1615 c-8 -21 3 -48 19 -43 19 7 22 58 2 58 -8 0 -18 -7 -21
-15z"/>
<path d="M307 1613 c-25 -24 11 -84 49 -84 11 0 44 1 74 2 47 1 57 -2 77 -25
13 -15 23 -34 23 -43 0 -14 4 -13 20 5 32 34 75 27 126 -20 18 -16 23 -17 33
-5 21 27 2 47 -44 47 -35 0 -49 6 -81 36 -33 30 -43 34 -69 28 -59 -14 -85 -8
-124 30 -34 33 -68 45 -84 29z"/>
<path d="M616 1591 c-11 -17 13 -61 33 -61 24 0 34 25 21 51 -11 20 -45 26
-54 10z"/>
<path d="M1006 1575 c-8 -21 1 -35 20 -35 10 0 14 8 12 22 -4 27 -23 34 -32
13z"/>
<path d="M1077 1534 c-5 -29 2 -35 31 -27 28 7 27 14 -2 35 -23 17 -24 17 -29
-8z"/>
<path d="M1168 1536 c-13 -10 -15 -15 -6 -24 22 -22 48 -14 48 13 0 27 -16 32
-42 11z"/>
<path d="M827 1513 c18 -28 43 -30 43 -4 0 13 -9 20 -29 23 -28 4 -29 4 -14
-19z"/>
<path d="M912 1513 c4 -21 33 -25 33 -3 0 8 -8 16 -18 18 -14 3 -18 -1 -15
-15z"/>
<path d="M243 1513 c-14 -5 -17 -41 -5 -59 22 -34 74 -38 86 -7 7 17 -18 63
-33 63 -5 0 -15 2 -23 4 -7 3 -19 2 -25 -1z"/>
<path d="M754 1505 c-7 -18 3 -35 21 -35 18 0 26 15 19 34 -8 20 -33 21 -40 1z"/>
<path d="M1230 1469 c0 -24 23 -21 28 4 2 10 -3 17 -12 17 -10 0 -16 -9 -16
-21z"/>
<path d="M403 1433 c-33 -13 -2 -68 34 -61 25 5 29 39 7 55 -19 14 -22 14 -41
6z"/>
<path d="M604 1425 c-9 -22 22 -53 37 -38 15 15 7 47 -14 51 -9 2 -20 -4 -23
-13z"/>
<path d="M1275 1430 c-3 -5 -1 -10 4 -10 6 0 11 5 11 10 0 6 -2 10 -4 10 -3 0
-8 -4 -11 -10z"/>
<path d="M520 1379 c-12 -35 -12 -42 1 -50 39 -25 53 0 29 54 l-17 37 -13 -41z"/>
<path d="M157 1404 c-4 -4 -4 -10 -1 -15 6 -10 34 0 34 12 0 10 -24 12 -33 3z"/>
<path d="M235 1366 c-16 -12 -18 -18 -7 -40 14 -32 58 -45 79 -23 20 20 9 51
-23 65 -31 15 -26 15 -49 -2z"/>
<path d="M126 1331 c-4 -6 6 -17 22 -25 27 -14 28 -14 27 7 -2 23 -38 36 -49
18z"/>
<path d="M620 1255 c0 -84 17 -103 22 -25 l3 51 40 -51 c55 -70 65 -66 65 26
0 56 -3 75 -12 72 -7 -3 -15 -27 -18 -54 l-5 -49 -40 52 c-22 29 -43 52 -47
53 -5 0 -8 -34 -8 -75z"/>
<path d="M780 1255 l0 -75 56 0 c34 0 53 4 49 10 -3 6 -23 10 -44 10 -36 0
-38 2 -33 26 3 18 10 24 22 21 10 -2 24 -1 31 4 10 6 4 9 -18 9 -28 0 -33 3
-33 25 0 22 4 25 35 25 19 0 35 5 35 10 0 6 -22 10 -50 10 l-50 0 0 -75z"/>
<path d="M910 1283 c0 -67 18 -97 59 -101 52 -5 71 19 71 90 0 32 -4 58 -10
58 -5 0 -10 -24 -10 -53 0 -58 -12 -77 -47 -77 -28 0 -43 32 -43 91 0 21 -4
39 -10 39 -5 0 -10 -21 -10 -47z"/>
<path d="M1080 1255 c0 -43 4 -75 10 -75 6 0 10 11 10 25 0 18 5 25 19 25 10
0 26 -11 35 -25 22 -34 40 -32 22 3 -12 23 -12 29 0 40 37 34 3 82 -57 82
l-39 0 0 -75z m84 40 c10 -26 -5 -45 -35 -45 -26 0 -29 4 -29 30 0 26 3 30 29
30 16 0 31 -6 35 -15z"/>
<path d="M1243 1273 c-12 -32 -25 -66 -29 -75 -3 -10 -1 -18 4 -18 6 0 14 9
17 20 8 25 75 30 75 6 0 -15 18 -31 26 -24 6 7 -51 141 -62 145 -5 2 -19 -23
-31 -54z m51 -20 c6 -20 4 -23 -18 -23 -29 0 -31 7 -14 45 12 27 19 23 32 -22z"/>
<path d="M1370 1255 l0 -75 50 0 c28 0 50 5 50 10 0 6 -18 10 -40 10 l-40 0 0
65 c0 37 -4 65 -10 65 -6 0 -10 -32 -10 -75z"/>
<path d="M182 1258 c3 -7 1 -21 -4 -30 -10 -21 0 -23 25 -4 22 17 22 23 -4 37
-17 9 -20 8 -17 -3z"/>
<path d="M101 1247 c-6 -6 -11 -15 -11 -20 0 -12 43 -4 47 9 5 16 -22 25 -36
11z"/>
<path d="M190 1170 c-11 -7 -12 -12 -3 -21 13 -13 33 -4 33 17 0 16 -9 18 -30
4z"/>
<path d="M93 1160 c-29 -12 -31 -50 -4 -50 20 0 34 14 44 43 7 19 -5 21 -40 7z"/>
<path d="M281 1106 c-10 -11 -9 -14 1 -12 14 2 23 15 15 22 -2 2 -10 -2 -16
-10z"/>
<path d="M610 1035 c0 -43 4 -75 10 -75 6 0 10 32 10 75 0 43 -4 75 -10 75 -6
0 -10 -32 -10 -75z"/>
<path d="M670 1035 c0 -43 4 -75 10 -75 6 0 10 24 10 53 l1 52 47 -53 c26 -29
50 -52 55 -52 11 0 9 150 -3 150 -5 0 -10 -25 -12 -55 l-3 -56 -43 56 c-24 30
-47 55 -53 55 -5 0 -9 -34 -9 -75z"/>
<path d="M840 1035 c0 -43 4 -75 10 -75 6 0 10 14 10 30 0 27 3 30 29 30 17 0
33 5 36 10 4 6 -8 10 -29 10 -32 0 -36 3 -36 25 0 23 4 25 40 25 22 0 40 5 40
10 0 6 -22 10 -50 10 l-50 0 0 -75z"/>
<path d="M975 1085 c-30 -30 -32 -64 -4 -99 54 -68 155 4 115 82 -25 49 -73
56 -111 17z m83 -7 c17 -17 15 -73 -2 -88 -23 -18 -59 -8 -75 21 -13 24 -13
29 2 53 19 28 54 35 75 14z"/>
<path d="M1120 1035 c0 -60 3 -75 15 -75 9 0 15 9 15 25 0 18 5 25 18 25 10 0
25 -11 32 -25 7 -14 19 -25 27 -25 11 0 10 5 -2 24 -15 23 -15 27 0 50 16 24
16 28 1 51 -14 21 -25 25 -61 25 l-45 0 0 -75z m85 25 c0 -20 -6 -26 -27 -28
-25 -3 -28 0 -28 28 0 28 3 31 28 28 21 -2 27 -8 27 -28z"/>
<path d="M1270 1035 c0 -43 4 -75 10 -75 6 0 10 24 10 53 l1 52 23 -38 c33
-53 32 -53 58 -5 l23 43 3 -52 c5 -81 22 -63 22 22 0 90 -15 98 -49 28 -25
-52 -25 -52 -63 16 -28 50 -38 38 -38 -44z"/>
<path d="M1472 1035 c-23 -55 -27 -75 -17 -75 8 0 17 9 20 20 5 14 15 20 37
20 21 0 31 -6 35 -20 3 -11 11 -20 19 -20 11 0 11 6 -1 38 -25 71 -45 112 -54
112 -5 0 -22 -34 -39 -75z m57 -7 c1 -9 -6 -15 -14 -14 -23 3 -26 12 -14 42
10 27 12 27 19 9 5 -11 9 -27 9 -37z"/>
<path d="M1570 1100 c0 -5 14 -10 30 -10 l30 0 0 -65 c0 -37 4 -65 10 -65 6 0
10 28 10 65 0 63 1 65 25 65 14 0 25 5 25 10 0 6 -28 10 -65 10 -37 0 -65 -4
-65 -10z"/>
<path d="M1720 1035 c0 -43 4 -75 10 -75 6 0 10 32 10 75 0 43 -4 75 -10 75
-6 0 -10 -32 -10 -75z"/>
<path d="M1795 1085 c-30 -30 -32 -64 -4 -99 43 -55 123 -22 123 51 0 67 -72
96 -119 48z m85 -10 c16 -20 16 -61 0 -80 -19 -23 -62 -14 -79 16 -13 24 -13
29 2 53 20 29 57 35 77 11z"/>
<path d="M1949 1108 c0 -2 -2 -36 -2 -76 -2 -52 2 -72 11 -72 8 0 12 17 12 51
l0 52 42 -52 c23 -28 45 -51 50 -51 4 0 8 34 8 75 0 85 -17 103 -22 23 l-3
-53 -40 52 c-34 45 -52 61 -56 51z"/>
<path d="M193 1075 c-3 -9 -2 -19 1 -23 8 -8 38 10 44 26 6 18 -38 14 -45 -3z"/>
<path d="M80 1045 c-16 -19 -6 -45 18 -45 23 0 42 19 42 42 0 22 -42 25 -60 3z"/>
<path d="M315 1040 c-3 -5 -2 -17 3 -25 7 -13 10 -12 20 10 9 20 9 25 -3 25
-7 0 -17 -4 -20 -10z"/>
<path d="M238 999 c-24 -13 -23 -39 1 -39 22 0 45 25 36 40 -8 12 -15 12 -37
-1z"/>
<path d="M370 985 c-9 -11 -10 -19 -2 -27 14 -14 32 -1 32 23 0 23 -13 25 -30
4z"/>
<path d="M133 950 c-25 -10 -40 -47 -24 -63 8 -8 21 -6 46 6 55 26 89 22 119
-14 33 -39 33 -82 0 -130 -29 -42 -26 -79 7 -79 11 0 17 4 14 10 -3 5 0 7 8 4
24 -9 37 38 20 77 -9 21 -12 49 -9 72 20 131 20 124 -1 105 -26 -24 -87 -23
-127 1 -22 13 -37 16 -53 11z"/>
<path d="M427 925 c-2 -5 4 -23 13 -38 l17 -28 7 32 c3 17 6 35 6 40 0 11 -39
7 -43 -6z"/>
<path d="M503 894 c-3 -8 0 -21 6 -27 10 -9 16 -8 26 7 8 10 12 23 9 27 -9 15
-34 10 -41 -7z"/>
<path d="M710 826 c0 -44 4 -76 10 -76 6 0 10 11 10 25 0 20 5 25 24 25 13 0
34 9 47 19 20 16 22 23 14 47 -9 26 -16 29 -58 32 l-47 3 0 -75z m86 39 c9
-21 -14 -45 -42 -45 -20 0 -24 5 -24 30 0 27 3 30 30 30 18 0 33 -6 36 -15z"/>
<path d="M850 825 c0 -43 4 -75 10 -75 6 0 10 11 10 25 0 18 5 25 19 25 10 0
26 -11 35 -25 23 -35 40 -32 22 4 -14 26 -14 30 -1 41 38 32 4 80 -56 80 l-39
0 0 -75z m83 43 c8 -22 -13 -48 -38 -48 -21 0 -25 5 -25 30 0 26 3 30 29 30
16 0 31 -6 34 -12z"/>
<path d="M1001 874 c-28 -35 -26 -69 4 -99 47 -48 115 -19 115 50 0 70 -77
102 -119 49z m87 -6 c16 -16 15 -60 -1 -82 -18 -25 -58 -17 -76 15 -13 24 -13
29 2 53 19 28 54 35 75 14z"/>
<path d="M1177 889 c-48 -28 -35 -121 18 -135 28 -7 75 9 75 26 0 13 -17 13
-25 0 -11 -17 -54 -11 -65 9 -14 26 -13 64 2 79 15 15 51 15 66 0 17 -17 28
-2 12 17 -14 17 -57 19 -83 4z"/>
<path d="M1300 825 l0 -75 56 0 c34 0 53 4 49 10 -3 6 -21 10 -40 10 -37 0
-48 10 -39 34 4 10 18 16 35 16 16 0 29 5 29 10 0 6 -15 10 -33 10 -26 0 -33
4 -34 20 -2 17 4 20 38 20 21 0 39 5 39 10 0 6 -22 10 -50 10 l-50 0 0 -75z"/>
<path d="M1442 888 c-25 -25 -14 -54 28 -71 25 -10 40 -22 40 -33 0 -14 -7
-16 -47 -11 -44 6 -46 5 -29 -8 26 -20 70 -19 90 1 27 27 13 53 -36 70 -18 6
-35 19 -36 28 -3 14 3 17 30 16 48 -3 55 -1 38 10 -21 13 -64 12 -78 -2z"/>
<path d="M1572 888 c-28 -28 -11 -57 43 -75 17 -5 30 -16 30 -24 0 -18 -52
-24 -71 -8 -11 9 -14 8 -14 -5 0 -33 94 -33 107 1 9 23 -9 45 -48 58 -47 16
-45 40 4 39 24 -1 36 3 34 10 -5 16 -70 19 -85 4z"/>
<path d="M1700 825 c0 -43 4 -75 10 -75 6 0 10 32 10 75 0 43 -4 75 -10 75 -6
0 -10 -32 -10 -75z"/>
<path d="M1760 825 c0 -43 4 -75 10 -75 6 0 10 24 10 53 l1 52 47 -53 c26 -29
50 -52 55 -52 11 0 9 150 -3 150 -5 0 -10 -22 -10 -50 0 -27 -4 -50 -8 -50 -4
0 -25 23 -45 50 -21 28 -42 50 -47 50 -6 0 -10 -33 -10 -75z"/>
<path d="M1940 880 c-28 -28 -26 -81 3 -108 16 -15 34 -21 65 -19 42 1 42 2
42 39 0 34 -3 38 -25 38 -14 0 -25 -4 -25 -10 0 -5 7 -10 15 -10 22 0 18 -28
-5 -35 -50 -16 -85 30 -61 81 11 26 39 31 72 14 21 -12 26 -1 7 18 -19 19 -66
14 -88 -8z"/>
<path d="M611 856 c-7 -8 -9 -21 -5 -27 4 -7 3 -9 -4 -5 -6 3 -13 2 -17 -4
-10 -16 41 -11 55 6 11 12 11 18 -2 30 -13 13 -16 13 -27 0z"/>
<path d="M362 848 c-16 -16 -15 -45 2 -51 21 -8 49 16 44 39 -4 23 -29 29 -46
12z"/>
<path d="M176 831 c-10 -11 -16 -28 -14 -38 8 -43 78 -14 78 34 0 29 -39 32
-64 4z"/>
<path d="M451 794 c-15 -54 -14 -57 17 -87 l27 -26 2 35 c3 51 6 64 14 58 4
-2 10 0 14 6 3 5 -3 10 -14 10 -11 0 -27 10 -35 21 -14 21 -15 20 -25 -17z"/>
<path d="M611 736 c-9 -11 -10 -20 -1 -35 21 -40 57 -20 46 25 -7 27 -27 31
-45 10z"/>
<path d="M872 678 c-16 -16 -16 -45 1 -55 6 -4 25 -12 41 -18 16 -5 31 -16 34
-22 6 -19 -27 -28 -59 -16 -23 9 -29 9 -29 -3 0 -31 95 -29 107 3 9 23 -9 45
-48 58 -47 16 -45 40 4 40 20 0 36 5 34 10 -5 15 -70 18 -85 3z"/>
<path d="M1010 641 c17 -26 30 -60 30 -75 0 -14 5 -26 10 -26 6 0 10 13 10 29
0 16 12 49 26 75 30 54 16 63 -17 10 l-22 -37 -21 37 c-12 19 -27 36 -33 36
-8 0 -1 -19 17 -49z"/>
<path d="M1142 678 c-28 -28 -11 -57 42 -75 17 -5 32 -15 34 -21 6 -18 -28
-27 -59 -15 -23 9 -29 8 -29 -2 0 -19 63 -30 89 -16 23 13 28 43 9 58 -7 6
-26 15 -43 20 -44 14 -39 38 8 38 20 0 36 5 34 10 -5 15 -70 18 -85 3z"/>
<path d="M1250 680 c0 -5 11 -10 25 -10 24 0 25 -2 25 -66 0 -48 3 -65 13 -61
6 2 13 22 14 45 0 23 2 51 2 62 1 13 8 20 20 20 11 0 23 5 26 10 4 6 -18 10
-59 10 -37 0 -66 -4 -66 -10z"/>
<path d="M1400 615 l0 -75 50 0 c28 0 50 5 50 10 0 6 -18 10 -40 10 -36 0 -40
3 -40 25 0 22 4 25 35 25 19 0 35 5 35 10 0 6 -16 10 -35 10 -28 0 -35 4 -35
20 0 17 7 20 40 20 22 0 40 5 40 10 0 6 -22 10 -50 10 l-50 0 0 -75z"/>
<path d="M1530 615 c0 -43 4 -75 10 -75 6 0 10 23 10 50 0 59 10 63 33 15 9
-19 20 -35 25 -35 5 0 17 17 28 38 l19 37 3 -52 c5 -81 22 -63 22 23 0 87 -11
93 -49 24 l-24 -43 -24 47 c-36 71 -53 62 -53 -29z"/>
<path d="M1733 684 c-7 -3 -13 -18 -13 -33 0 -23 7 -31 41 -44 25 -10 39 -21
37 -29 -6 -17 -46 -22 -63 -8 -8 7 -15 7 -19 1 -17 -27 72 -41 98 -15 30 30
17 53 -39 71 -16 5 -32 18 -33 27 -3 15 2 17 32 15 20 -2 37 1 38 6 3 11 -59
17 -79 9z"/>
<path d="M410 670 c0 -5 -5 -9 -12 -7 -6 1 -17 -9 -24 -22 -23 -44 17 -81 50
-48 23 23 28 54 11 71 -19 19 -25 20 -25 6z"/>
<path d="M503 645 c0 -8 -6 -32 -13 -54 -20 -63 10 -102 50 -66 26 24 25 56
-2 86 -13 14 -24 28 -25 33 -3 15 -10 16 -10 1z"/>
<path d="M742 648 c-17 -17 -15 -54 3 -72 30 -30 63 9 51 60 -7 26 -34 32 -54
12z"/>
<path d="M622 588 c-17 -17 -15 -63 4 -79 26 -21 49 1 49 47 0 31 -4 40 -20
42 -11 1 -26 -3 -33 -10z"/>
</g>
</svg>
