<?xml version="1.0" standalone="no"?>
<!DOCTYPE svg PUBLIC "-//W3C//DTD SVG 20010904//EN"
 "http://www.w3.org/TR/2001/REC-SVG-20010904/DTD/svg10.dtd">
<svg version="1.0" xmlns="http://www.w3.org/2000/svg"
 width="1200.000000pt" height="1200.000000pt" viewBox="0 0 1200.000000 1200.000000"
 preserveAspectRatio="xMidYMid meet">

<g transform="translate(0.000000,1200.000000) scale(0.100000,-0.100000)"
fill="#000000" stroke="none">
<path d="M5740 11993 c-855 -43 -1612 -236 -2355 -597 -1193 -581 -2158 -1534
-2749 -2715 -350 -699 -542 -1385 -617 -2211 -17 -179 -17 -745 -1 -935 52
-599 174 -1138 379 -1675 415 -1086 1153 -2043 2103 -2727 886 -638 1892
-1010 3002 -1110 251 -22 757 -22 1008 1 1278 116 2437 605 3403 1434 152 130
435 409 570 562 561 635 966 1343 1225 2140 141 434 232 892 274 1375 18 220
16 756 -6 985 -72 780 -270 1478 -610 2158 -908 1814 -2680 3056 -4681 3281
-305 34 -680 48 -945 34z m730 -168 c1862 -143 3560 -1197 4539 -2818 442
-732 707 -1527 807 -2417 25 -224 30 -794 10 -1045 -100 -1232 -567 -2364
-1366 -3315 -146 -174 -516 -544 -690 -690 -841 -707 -1845 -1163 -2905 -1319
-275 -41 -430 -53 -756 -58 -412 -7 -692 11 -1039 68 -1047 170 -2016 617
-2842 1310 -178 150 -556 530 -704 709 -670 807 -1098 1721 -1278 2730 -65
367 -81 565 -81 1025 0 418 8 543 56 865 316 2120 1795 3913 3825 4638 768
274 1587 381 2424 317z"/>
<path d="M5912 11694 c-51 -30 -92 -59 -92 -64 0 -4 42 -34 92 -65 90 -55 94
-56 118 -41 14 9 58 35 97 58 40 24 73 45 73 48 0 3 -28 21 -63 41 -34 20 -78
46 -97 58 l-36 20 -92 -55z"/>
<path d="M5477 11665 l-89 -64 104 -52 104 -52 87 63 c48 34 87 65 87 68 0 9
-182 103 -195 102 -5 -1 -50 -30 -98 -65z"/>
<path d="M6332 11681 c-52 -26 -93 -51 -91 -57 2 -5 41 -37 88 -71 l86 -61 97
51 c54 29 98 55 98 58 0 7 -153 117 -172 124 -7 2 -55 -17 -106 -44z"/>
<path d="M5068 11619 c-46 -39 -84 -73 -85 -77 -3 -6 33 -23 158 -72 l46 -19
79 66 c44 35 83 69 88 74 5 5 -1 12 -15 18 -13 5 -61 25 -106 44 l-82 36 -83
-70z"/>
<path d="M6775 11640 c-49 -22 -94 -41 -98 -42 -4 -2 25 -30 64 -63 118 -97
96 -93 214 -44 58 24 102 46 97 50 -41 39 -169 139 -177 138 -5 0 -50 -18
-100 -39z"/>
<path d="M4649 11533 c-43 -42 -79 -79 -79 -82 0 -4 47 -22 104 -41 l105 -34
87 79 c54 50 81 81 73 84 -8 2 -58 19 -112 37 l-98 33 -80 -76z"/>
<path d="M7193 11567 c-50 -18 -94 -34 -97 -38 -3 -3 30 -40 73 -83 l79 -78
98 32 c55 18 103 35 108 38 10 5 -144 162 -159 161 -5 0 -51 -15 -102 -32z"/>
<path d="M4238 11412 l-77 -87 107 -27 c59 -15 110 -28 113 -28 7 0 149 161
149 170 0 3 -44 17 -97 29 -54 13 -102 25 -108 27 -5 2 -45 -35 -87 -84z"/>
<path d="M7610 11462 c-58 -14 -107 -27 -109 -29 -4 -2 31 -45 106 -131 l38
-43 112 27 112 28 -29 35 c-16 20 -51 59 -77 87 l-48 52 -105 -26z"/>
<path d="M5665 11403 c-889 -57 -1755 -333 -2515 -801 -700 -430 -1334 -1067
-1763 -1771 -462 -755 -722 -1569 -787 -2456 -13 -180 -13 -570 0 -750 77
-1049 445 -2038 1070 -2870 772 -1027 1870 -1741 3120 -2028 721 -166 1506
-181 2235 -41 1850 355 3391 1663 4048 3434 328 884 417 1838 261 2780 -160
967 -577 1856 -1232 2630 -128 152 -415 438 -576 575 -900 768 -1972 1209
-3151 1295 -127 9 -586 11 -710 3z m736 -94 c1031 -81 1980 -438 2797 -1053
388 -292 774 -679 1063 -1066 614 -819 974 -1787 1049 -2815 13 -180 13 -570
0 -750 -83 -1143 -527 -2223 -1271 -3090 -132 -154 -420 -442 -574 -574 -767
-658 -1721 -1091 -2710 -1230 -272 -38 -403 -46 -760 -46 -355 0 -464 7 -740
46 -1169 164 -2236 706 -3065 1555 -843 864 -1353 1950 -1487 3164 -26 233
-26 886 0 1105 69 591 210 1114 433 1613 536 1196 1491 2154 2684 2690 497
224 1040 372 1581 431 101 12 207 22 234 24 126 8 645 6 766 -4z"/>
<path d="M6050 11030 c0 -5 10 -10 23 -10 13 0 32 -6 42 -14 18 -13 18 -25 6
-376 -7 -200 -17 -374 -22 -387 -13 -36 -49 -27 -63 16 -15 45 -37 58 -70 43
-20 -9 -26 -19 -26 -45 0 -44 27 -68 83 -74 82 -10 160 55 186 153 5 22 15
172 21 334 6 162 13 303 16 313 3 10 19 20 35 24 16 3 29 12 29 19 0 11 -26
14 -130 14 -80 0 -130 -4 -130 -10z"/>
<path d="M6400 11017 c0 -8 12 -17 29 -20 17 -4 30 -14 34 -27 3 -11 -8 -114
-24 -228 -17 -119 -26 -222 -23 -242 17 -90 66 -139 167 -166 154 -41 257 8
301 144 11 34 66 374 66 407 0 13 36 35 56 35 21 0 37 20 17 20 -17 1 -147 21
-169 26 -17 4 -24 2 -24 -9 0 -8 13 -17 29 -20 17 -4 32 -14 36 -26 8 -25 -41
-370 -61 -433 -18 -56 -69 -104 -119 -114 -87 -16 -176 43 -190 126 -9 51 42
425 62 458 9 15 23 22 43 22 18 0 30 5 30 13 0 9 -32 17 -102 25 -57 7 -115
15 -130 19 -21 4 -28 1 -28 -10z"/>
<path d="M5225 10984 c-55 -9 -115 -17 -132 -20 -41 -6 -43 -24 -3 -24 20 0
34 -7 44 -22 20 -33 79 -533 66 -558 -13 -25 -92 -37 -124 -20 -13 6 -72 61
-132 121 l-108 108 21 23 c53 59 66 126 37 198 -33 82 -109 105 -234 71 -41
-11 -114 -31 -162 -43 -55 -14 -88 -27 -88 -35 0 -9 8 -11 23 -8 50 13 63 -14
132 -275 36 -135 65 -255 65 -268 0 -14 -11 -29 -31 -41 -47 -28 -18 -34 58
-12 38 11 94 25 126 32 62 13 73 36 15 31 -22 -2 -39 2 -47 12 -12 15 -71 216
-71 243 0 7 11 15 23 18 20 5 43 -13 149 -121 l126 -128 89 22 c109 27 178 38
317 52 124 13 181 34 237 92 66 68 84 119 84 233 0 87 -3 107 -26 155 -74 154
-204 201 -454 164z m218 -37 c113 -48 187 -260 142 -412 -28 -98 -112 -165
-206 -165 -57 0 -59 6 -96 300 -27 219 -31 275 -21 282 21 13 146 9 181 -5z
m-705 -137 c35 -22 58 -63 68 -128 11 -69 -29 -119 -111 -136 l-31 -7 -35 133
-36 133 26 12 c39 18 82 15 119 -7z"/>
<path d="M7096 10912 c-3 -5 5 -15 19 -22 13 -7 29 -25 35 -41 11 -24 4 -55
-51 -245 -35 -119 -72 -231 -84 -248 -16 -24 -29 -32 -58 -34 -49 -4 -47 -19
6 -33 23 -6 69 -19 102 -30 37 -11 63 -15 69 -9 6 6 2 12 -10 16 -34 12 -54
37 -54 66 0 34 111 418 121 418 3 0 64 -136 134 -302 121 -287 147 -339 160
-326 3 3 41 125 84 272 86 291 98 316 158 316 46 0 41 17 -9 30 -24 6 -71 20
-106 32 -62 20 -96 17 -58 -6 35 -21 56 -46 56 -68 0 -34 -103 -379 -111 -370
-4 4 -53 117 -109 252 -56 135 -108 256 -115 269 -9 18 -30 30 -76 43 -35 10
-71 21 -80 24 -9 3 -19 2 -23 -4z"/>
<path d="M7815 10691 c-3 -5 4 -12 15 -16 26 -8 42 -38 33 -62 -25 -69 -197
-481 -206 -491 -6 -8 -25 -12 -45 -10 -54 4 -48 -16 10 -37 29 -10 82 -31 116
-47 75 -33 95 -28 52 12 l-30 28 19 49 c87 219 194 460 207 470 9 7 29 9 45 6
52 -10 30 14 -33 37 -35 13 -84 34 -110 47 -52 25 -64 28 -73 14z"/>
<path d="M4050 10651 c-54 -17 -113 -54 -150 -92 -115 -119 -104 -346 23 -477
76 -79 170 -110 274 -91 184 34 291 187 261 373 -18 117 -80 212 -169 261 -45
24 -68 29 -134 32 -44 1 -91 -1 -105 -6z m118 -67 c83 -41 145 -126 187 -254
51 -156 -7 -277 -139 -288 -84 -7 -153 37 -225 142 -68 99 -99 237 -70 313 15
40 48 73 94 94 55 25 92 24 153 -7z"/>
<path d="M8150 10448 c-78 -30 -169 -123 -200 -203 -65 -168 1 -339 160 -414
74 -35 191 -37 263 -4 64 30 147 115 182 188 39 81 42 197 6 265 -32 62 -96
127 -156 157 -71 37 -179 42 -255 11z m245 -52 c79 -42 108 -163 68 -287 -24
-74 -109 -197 -161 -233 -120 -84 -272 9 -272 165 0 132 91 307 185 357 67 35
112 35 180 -2z"/>
<path d="M3535 10384 c-38 -24 -119 -71 -178 -105 -69 -40 -105 -65 -99 -71 6
-6 17 -6 31 1 15 8 27 9 41 1 17 -9 266 -416 283 -462 4 -11 -3 -29 -19 -47
-38 -45 -15 -44 61 3 39 24 92 55 118 70 32 19 46 31 39 38 -6 6 -20 4 -40 -6
-17 -9 -38 -13 -46 -10 -13 5 -146 215 -146 230 0 2 24 17 53 34 64 37 99 38
125 5 21 -26 32 -32 32 -16 0 16 -102 181 -111 181 -11 0 -11 -3 1 -34 5 -14
7 -33 4 -41 -5 -13 -112 -85 -127 -85 -3 0 -94 148 -124 202 -6 12 132 88 161
88 17 0 39 -11 57 -30 21 -21 31 -25 35 -16 6 16 -55 116 -70 115 -6 0 -42
-20 -81 -45z"/>
<path d="M8755 10210 c-3 -6 3 -22 14 -36 11 -14 17 -33 14 -42 -10 -29 -304
-422 -322 -432 -12 -6 -26 -4 -44 5 -36 18 -50 -3 -16 -24 13 -9 61 -44 106
-78 46 -35 85 -63 88 -63 13 0 3 27 -15 43 -11 9 -20 25 -20 35 0 11 27 57 61
103 82 115 81 114 107 92 21 -18 21 -20 8 -118 -8 -55 -16 -133 -19 -172 l-4
-73 68 -49 c69 -51 94 -53 63 -6 -15 22 -16 42 -10 138 4 62 9 135 13 164 5
51 6 52 34 46 73 -14 166 41 190 114 26 78 -9 142 -119 220 -37 26 -95 69
-129 95 -36 29 -64 44 -68 38z m186 -169 c50 -50 53 -95 10 -163 -32 -51 -74
-78 -118 -78 -29 0 -103 43 -103 61 0 13 153 218 164 219 4 0 26 -17 47 -39z"/>
<path d="M3088 10107 c-87 -71 -106 -100 -44 -71 29 14 36 15 60 2 29 -15 260
-301 247 -306 -4 -1 -135 27 -291 63 -231 52 -288 62 -301 52 -9 -7 -39 -29
-67 -50 -65 -49 -69 -72 -7 -48 43 17 72 -9 209 -184 148 -188 171 -229 157
-269 -12 -29 -48 -56 -76 -56 -12 0 -151 63 -309 140 -159 77 -290 140 -291
140 -1 0 -8 -21 -15 -46 -11 -38 -11 -50 0 -68 50 -79 272 -504 273 -521 0
-11 -3 -33 -8 -49 -11 -41 3 -32 74 47 61 67 75 107 24 67 -14 -11 -31 -20
-38 -20 -8 0 -34 37 -60 81 l-47 82 69 69 70 70 81 -41 c85 -43 100 -64 67
-91 -10 -8 -12 -17 -6 -23 5 -5 50 32 117 100 86 86 176 163 233 199 1 2 0 8
-4 13 -4 8 -15 6 -34 -5 -52 -31 -70 -16 -215 169 -75 94 -132 173 -128 174 4
1 156 -31 337 -71 356 -80 383 -82 327 -22 -55 58 -311 393 -328 430 -17 35
-17 37 5 67 42 57 7 46 -81 -24z m-447 -875 c-10 -15 -35 -42 -54 -60 l-35
-34 -66 117 c-36 64 -66 119 -66 121 0 2 54 -23 120 -56 l121 -61 -20 -27z"/>
<path d="M5780 10073 c-892 -60 -1666 -357 -2340 -898 -153 -122 -415 -377
-541 -526 -510 -600 -834 -1320 -938 -2085 -129 -940 62 -1870 548 -2673 173
-285 359 -520 610 -771 335 -335 673 -578 1086 -780 1067 -522 2307 -555 3398
-89 824 353 1517 977 1958 1764 596 1065 680 2356 227 3494 -327 824 -937
1540 -1695 1992 -557 332 -1174 524 -1821 569 -140 9 -381 11 -492 3z m535
-103 c523 -44 998 -176 1455 -404 617 -308 1139 -765 1523 -1332 370 -546 583
-1122 664 -1794 25 -205 24 -678 0 -880 -97 -785 -378 -1457 -865 -2065 -123
-154 -433 -464 -587 -587 -619 -496 -1319 -784 -2115 -870 -175 -19 -643 -16
-823 5 -904 107 -1699 482 -2336 1102 -334 325 -576 653 -782 1060 -286 566
-429 1161 -429 1791 -1 1287 612 2483 1660 3239 576 416 1280 675 1997 734
144 12 500 12 638 1z"/>
<path d="M5745 9860 c-1376 -95 -2591 -903 -3208 -2136 -206 -411 -337 -869
-389 -1354 -18 -174 -15 -604 6 -785 41 -352 112 -647 233 -965 340 -893 1025
-1649 1878 -2073 415 -207 791 -319 1295 -389 153 -21 740 -18 910 5 458 61
840 177 1245 377 1017 503 1763 1432 2035 2533 85 345 116 641 107 1027 -8
332 -37 552 -113 855 -345 1371 -1438 2458 -2814 2798 -368 91 -818 132 -1185
107z m550 -60 c1097 -92 2078 -629 2741 -1501 870 -1146 1015 -2714 368 -4001
-40 -80 -48 -89 -67 -83 -12 3 -61 14 -109 25 -48 10 -92 21 -97 24 -5 4 -35
11 -65 17 -68 12 -186 -13 -313 -68 -67 -28 -90 -34 -122 -28 -21 3 -57 2 -78
-4 -33 -9 -50 -8 -97 9 -31 10 -69 28 -84 38 -15 11 -70 31 -122 46 -52 15
-151 49 -218 77 -68 27 -135 49 -149 49 -45 0 -235 -60 -318 -100 -126 -61
-131 -61 -283 -4 -37 14 -84 24 -116 24 -55 0 -151 28 -195 56 -38 26 -183 12
-328 -31 -148 -44 -362 -92 -428 -97 l-50 -3 -3 44 c-2 26 4 64 14 89 14 37
16 64 11 146 -4 56 -11 117 -17 136 -5 19 -10 82 -10 140 0 79 -5 115 -18 145
-16 34 -16 44 -5 75 9 25 11 69 6 151 -6 127 -1 141 40 109 29 -23 53 -26 60
-7 2 7 19 -2 47 -27 35 -31 47 -37 71 -32 26 5 29 3 29 -19 0 -14 5 -45 12
-70 l12 -46 -44 -38 -44 -37 22 -22 c17 -17 34 -22 71 -22 43 0 54 5 84 35 19
19 40 35 46 35 18 0 25 -29 11 -45 -9 -11 -7 -21 14 -48 30 -39 32 -54 10 -78
-19 -21 -11 -39 16 -39 27 0 34 -18 16 -43 -9 -12 -23 -32 -32 -44 -21 -29
-10 -63 20 -63 13 0 40 7 61 15 20 9 45 13 55 10 23 -7 37 16 46 76 4 24 15
58 26 76 l19 32 -40 86 c-22 48 -61 109 -86 137 -25 27 -45 56 -45 63 0 7 -20
23 -45 35 -42 20 -145 132 -145 158 0 16 48 20 70 5 11 -8 18 -18 16 -22 -8
-12 24 -52 35 -46 5 4 9 22 9 41 0 35 0 35 43 32 36 -3 42 -6 39 -23 -8 -52
-6 -59 27 -82 22 -15 49 -23 76 -23 26 0 47 -6 56 -16 7 -8 21 -13 31 -11 16
5 18 -2 18 -73 0 -43 4 -90 10 -105 12 -32 -9 -44 -51 -28 -22 8 -29 8 -29 0
0 -22 14 -34 61 -56 25 -12 52 -33 59 -46 7 -13 31 -31 54 -40 40 -17 41 -17
63 10 61 70 72 272 19 349 -14 21 -26 52 -26 69 0 23 -14 43 -67 94 -70 67
-146 107 -228 120 -22 3 -46 12 -53 20 -7 7 -20 13 -28 13 -8 0 -31 17 -52 39
-20 21 -80 63 -133 94 -95 56 -169 122 -169 152 0 20 8 19 51 -4 19 -10 62
-23 95 -29 32 -5 67 -13 77 -17 14 -6 17 -2 17 25 l0 31 31 -22 c17 -12 32
-28 35 -35 14 -45 15 -47 25 -37 21 21 -8 82 -70 149 -33 35 -68 78 -77 96
l-16 31 37 -6 c58 -9 96 -46 154 -151 56 -103 57 -104 24 -189 l-18 -49 24
-19 c13 -11 39 -19 59 -19 29 0 43 8 81 50 69 74 84 76 142 18 26 -26 57 -48
67 -48 21 0 42 38 42 75 0 30 11 32 35 5 42 -47 53 -4 15 59 -17 26 -30 51
-30 55 0 3 11 6 25 6 28 0 65 -49 65 -85 0 -11 21 -51 45 -89 25 -39 48 -87
52 -108 9 -57 53 -74 113 -43 35 18 120 10 120 -11 0 -21 15 -17 28 9 10 19 5
36 -41 127 -46 93 -56 107 -93 124 -22 11 -50 34 -63 53 -24 37 -75 73 -104
73 -10 0 -28 6 -40 14 -12 8 -55 22 -95 31 -43 10 -84 26 -101 41 -16 13 -33
24 -37 24 -5 0 -46 18 -91 41 -70 35 -91 41 -150 42 -37 0 -87 -3 -110 -7 -30
-6 -47 -5 -58 4 -26 21 -17 39 30 62 42 20 44 24 47 67 l3 46 58 9 c50 7 57
11 57 31 0 35 37 39 65 9 29 -31 22 -58 -11 -51 -20 4 -26 -1 -35 -33 -16 -54
4 -93 53 -101 20 -3 43 -11 50 -17 7 -6 41 -14 74 -17 l61 -7 13 32 c12 28 11
36 -5 67 -11 19 -27 39 -38 44 -10 6 -43 33 -73 60 -33 30 -63 49 -78 49 -23
0 -76 49 -76 71 0 5 -19 9 -42 9 -49 0 -85 16 -105 46 -12 18 -11 24 4 43 20
24 29 20 62 -26 28 -42 43 -41 66 1 18 33 18 34 -4 70 -27 44 -32 45 -24 6 7
-36 -7 -39 -48 -9 -16 11 -29 29 -29 40 0 18 4 20 30 14 38 -8 38 0 0 20 -24
13 -48 14 -119 9 l-89 -7 -40 41 c-21 22 -53 43 -70 47 -18 3 -40 17 -51 31
-10 13 -26 24 -35 24 -17 0 -56 68 -56 98 0 10 -15 39 -34 63 -55 72 -97 235
-66 254 6 4 7 35 3 80 -3 41 -3 75 0 75 4 0 28 -14 54 -30 26 -16 55 -30 65
-30 10 0 32 -20 50 -45 31 -44 61 -57 83 -36 6 5 32 -2 65 -17 42 -21 56 -33
58 -52 1 -14 10 -44 18 -67 17 -46 46 -58 68 -27 7 8 31 18 55 21 23 3 45 12
48 19 3 8 25 28 50 44 l45 31 43 -36 c47 -38 68 -43 91 -20 10 9 34 15 63 15
41 0 50 -4 69 -30 22 -29 26 -30 98 -30 70 0 78 -2 105 -29 19 -20 29 -40 29
-60 0 -29 22 -61 41 -61 6 0 21 12 36 26 23 23 25 31 21 90 -3 43 -10 72 -24
91 -17 23 -86 66 -211 133 -17 10 -46 29 -63 44 -17 14 -43 26 -57 26 -14 0
-38 11 -55 25 -26 22 -39 25 -111 25 -45 0 -104 7 -131 15 -27 8 -70 15 -95
15 -64 0 -118 17 -136 42 -8 12 -34 27 -57 34 -49 14 -136 44 -158 54 -22 10
-24 35 -4 55 13 13 27 15 60 10 25 -3 45 -2 49 5 3 5 13 10 22 10 15 0 15 -12
-1 -51 -9 -21 19 -32 45 -19 14 8 19 21 19 51 0 52 -29 81 -128 128 -69 34
-72 34 -91 17 -13 -12 -28 -16 -43 -12 -23 5 -58 55 -58 81 0 7 -11 27 -25 43
-22 26 -25 39 -25 108 1 44 1 99 1 124 0 95 -13 265 -22 275 -5 5 -9 0 -9 -15
0 -12 -12 -48 -26 -78 -18 -38 -24 -65 -21 -87 8 -51 -26 -76 -38 -28 l-6 27
-21 -32 c-11 -18 -26 -32 -34 -32 -18 0 -7 128 13 151 8 10 12 26 8 41 -4 16
-1 29 10 38 15 12 19 12 32 -5 14 -18 15 -15 8 35 -12 85 -11 105 4 105 7 0
21 -16 30 -35 11 -24 24 -36 41 -38 37 -6 50 -21 50 -59 0 -19 5 -44 12 -56 6
-12 10 -43 9 -69 -4 -73 72 -201 127 -214 15 -4 47 -19 72 -33 71 -43 77 -44
89 -10 16 46 45 38 85 -25 24 -38 45 -58 69 -66 18 -7 38 -22 43 -34 6 -15 21
-23 49 -26 22 -3 46 -10 54 -14 8 -5 30 -9 50 -10 l36 -1 0 -47 c0 -37 6 -54
31 -85 17 -21 39 -39 48 -41 25 -5 66 25 80 60 12 27 18 30 69 34 55 4 57 3
57 -22 0 -34 49 -54 134 -54 88 0 98 -5 90 -45 -7 -41 19 -61 60 -45 34 13 46
39 46 103 l0 55 -98 93 c-147 141 -239 197 -364 219 -35 7 -70 17 -78 25 -30
25 -67 39 -152 56 -117 23 -240 86 -403 204 -104 75 -138 106 -167 152 -43 66
-46 83 -18 101 31 19 24 45 -25 85 -49 42 -56 57 -24 57 33 0 94 -55 143 -130
26 -38 59 -76 75 -85 16 -8 33 -24 36 -35 9 -29 34 -36 157 -45 127 -8 133 -4
93 70 -14 27 -23 50 -20 53 2 3 18 -1 35 -8 19 -8 43 -33 66 -71 59 -98 97
-112 148 -53 25 29 36 35 54 30 12 -4 22 -13 22 -20 0 -24 41 -66 64 -66 13 0
31 12 44 30 31 41 29 97 -4 146 -32 46 -41 54 -73 54 -14 0 -61 18 -105 40
-91 45 -190 70 -284 70 -37 0 -72 6 -85 14 -12 8 -58 25 -102 36 -44 12 -100
34 -125 49 -25 16 -66 40 -92 55 -26 14 -50 35 -53 46 -4 11 -24 41 -46 66
-61 70 -48 144 25 144 25 0 42 -12 92 -66 35 -38 67 -63 73 -60 25 16 9 52
-48 106 -57 55 -90 100 -73 100 5 0 50 -39 101 -86 63 -59 91 -93 91 -109 0
-14 17 -38 47 -65 l46 -43 23 29 23 29 48 -54 c46 -50 51 -53 105 -57 42 -3
60 -1 72 11 23 23 20 45 -14 98 -18 29 -30 61 -30 81 0 26 -8 41 -39 69 -50
45 -156 107 -255 149 -69 29 -85 41 -137 103 -51 60 -100 144 -129 220 -4 11
-14 54 -22 95 -13 72 -14 75 -43 78 -47 5 -67 -17 -76 -82 -16 -122 -96 -229
-238 -321 -39 -25 -148 -83 -243 -129 -152 -73 -180 -90 -226 -139 -58 -62
-115 -170 -106 -202 21 -79 48 -83 139 -21 35 25 67 41 70 35 11 -17 33 -9 86
35 30 24 71 49 92 55 27 9 39 20 43 39 14 56 66 84 79 42 4 -11 18 -26 33 -34
15 -8 36 -23 46 -35 25 -28 39 -27 79 9 60 52 94 30 76 -49 -20 -88 -59 -133
-133 -151 -22 -6 -58 -18 -79 -27 -40 -17 -97 -74 -97 -97 0 -23 -27 -37 -90
-46 -60 -8 -93 -24 -192 -93 -26 -17 -62 -41 -80 -52 -31 -19 -39 -36 -62
-127 -6 -25 -2 -30 46 -58 78 -45 110 -33 174 68 36 55 84 92 121 92 25 0 46
-31 37 -54 -4 -12 0 -16 16 -16 19 0 21 -4 15 -22 -3 -13 -11 -41 -16 -63 -13
-50 -25 -65 -55 -65 -33 0 -32 38 2 96 l26 44 -30 0 c-39 0 -66 -26 -81 -76
-14 -51 -70 -108 -148 -149 -46 -24 -58 -36 -64 -61 -3 -18 -17 -47 -30 -65
-18 -25 -23 -44 -21 -83 2 -46 15 -76 32 -76 23 0 110 87 130 130 17 35 31 52
54 60 54 20 73 33 140 99 65 63 84 96 72 127 -11 29 72 149 91 131 3 -4 -6
-25 -21 -47 -25 -39 -37 -110 -17 -110 15 0 51 51 51 71 0 12 7 19 20 19 21 0
28 -24 10 -35 -10 -6 -14 -45 -5 -45 13 0 112 54 132 72 14 13 28 18 42 13 26
-8 26 -16 -1 -50 -12 -15 -23 -39 -24 -54 -4 -47 -55 -165 -82 -194 -15 -16
-85 -57 -157 -91 -97 -47 -140 -74 -168 -105 -40 -44 -41 -65 -2 -55 12 3 25
1 29 -4 20 -32 -89 -77 -178 -74 -43 2 -58 -4 -112 -39 -42 -27 -76 -41 -101
-43 -21 -1 -62 -14 -91 -29 -55 -29 -78 -63 -66 -99 5 -18 12 -19 60 -13 81
10 84 -3 7 -46 -110 -62 -138 -94 -127 -147 5 -23 0 -43 -20 -78 -30 -53 -33
-86 -10 -108 23 -24 47 -19 79 14 23 24 29 38 26 65 -1 19 2 35 8 35 5 0 35
24 66 54 31 30 72 62 91 72 33 18 34 18 65 -5 41 -30 75 -26 199 27 52 22 113
43 135 47 31 5 50 18 85 57 109 122 116 128 153 128 20 0 38 -4 42 -9 3 -6 -8
-32 -25 -59 -16 -27 -30 -54 -30 -61 0 -6 -17 -30 -39 -54 -21 -23 -62 -76
-91 -117 -64 -92 -104 -135 -150 -162 -19 -12 -51 -36 -70 -53 -19 -18 -69
-57 -110 -87 -100 -73 -147 -127 -161 -184 -7 -25 -23 -59 -37 -75 -58 -70
-56 -238 4 -247 11 -2 27 4 34 12 10 13 9 20 -4 41 -30 46 -11 74 39 55 33
-12 39 2 15 33 -22 28 -26 52 -9 62 13 9 48 -23 60 -52 12 -33 33 -28 68 16
39 49 39 64 0 91 -50 36 -37 60 49 91 40 15 79 32 86 38 10 9 15 8 20 -4 8
-21 20 -19 54 10 25 21 37 24 88 21 32 -1 65 -4 73 -7 9 -2 23 11 36 34 12 20
31 48 43 62 14 15 22 39 22 60 0 34 27 105 41 105 3 0 12 -7 19 -15 9 -11 10
-29 2 -74 -14 -76 -43 -133 -96 -185 -23 -22 -50 -62 -60 -88 -13 -35 -33 -61
-79 -99 -34 -28 -75 -67 -91 -85 -15 -19 -53 -48 -85 -63 -61 -31 -97 -65
-103 -95 -8 -49 -170 -96 -330 -96 -77 0 -111 -5 -163 -24 -82 -30 -141 -70
-173 -118 -13 -21 -39 -46 -58 -57 -19 -11 -46 -42 -62 -67 -37 -65 -80 -113
-106 -120 -13 -3 -39 -36 -70 -87 -53 -88 -67 -150 -48 -206 9 -26 7 -35 -18
-69 -38 -53 -60 -97 -60 -121 0 -21 44 -61 67 -61 23 0 149 133 178 188 24 46
92 106 184 163 24 14 26 21 26 85 0 68 0 69 29 74 35 6 43 20 51 83 5 38 12
50 30 59 13 6 30 8 39 5 12 -5 13 -11 3 -36 -15 -41 -3 -49 33 -22 22 16 35
19 48 12 21 -11 35 -4 51 27 17 33 28 27 34 -18 10 -74 43 -86 108 -39 25 17
28 27 31 82 2 47 7 63 19 65 10 2 18 -9 25 -35 6 -26 15 -39 29 -41 11 -1 43
-10 72 -18 82 -25 123 10 123 105 0 36 8 71 24 105 13 28 27 70 31 93 7 46 38
93 61 93 19 0 18 -10 -6 -61 -32 -71 -23 -171 17 -186 11 -4 20 0 27 12 6 10
37 44 69 75 50 50 57 61 57 96 0 21 7 48 15 58 23 31 20 141 -4 173 -21 26
-19 48 6 57 46 18 85 -42 65 -98 -20 -56 -15 -87 19 -116 l32 -26 -30 -35
c-26 -29 -31 -44 -35 -107 -3 -41 -12 -80 -20 -90 -7 -9 -27 -57 -42 -105 -37
-114 -60 -147 -116 -167 -25 -9 -74 -35 -109 -58 -35 -23 -68 -42 -72 -42 -4
0 -11 -9 -14 -21 -4 -11 -47 -63 -96 -115 -50 -54 -90 -104 -91 -117 -1 -12
-2 -31 -2 -42 -1 -19 -84 -147 -137 -209 -28 -33 -49 -85 -49 -121 0 -29 -31
-56 -114 -102 -38 -21 -78 -50 -88 -64 l-20 -26 33 -47 33 -46 -33 -34 c-28
-29 -32 -38 -26 -68 4 -20 2 -51 -3 -70 -10 -35 7 -88 28 -88 14 0 50 51 50
71 0 23 32 25 50 4 19 -23 27 -19 54 24 24 37 27 39 64 34 40 -5 85 11 116 42
18 18 22 105 7 120 -6 6 -15 41 -21 79 -6 38 -15 77 -20 87 -16 29 -12 40 14
33 27 -6 72 14 101 46 18 20 66 50 80 50 3 0 5 -9 5 -20 0 -11 -4 -20 -10 -20
-15 0 -12 -15 9 -41 16 -20 22 -22 44 -12 47 22 127 213 127 307 1 28 6 63 13
77 10 22 60 70 135 130 7 6 12 40 13 92 2 109 9 141 34 145 19 3 20 -3 20
-113 l0 -115 -63 -58 c-39 -36 -62 -66 -62 -79 0 -32 39 -93 60 -93 10 0 34
22 54 50 23 31 43 50 56 50 11 0 20 -3 20 -7 0 -5 6 -51 14 -103 26 -173 24
-407 -5 -575 -7 -42 -7 -69 0 -88 8 -22 7 -40 -8 -85 -24 -71 -37 -187 -22
-197 7 -4 11 -51 11 -123 l0 -117 -110 -34 -110 -34 -47 18 c-27 10 -149 71
-273 136 -297 156 -349 175 -511 182 -71 3 -143 1 -165 -4 -21 -6 -82 -16
-134 -24 -102 -15 -220 -46 -260 -69 -14 -8 -50 -14 -85 -14 -61 1 -126 -24
-198 -74 -27 -19 -30 -19 -80 -3 -57 18 -144 63 -194 101 -17 13 -43 24 -57
24 -13 0 -44 8 -68 18 -51 22 -126 35 -187 33 -24 -1 -56 3 -71 9 -31 13 -100
-7 -232 -66 -43 -19 -107 -41 -143 -49 -44 -9 -77 -23 -102 -44 -21 -17 -44
-31 -51 -31 -7 0 -36 48 -64 108 -183 390 -287 751 -344 1197 -28 217 -26 683
4 906 110 815 444 1534 980 2109 348 374 701 635 1155 855 430 208 891 331
1387 368 105 8 444 6 555 -3z m-294 -295 c4 -16 10 -38 14 -47 6 -14 2 -18
-15 -18 -13 0 -24 -8 -27 -20 -3 -11 -12 -20 -19 -20 -20 0 -29 29 -15 43 6 6
11 31 11 55 0 39 2 43 22 40 15 -2 24 -12 29 -33z m62 -137 c19 -26 19 -28 3
-54 -16 -23 -20 -25 -33 -12 -8 9 -17 34 -20 58 -5 37 -4 42 12 39 10 -2 27
-16 38 -31z m-163 -38 c0 -6 -9 -38 -21 -72 -11 -33 -24 -97 -29 -141 -7 -60
-15 -86 -31 -104 -29 -30 -39 -29 -34 5 15 100 15 103 -6 91 -17 -8 -23 -7
-35 8 -7 10 -14 24 -14 31 0 15 36 16 46 1 8 -14 24 8 24 36 0 17 38 102 64
144 9 14 36 14 36 1z m86 -5 c4 -8 3 -26 0 -39 -7 -27 -53 -86 -67 -86 -15 0
-10 45 11 94 21 46 45 60 56 31z m157 -82 c8 -16 17 -45 21 -65 6 -30 4 -38
-8 -38 -18 0 -66 71 -66 98 0 41 34 44 53 5z m-87 0 c18 -23 17 -43 0 -43 -14
0 -26 21 -26 46 0 19 10 18 26 -3z m-9 -96 c30 -59 20 -82 -25 -57 -24 14 -27
22 -30 75 -3 53 -2 57 13 45 9 -8 28 -36 42 -63z m-422 -16 c5 -9 -53 -61 -68
-61 -15 0 -6 22 18 45 26 26 40 31 50 16z m676 -62 c49 -50 59 -69 37 -69 -13
0 -108 99 -108 112 0 20 27 4 71 -43z m-325 9 c8 -27 -11 -46 -34 -32 -21 14
-28 44 -11 54 17 11 37 2 45 -22z m-268 -14 c3 -34 -18 -60 -43 -50 -30 11 -9
90 23 84 11 -2 18 -15 20 -34z m-237 -8 c-7 -8 -34 -16 -61 -18 -61 -4 -50 12
18 28 53 12 60 10 43 -10z m962 -8 c35 -18 137 -100 137 -110 0 -5 -10 -2 -22
6 -13 8 -49 24 -81 36 -42 16 -61 29 -68 47 -5 13 -9 26 -9 29 0 8 21 4 43 -8z
m-923 -52 c0 -18 -14 -28 -60 -41 -28 -8 -36 -17 -40 -40 -4 -22 -11 -31 -29
-33 -21 -3 -23 -1 -17 20 4 12 10 33 13 45 3 13 22 29 52 42 55 24 81 26 81 7z
m-220 -56 c-6 -11 -20 -25 -33 -31 -12 -6 -32 -21 -44 -32 -28 -25 -40 -16
-25 18 13 28 67 65 95 65 15 0 16 -4 7 -20z m1088 -29 c19 -11 11 -45 -11 -49
-13 -3 -17 3 -17 27 0 32 6 37 28 22z m143 -42 c32 -46 9 -61 -25 -16 -30 39
-32 47 -12 47 8 0 24 -14 37 -31z m-1231 -1 c0 -16 -41 -58 -57 -58 -22 0 -15
27 13 49 30 24 44 27 44 9z m668 -60 c12 -24 27 -71 32 -104 5 -32 21 -81 35
-107 14 -27 25 -51 25 -53 0 -2 -13 -4 -30 -4 -44 0 -59 32 -71 147 -9 89 -13
101 -41 130 -16 17 -27 36 -24 42 13 20 51 -6 74 -51z m652 21 c0 -20 -4 -27
-14 -23 -14 5 -28 49 -19 58 13 12 33 -9 33 -35z m-564 -46 c17 -17 17 -18 -5
-21 -27 -4 -47 11 -37 27 10 16 22 14 42 -6z m105 -53 c10 -6 19 -21 19 -34 0
-20 13 -31 72 -60 118 -60 175 -116 193 -188 6 -25 5 -28 -19 -28 -20 0 -33
12 -60 55 -31 48 -108 116 -210 184 -50 35 -66 54 -55 68 14 16 33 17 60 3z
m-293 -89 c3 -25 -3 -40 -21 -60 -14 -14 -28 -36 -31 -47 -4 -12 -15 -29 -26
-39 -18 -16 -18 -19 -2 -51 15 -32 15 -36 -1 -51 -23 -24 -43 -3 -52 53 -6 40
-4 48 14 60 12 9 29 43 41 81 11 37 26 73 32 80 19 24 43 11 46 -26z m-84 -14
c17 -27 -11 -49 -54 -42 -33 6 -39 2 -72 -34 -25 -28 -45 -41 -62 -41 -58 0
-6 75 83 119 58 30 85 29 105 -2z m161 -12 c1 -5 6 -20 13 -33 11 -20 10 -30
-12 -79 -14 -30 -26 -66 -26 -79 0 -35 -16 -37 -39 -5 -25 35 -26 44 -5 76 8
13 18 49 21 80 5 50 8 56 27 53 12 -2 21 -7 21 -13z m670 -70 c0 -5 -20 -11
-44 -13 -40 -3 -43 -2 -31 13 14 17 75 17 75 0z m-900 -22 c-5 -10 -13 -37
-19 -60 -15 -53 -28 -67 -55 -58 -26 8 -27 27 -4 68 28 50 44 67 66 67 14 0
17 -4 12 -17z m1054 -10 c36 -23 7 -34 -40 -14 -46 19 -55 47 -11 36 15 -3 38
-13 51 -22z m-1238 -33 c24 -13 25 -42 1 -63 -15 -14 -23 -15 -50 -5 -23 9
-37 9 -54 1 -40 -19 -59 -23 -84 -17 -14 4 -23 11 -21 18 5 16 65 48 116 62
58 16 68 16 92 4z m1001 -17 c21 -19 24 -71 4 -79 -30 -12 -56 15 -56 56 0 45
19 53 52 23z m239 -24 c42 -22 44 -89 3 -89 -25 0 -88 65 -81 83 7 19 48 22
78 6z m210 -20 c23 -23 22 -64 -1 -64 -8 0 -25 19 -37 43 -22 41 -22 42 -3 42
11 0 29 -9 41 -21z m-1741 -84 c-23 -25 -57 -38 -65 -26 -5 9 29 42 60 59 29
15 32 -4 5 -33z m470 36 c0 -14 -28 -33 -39 -27 -16 10 -1 36 20 36 10 0 19
-4 19 -9z m90 -60 c0 -29 -30 -61 -57 -61 -19 0 -24 4 -19 16 3 9 6 19 6 23 0
4 9 17 20 29 22 23 50 20 50 -7z m-476 10 c8 -12 -32 -61 -49 -61 -25 0 -27
21 -4 46 23 25 44 31 53 15z m576 -162 c-26 -122 -35 -147 -62 -176 -30 -32
-39 -19 -17 24 10 21 19 44 19 53 0 29 42 185 58 215 15 28 17 28 20 8 2 -12
-6 -68 -18 -124z m369 70 c28 -22 51 -48 51 -57 0 -10 14 -46 30 -80 17 -35
30 -66 30 -68 0 -2 -16 -4 -35 -4 -29 0 -40 6 -64 41 -16 22 -33 53 -36 70 -6
27 -27 32 -24 6 3 -27 -2 -37 -20 -37 -15 0 -22 11 -30 50 -6 28 -11 67 -11
85 0 32 3 35 29 35 18 0 47 -14 80 -41z m-879 -133 c0 -2 3 -11 6 -20 4 -12 0
-16 -15 -16 -14 0 -21 6 -21 20 0 11 7 20 15 20 8 0 15 -2 15 -4z m1070 -16
c18 -14 22 -22 14 -30 -8 -8 -21 -7 -48 4 -35 15 -43 26 -29 39 12 12 37 7 63
-13z m-1142 -61 c1 -9 -19 -41 -45 -73 -38 -45 -53 -56 -73 -54 -36 4 -29 40
21 100 33 39 47 48 68 46 14 -2 27 -10 29 -19z m1352 -14 c36 -13 101 -37 144
-53 80 -29 116 -58 116 -93 0 -23 -19 -24 -46 -4 -56 42 -58 -1 -3 -58 l41
-42 -4 -72 c-4 -79 -10 -93 -36 -77 -13 8 -18 28 -20 82 -3 66 -5 72 -39 104
-20 18 -54 50 -75 70 -22 20 -48 40 -59 43 -10 4 -33 24 -50 45 -17 21 -44 43
-60 49 -16 5 -29 15 -29 20 0 18 51 12 120 -14z m-672 -48 c2 -20 9 -37 15
-37 7 0 21 -27 31 -60 16 -49 17 -62 6 -75 -21 -25 -40 1 -40 56 0 57 -14 71
-29 28 -16 -46 -36 -31 -39 30 -5 87 49 142 56 58z m552 -2 c13 -14 29 -25 35
-25 7 0 20 -9 30 -20 22 -24 11 -40 -30 -43 -24 -2 -32 5 -57 46 -38 65 -25
91 22 42z m-650 -22 c0 -20 -28 -53 -47 -53 -18 0 -16 30 4 52 20 23 43 23 43
1z m1194 -90 c37 -33 57 -59 61 -80 16 -72 -29 -86 -55 -17 -8 22 -35 64 -58
92 -38 45 -41 52 -23 52 11 0 45 -21 75 -47z m-1189 -104 c-9 -27 -18 -66 -19
-87 -4 -48 -20 -57 -24 -12 -4 55 -12 81 -22 75 -6 -3 -10 -21 -10 -38 0 -48
-14 -65 -40 -49 -19 11 -24 10 -50 -18 -33 -35 -48 -38 -58 -10 -8 20 -8 20
-32 -5 -13 -14 -29 -25 -37 -25 -17 0 -17 0 7 51 22 50 25 72 9 67 -6 -2 -20
-27 -30 -55 -21 -54 -40 -76 -77 -88 -43 -13 -38 22 12 75 41 43 45 52 36 75
-7 19 -5 37 8 73 15 39 22 48 46 50 26 3 28 2 21 -27 -8 -35 7 -41 36 -15 25
23 42 8 35 -31 -6 -30 -5 -32 19 -27 21 4 25 1 25 -21 0 -14 4 -28 9 -31 24
-15 19 105 -5 125 -20 16 -17 37 7 49 11 7 21 10 22 8 3 -5 26 -40 47 -73 11
-16 20 -28 21 -25 5 37 13 57 31 93 l23 42 3 -48 c2 -27 -4 -71 -13 -98z
m-745 117 c0 -16 -18 -31 -27 -22 -8 8 5 36 17 36 5 0 10 -6 10 -14z m560 -1
c0 -8 -4 -15 -10 -15 -5 0 -10 7 -10 15 0 8 5 15 10 15 6 0 10 -7 10 -15z
m1031 -25 c23 -13 24 -26 3 -34 -17 -6 -54 19 -54 36 0 11 27 10 51 -2z m295
-43 c52 -45 5 -79 -50 -36 -28 22 -34 44 -13 52 24 10 36 7 63 -16z m-1499
-14 c6 -17 -36 -38 -50 -24 -7 7 -6 15 3 26 15 18 41 17 47 -2z m439 -8 c4
-16 0 -33 -14 -50 -26 -33 -33 -21 -19 33 13 48 24 53 33 17z m1319 -95 c52
-52 49 -65 -12 -58 -46 5 -93 108 -50 108 7 0 35 -22 62 -50z m-1279 -24 c2
-64 43 -126 83 -126 55 0 72 -62 18 -68 -25 -3 -27 -7 -27 -46 0 -52 -29 -87
-55 -66 -8 7 -15 19 -15 26 0 36 -18 7 -38 -62 -20 -65 -25 -74 -42 -69 -15 5
-21 -1 -31 -34 -10 -35 -9 -42 10 -69 34 -48 24 -102 -20 -102 -23 0 -29 20
-29 100 0 38 -5 80 -11 94 -9 19 -9 32 1 57 13 30 12 33 -11 53 l-26 21 17 45
c10 26 25 46 35 48 15 3 17 -1 11 -32 -6 -33 -5 -36 17 -36 37 0 48 20 37 62
-7 24 -7 45 0 63 5 14 10 38 10 51 0 21 3 24 21 19 21 -7 22 -5 15 52 -4 32
-3 62 1 66 16 17 28 -3 29 -47z m106 18 c14 -30 2 -57 -29 -62 -15 -2 -22 6
-31 34 -13 44 -9 54 24 54 17 0 28 -8 36 -26z m199 -64 c6 0 7 -4 4 -10 -8
-13 -52 -13 -59 -1 -7 11 14 21 32 15 8 -2 18 -4 23 -4z m-946 -10 c3 -5 -3
-10 -15 -10 -12 0 -18 5 -15 10 3 6 10 10 15 10 5 0 12 -4 15 -10z m99 -79
c22 -24 9 -58 -34 -95 -47 -39 -65 -32 -62 24 2 25 10 55 18 68 18 27 55 29
78 3z m-195 0 c11 -7 7 -17 -20 -50 -39 -46 -69 -54 -69 -17 0 25 41 76 62 76
7 0 19 -4 27 -9z m-117 -23 c-7 -7 -12 -8 -12 -2 0 14 12 26 19 19 2 -3 -1
-11 -7 -17z m398 -8 c-11 -40 -19 -50 -36 -50 -20 0 -17 18 9 50 29 37 38 37
27 0z m279 8 c-28 -53 -71 -108 -84 -108 -39 0 1 76 59 111 39 24 39 24 25 -3z
m-744 2 c11 -17 -15 -40 -46 -40 -37 0 -45 15 -17 34 26 18 54 21 63 6z m-135
-14 c0 -11 -19 -15 -25 -6 -3 5 1 10 9 10 9 0 16 -2 16 -4z m384 -29 c15 -23
-4 -51 -37 -55 -23 -3 -26 -7 -21 -32 5 -24 2 -31 -24 -44 -69 -36 -88 -11
-31 41 23 21 50 55 61 76 20 40 34 43 52 14z m933 -18 c67 -32 104 -89 67
-103 -15 -6 -29 4 -116 79 -20 17 -24 45 -6 45 6 0 31 -9 55 -21z m-1147 -19
c-19 -13 -30 -13 -30 0 0 6 10 10 23 10 18 0 19 -2 7 -10z m1108 -58 c20 -16
54 -41 75 -56 48 -35 49 -69 0 -74 -26 -3 -36 3 -60 34 -15 20 -40 51 -55 69
-50 59 -24 76 40 27z m243 -18 c27 -24 24 -40 -11 -66 -20 -14 -30 -29 -28
-42 2 -13 -4 -22 -15 -24 -25 -5 -33 25 -12 48 18 19 17 21 -3 43 -21 22 -29
57 -16 69 9 9 65 -9 85 -28z m-1431 -14 c13 -9 11 -14 -14 -36 -31 -27 -49
-27 -54 0 -8 41 30 61 68 36z m699 -101 c-16 -49 -35 -61 -47 -28 -6 16 -2 34
16 67 24 42 26 44 35 25 6 -15 5 -35 -4 -64z m288 69 c4 -7 8 -52 8 -100 1
-94 -9 -112 -41 -77 -24 27 -23 97 1 177 3 6 9 12 14 12 5 0 13 -6 18 -12z
m562 -56 c20 -39 14 -72 -14 -72 -14 0 -55 75 -55 101 0 43 41 25 69 -29z
m-921 3 c5 -54 -6 -105 -22 -105 -19 0 -26 23 -26 79 0 76 42 98 48 26z m142
10 c0 -28 -21 -33 -39 -11 -10 11 -8 17 6 25 27 16 33 13 33 -14z m929 11 c32
-17 90 -79 126 -135 31 -50 31 -51 -1 -51 -17 0 -37 12 -57 34 -67 71 -107
125 -107 145 0 25 3 25 39 7z m-1839 -14 c0 -14 -23 -32 -42 -32 -18 0 -25 20
-11 33 9 10 53 9 53 -1z m1780 -32 c24 -24 26 -63 4 -81 -22 -18 -46 -1 -57
41 -15 59 13 80 53 40z m281 -11 c36 -9 57 -33 39 -44 -9 -5 -87 31 -120 55
-16 12 4 10 81 -11z m-433 -14 c2 -11 10 -34 19 -51 19 -37 12 -64 -16 -64
-23 0 -41 27 -41 61 0 12 -7 30 -16 40 -21 23 -9 41 24 37 18 -2 28 -10 30
-23z m-698 -35 c0 -11 -7 -20 -15 -20 -8 0 -15 9 -15 20 0 11 7 20 15 20 8 0
15 -9 15 -20z m1295 -3 c22 -12 41 -31 43 -41 4 -16 0 -18 -27 -13 -43 9 -81
36 -81 58 0 25 16 24 65 -4z m-1510 -37 c12 -13 15 -27 11 -45 -9 -34 -32 -32
-51 6 -27 52 2 81 40 39z m-747 -12 c4 -23 -43 -47 -59 -31 -6 6 -8 21 -4 33
8 26 58 25 63 -2z m1752 -8 c0 -21 -33 -29 -45 -10 -9 15 4 30 26 30 12 0 19
-7 19 -20z m-1072 -107 c-2 -58 -8 -87 -19 -98 -17 -17 -54 -10 -41 9 4 6 7
51 7 99 0 67 4 90 15 97 29 18 42 -18 38 -107z m1749 65 c15 -19 25 -98 13
-98 -15 0 -62 80 -56 96 7 17 30 18 43 2z m-1269 -20 c7 -7 12 -37 12 -68 0
-55 -11 -80 -37 -80 -7 0 -13 7 -13 15 0 8 -4 15 -10 15 -5 0 -10 -24 -10 -53
0 -34 -6 -60 -16 -73 -15 -18 -15 -18 -10 5 2 13 -5 53 -16 89 l-20 66 36 31
c20 16 36 38 36 48 0 20 30 23 48 5z m-568 -27 c24 -46 -3 -115 -43 -109 -25
3 -33 38 -22 95 5 27 11 33 30 33 14 0 29 -8 35 -19z m187 -36 c6 -18 -23 -55
-44 -55 -14 0 -17 27 -7 54 8 20 43 21 51 1z m253 -113 c0 -90 -23 -182 -46
-182 -12 0 -24 74 -24 158 0 71 33 132 63 115 4 -2 7 -43 7 -91z m-86 52 c8
-20 8 -142 0 -171 -4 -13 -12 -23 -19 -23 -17 0 -30 146 -16 183 12 30 26 35
35 11z m-517 -31 c6 -17 -33 -53 -57 -53 -25 0 -26 26 -3 52 18 20 54 21 60 1z
m738 -63 c0 -29 -32 -41 -41 -16 -9 24 4 48 23 44 12 -2 18 -12 18 -28z m150
-42 c4 -24 18 -61 31 -84 26 -44 31 -79 13 -90 -17 -10 -29 9 -61 88 -43 107
-47 125 -35 137 19 19 45 -7 52 -51z m-1067 -20 c-6 -18 -28 -21 -28 -4 0 9 7
16 16 16 9 0 14 -5 12 -12z m819 -60 c-3 -7 -5 -2 -5 12 0 14 2 19 5 13 2 -7
2 -19 0 -25z m196 15 c3 -5 8 -27 12 -51 6 -35 4 -41 -8 -36 -8 3 -18 17 -22
32 -3 15 -8 35 -11 45 -5 17 20 25 29 10z m-97 -74 c1 -30 6 -72 13 -94 13
-48 15 -122 2 -129 -5 -3 -9 -24 -9 -45 0 -22 -6 -49 -11 -60 -6 -11 -11 -36
-11 -55 0 -30 -4 -36 -21 -36 -21 0 -21 3 -15 58 10 80 7 308 -4 338 -14 35
-13 41 11 65 31 31 44 19 45 -42z m-291 21 c8 -26 -1 -40 -26 -40 -25 0 -35
25 -19 45 17 21 37 19 45 -5z m610 -101 c17 -41 38 -86 49 -101 22 -34 15 -61
-16 -56 -19 2 -28 17 -48 78 -14 42 -35 89 -48 107 -22 31 -28 54 -15 66 16
16 50 -25 78 -94z m-451 -2 c-10 -27 -44 -21 -44 7 0 13 6 26 13 29 18 7 39
-17 31 -36z m547 4 c31 -32 33 -38 20 -60 -22 -34 -91 22 -91 74 0 25 39 17
71 -14z m-931 -52 c-25 -34 -60 -39 -60 -9 0 11 9 29 20 40 16 16 24 18 41 10
20 -11 20 -11 -1 -41z m634 19 c8 -13 18 -41 21 -63 4 -22 22 -65 41 -97 27
-44 34 -67 34 -106 0 -41 4 -54 22 -66 12 -9 32 -16 44 -16 31 0 61 -37 48
-58 -17 -26 -42 -26 -74 2 -16 13 -40 28 -52 32 -40 12 -93 53 -113 86 -15 25
-20 58 -23 145 -3 61 -2 123 2 137 8 32 31 33 50 4z m160 -42 c20 -40 26 -60
18 -68 -6 -6 -15 -7 -21 -3 -18 11 -51 82 -51 110 0 41 21 26 54 -39z m-349
-86 c0 -89 -2 -105 -17 -108 -12 -2 -18 7 -23 40 -11 64 -8 146 6 180 11 27
13 28 23 11 5 -10 10 -65 11 -123z m612 124 c5 -16 -29 -27 -38 -12 -4 6 -5
16 -2 21 7 11 35 5 40 -9z m-333 -49 c18 -28 21 -81 5 -90 -12 -8 -51 24 -43
36 3 5 0 18 -6 30 -25 45 15 68 44 24z m-441 -19 c7 -21 6 -31 -4 -37 -20 -13
-34 -6 -37 20 -8 54 24 67 41 17z m-217 -60 c-5 -50 -11 -66 -36 -89 -17 -15
-30 -32 -30 -38 0 -5 -4 -9 -10 -9 -16 0 -12 19 15 58 28 42 32 74 10 92 -19
16 -19 29 1 51 13 15 21 16 37 8 17 -10 19 -18 13 -73z m294 12 c0 -26 -8 -55
-20 -73 -11 -16 -27 -63 -36 -103 -9 -40 -24 -82 -34 -95 -17 -21 -19 -21 -26
-4 -8 21 19 140 41 183 8 16 15 47 15 70 0 43 14 64 42 64 15 0 18 -8 18 -42z
m697 -4 c-3 -3 -12 -4 -19 -1 -8 3 -5 6 6 6 11 1 17 -2 13 -5z m-1233 -23 c18
-28 -37 -73 -59 -49 -20 20 -1 58 29 58 14 0 27 -4 30 -9z m1248 -43 c35 -25
32 -42 -9 -46 -39 -4 -90 36 -80 62 9 22 46 15 89 -16z m-197 -41 c29 -51 31
-73 8 -99 -32 -36 -53 -17 -53 48 0 19 -4 34 -10 34 -5 0 -10 -4 -10 -9 0 -13
-27 -21 -45 -15 -8 4 -15 17 -15 31 0 18 9 28 33 38 51 22 64 18 92 -28z
m-1049 -12 c8 -20 -13 -45 -37 -45 -28 0 -32 17 -9 40 24 24 39 26 46 5z m549
-27 c-14 -62 -30 -101 -44 -106 -11 -4 -12 2 -7 24 3 16 9 45 13 64 6 33 18
50 36 50 5 0 5 -15 2 -32z m589 -10 c23 -33 20 -75 -9 -103 -40 -41 -72 -32
-49 13 8 15 14 46 14 70 0 48 19 56 44 20z m-365 -57 c6 -22 21 -47 32 -54 59
-42 95 -147 50 -147 -12 0 -21 11 -27 33 -7 24 -16 33 -37 35 -22 3 -29 11
-37 42 -6 22 -15 42 -19 45 -12 7 -24 81 -16 95 12 19 41 -8 54 -49z m451 9
c15 -29 13 -37 -21 -60 -35 -26 -43 -23 -30 11 5 14 5 34 0 47 -5 13 -7 28 -3
33 7 12 41 -7 54 -31z m-1800 -9 c-11 -22 -58 -61 -72 -61 -23 0 0 44 32 61
44 24 53 24 40 0z m320 9 c0 -11 -40 -34 -47 -26 -3 3 -3 12 0 21 7 16 47 21
47 5z m-206 -31 c-20 -22 -50 -33 -65 -24 -18 12 19 42 51 42 28 0 29 -1 14
-18z m306 -11 l0 -32 21 22 c25 28 35 22 42 -25 2 -21 6 -45 8 -53 3 -11 -6
-16 -28 -18 -30 -3 -33 -1 -33 22 0 26 -14 35 -25 16 -11 -18 -24 -11 -40 21
-15 28 -15 33 0 55 8 13 24 24 35 24 16 0 20 -7 20 -32z m1765 -9 c29 -35 28
-53 -2 -57 -15 -2 -22 6 -31 36 -7 22 -12 42 -12 46 0 15 20 4 45 -25z m-1015
-4 c0 -18 -5 -25 -20 -25 -23 0 -24 4 -10 31 15 27 30 24 30 -6z m88 -27 c10
-38 6 -58 -13 -58 -15 0 -25 22 -25 54 0 46 26 49 38 4z m-713 -13 c0 -43 -29
-40 -33 3 -3 28 0 33 15 30 13 -2 18 -12 18 -33z m-280 15 c8 -13 -13 -40 -31
-40 -17 0 -18 22 -2 38 15 15 25 15 33 2z m-95 -19 c0 -5 -7 -14 -15 -21 -13
-10 -15 -9 -15 9 0 12 6 21 15 21 8 0 15 -4 15 -9z m888 -28 c-2 -10 -13 -19
-26 -21 -24 -4 -29 7 -10 26 18 18 40 15 36 -5z m-1173 -4 c20 -31 -55 -169
-91 -169 -18 0 -18 13 0 48 7 15 16 44 20 64 10 55 52 88 71 57z m1034 -21
c-25 -89 -49 -115 -49 -54 0 32 31 86 50 86 5 0 4 -15 -1 -32z m221 -19 c0
-44 -24 -110 -40 -107 -23 5 -27 104 -4 129 20 22 44 10 44 -22z m181 16 c-1
-15 -24 -12 -29 3 -3 9 2 13 12 10 10 -1 17 -7 17 -13z m-333 -84 c10 -61 11
-85 2 -95 -15 -19 -48 -8 -67 21 -13 20 -14 30 -4 62 6 21 11 47 11 58 0 22
20 45 35 40 5 -2 16 -41 23 -86z m-744 73 c35 -13 7 -70 -31 -62 -19 4 -20 33
-1 56 12 14 11 14 32 6z m-470 -59 c-6 -16 -31 -27 -38 -17 -2 4 0 18 5 31 7
19 12 21 24 11 7 -6 11 -18 9 -25z m2269 11 c44 -18 60 -40 92 -119 33 -85 26
-123 -11 -57 -27 48 -102 130 -118 130 -15 0 -46 32 -46 47 0 17 41 17 83 -1z
m-822 -54 c-5 -63 -21 -61 -21 3 0 47 3 56 12 47 7 -7 11 -29 9 -50z m458 32
c35 -29 39 -44 13 -44 -27 0 -62 29 -62 51 0 26 12 24 49 -7z m-142 -10 c3 -8
1 -20 -6 -27 -14 -14 -47 15 -37 32 10 16 36 13 43 -5z m112 -41 c37 -45 39
-63 7 -63 -38 0 -91 71 -69 93 14 15 33 5 62 -30z m-359 -51 c0 -58 -13 -92
-35 -92 -32 0 -30 99 2 149 21 32 33 12 33 -57z m150 63 c0 -8 -7 -15 -15 -15
-8 0 -15 7 -15 15 0 8 7 15 15 15 8 0 15 -7 15 -15z m-1720 0 c0 -4 -7 -19
-15 -35 -11 -21 -23 -30 -40 -30 -29 0 -30 2 -10 40 11 21 23 30 40 30 14 0
25 -2 25 -5z m2342 -63 c36 -34 41 -45 42 -83 1 -42 0 -44 -29 -44 -27 0 -32
5 -51 59 -11 32 -30 66 -43 75 -12 9 -19 20 -15 24 18 17 58 4 96 -31z m-642
-12 c0 -5 -9 -10 -21 -10 -11 0 -17 5 -14 10 3 6 13 10 21 10 8 0 14 -4 14
-10z m834 -33 c14 -70 14 -86 1 -97 -11 -9 -21 -8 -42 2 -34 16 -40 51 -19
102 14 33 18 36 36 26 11 -6 22 -21 24 -33z m-2535 -14 c8 -15 12 -16 22 -5
18 17 48 15 56 -4 3 -8 -2 -23 -11 -32 -13 -13 -20 -14 -35 -5 -17 11 -19 8
-25 -28 -3 -21 -9 -39 -13 -39 -4 0 -22 10 -40 23 -25 16 -33 29 -33 52 -1 45
-19 9 -26 -52 -9 -76 -11 -77 -46 -37 l-32 36 24 47 c23 42 28 46 62 46 20 0
40 3 44 8 13 13 43 7 53 -10z m1489 -11 c2 -12 -1 -22 -6 -22 -15 0 -34 28
-27 40 10 17 30 6 33 -18z m-188 8 c0 -5 -4 -10 -10 -10 -5 0 -10 5 -10 10 0
6 5 10 10 10 6 0 10 -4 10 -10z m1456 -29 c31 -48 45 -121 22 -121 -19 0 -42
26 -35 38 3 4 -3 27 -14 51 -35 78 -17 98 27 32z m-1761 -27 c-18 -28 -11 -52
10 -34 10 9 16 6 25 -10 16 -29 -7 -72 -44 -81 -16 -5 -40 -21 -52 -36 -33
-42 -40 -20 -16 50 12 34 22 72 22 85 0 13 14 37 32 55 28 27 33 29 36 14 2
-10 -4 -29 -13 -43z m253 23 c7 -8 7 -18 2 -27 -6 -8 -10 -32 -10 -53 0 -34
-3 -38 -22 -35 -20 3 -23 10 -26 53 -3 38 1 52 14 62 22 16 29 16 42 0z m126
-29 c6 -25 -16 -54 -33 -44 -12 8 -15 49 -4 59 13 14 31 6 37 -15z m306 -5
c11 -16 33 -56 50 -90 l29 -63 -24 0 c-42 0 -55 11 -86 73 -26 50 -29 64 -20
84 14 30 26 29 51 -4z m594 11 c23 -9 20 -44 -7 -77 -19 -24 -24 -26 -38 -15
-16 12 -16 16 2 56 20 45 19 45 43 36z m-482 -41 c47 -46 50 -73 8 -73 -26 0
-33 6 -54 49 -35 73 -15 84 46 24z m1163 -28 c41 -40 28 -118 -15 -95 -18 9
-50 78 -50 105 0 23 38 18 65 -10z m-3145 -5 c0 -13 -7 -20 -19 -20 -22 0 -35
15 -26 30 12 19 45 11 45 -10z m146 9 c3 -6 0 -15 -7 -20 -22 -14 -29 -11 -29
11 0 21 24 27 36 9z m1572 -77 c2 -65 0 -82 -11 -82 -8 0 -17 14 -21 31 -3 17
-10 28 -16 24 -16 -10 -11 -56 10 -104 24 -52 26 -94 5 -111 -19 -16 -23 -12
-41 37 -14 36 -14 32 -9 -67 6 -98 5 -109 -19 -161 -23 -49 -27 -72 -30 -195
-4 -98 -2 -123 4 -84 4 30 8 78 9 107 1 43 5 55 27 72 29 23 64 134 64 206 0
22 7 51 16 63 32 47 50 14 29 -55 -17 -55 -19 -99 -6 -107 12 -8 19 12 27 74
5 40 10 50 25 50 17 0 19 -8 19 -73 0 -84 -19 -166 -56 -238 -26 -52 -24 -82
3 -41 22 31 33 28 33 -10 0 -37 -31 -111 -51 -123 -9 -6 -11 4 -6 45 6 51 6
52 -13 35 -30 -27 -41 -10 -34 51 8 61 2 68 -21 24 -13 -24 -15 -58 -13 -160
2 -89 7 -130 14 -130 15 0 24 24 24 66 0 36 10 43 30 19 8 -10 10 -30 6 -62
-4 -27 -8 -82 -9 -123 -2 -60 -9 -91 -36 -155 -31 -71 -35 -92 -38 -190 -3
-91 -2 -106 8 -90 7 11 16 54 21 95 17 161 19 172 34 159 10 -8 11 -16 3 -31
-8 -15 -8 -37 1 -80 6 -32 8 -68 5 -78 -10 -31 3 -24 21 12 16 31 17 31 25 11
4 -11 13 -84 19 -160 17 -190 -3 -343 -44 -343 -9 0 -15 23 -19 78 -3 42 -10
88 -15 102 -9 20 -11 6 -11 -66 -1 -73 -5 -96 -19 -114 -18 -23 -19 -21 -31
91 -15 146 -15 154 -6 213 6 39 5 48 -6 44 -8 -3 -16 -24 -19 -49 -4 -36 -9
-44 -25 -44 -28 0 -31 44 -11 160 19 108 19 108 7 100 -5 -3 -23 -47 -41 -98
-33 -99 -52 -133 -69 -122 -19 11 -12 51 20 122 27 58 32 82 34 166 3 82 1 97
-10 87 -25 -20 -23 4 6 75 22 52 27 79 22 107 -5 32 -8 36 -20 27 -10 -9 -17
-9 -25 -1 -8 8 -4 14 15 23 35 16 39 30 21 84 -13 36 -14 49 -4 60 8 10 14 74
17 192 5 164 7 182 29 222 24 44 31 107 14 146 -7 19 -8 18 -13 -5 -3 -14 -8
-41 -11 -59 -12 -70 -27 -111 -41 -111 -18 0 -22 25 -13 85 5 28 10 64 13 80
3 17 18 41 34 55 20 17 30 36 33 60 3 32 6 35 31 32 26 -3 37 11 17 23 -13 8
-13 115 0 135 9 13 12 13 24 -2 19 -26 26 -22 26 15 0 19 3 37 7 41 19 18 28
-7 31 -82z m425 24 c12 -13 36 -52 52 -86 l29 -62 -24 -18 c-36 -27 -97 -41
-129 -29 -33 13 -69 46 -87 81 -21 40 -18 44 32 42 39 -2 51 -7 71 -33 26 -33
57 -41 66 -17 10 26 -4 54 -44 86 -21 17 -39 37 -39 45 0 24 49 18 73 -9z
m-1143 -48 c-3 -35 -11 -72 -17 -83 -6 -11 -12 -61 -13 -110 -3 -111 -9 -165
-20 -165 -5 0 -8 20 -7 44 1 30 -4 50 -16 63 -23 27 -22 60 8 145 14 39 25 85
25 101 0 27 23 67 39 67 4 0 4 -28 1 -62z m511 -54 c-4 -152 -19 -202 -55
-188 -15 6 -17 15 -12 53 4 25 9 84 12 131 6 88 16 113 43 108 12 -3 14 -20
12 -104z m1567 60 c2 -11 -6 -28 -17 -38 -19 -17 -20 -17 -36 13 -19 38 -12
53 23 49 18 -2 28 -10 30 -24z m-3059 2 c10 -11 9 -21 -4 -46 -19 -37 -39 -35
-43 4 -6 52 20 75 47 42z m1581 -6 c0 -5 -5 -10 -11 -10 -5 0 -7 5 -4 10 3 6
8 10 11 10 2 0 4 -4 4 -10z m-680 -32 c0 -14 -30 -48 -42 -48 -12 0 -10 34 4
48 15 15 38 16 38 0z m1018 -30 c5 -7 13 -27 17 -45 3 -18 16 -47 29 -65 12
-18 25 -38 29 -44 3 -6 -1 -21 -10 -33 l-15 -23 -34 33 c-32 31 -35 32 -47 15
-11 -16 -17 -17 -36 -7 -33 18 -25 56 12 56 32 -1 34 11 7 45 -26 33 -25 59 3
70 30 12 33 12 45 -2z m-913 -42 c9 -56 -2 -106 -22 -106 -13 0 -15 8 -9 46 3
26 6 60 6 75 0 45 18 34 25 -15z m775 -21 c0 -41 -32 -74 -55 -55 -22 18 -20
96 2 109 26 14 53 -14 53 -54z m-250 40 c0 -8 -4 -15 -10 -15 -5 0 -10 7 -10
15 0 8 5 15 10 15 6 0 10 -7 10 -15z m-470 -10 c0 -8 -4 -15 -10 -15 -5 0 -10
7 -10 15 0 8 5 15 10 15 6 0 10 -7 10 -15z m216 1 c18 -14 18 -16 2 -32 -9 -9
-24 -14 -32 -11 -23 9 -32 37 -15 48 19 12 22 11 45 -5z m1104 -67 c23 -42 -3
-39 -54 6 -26 23 -36 40 -32 50 5 14 11 12 41 -11 20 -15 40 -35 45 -45z m82
44 c24 -22 23 -33 -5 -33 -25 0 -67 26 -67 41 0 15 52 10 72 -8z m-2527 -27
c0 -39 -28 -57 -52 -34 -14 14 -15 22 -5 43 17 38 57 31 57 -9z m935 -97 c0
-51 -15 -64 -39 -35 -17 21 4 97 24 90 10 -4 15 -21 15 -55z m1745 -6 c25 -27
44 -55 45 -62 0 -8 11 -26 24 -40 27 -28 40 -101 19 -108 -7 -3 -10 3 -6 15 3
15 -13 38 -64 88 -80 80 -108 118 -99 139 10 27 37 16 81 -32z m-111 14 c21
-16 18 -50 -5 -55 -9 -1 -26 6 -39 16 -43 35 -1 72 44 39z m-1460 -16 c3 -5
-3 -30 -15 -56 -14 -32 -26 -45 -37 -43 -35 7 -3 108 34 108 7 0 15 -4 18 -9z
m1056 -6 c16 -19 4 -35 -25 -35 -27 0 -39 14 -31 35 7 19 40 19 56 0z m-1362
-87 c-37 -31 -48 -47 -48 -69 0 -19 -5 -29 -15 -29 -9 0 -15 10 -15 26 0 33
98 140 114 124 8 -8 -2 -23 -36 -52z m1416 17 c3 -8 14 -15 23 -15 10 0 31
-14 45 -30 23 -27 25 -32 11 -37 -11 -4 -25 4 -43 25 -15 18 -32 32 -38 32 -7
0 -12 2 -12 4 0 2 -3 11 -6 20 -3 9 -2 16 4 16 5 0 12 -7 16 -15z m-1311 -20
c0 -6 -15 -20 -33 -33 -44 -29 -55 -10 -14 24 29 24 45 26 47 9z m1317 -114
c0 -9 -3 -27 -7 -40 -6 -22 -8 -20 -24 22 -10 26 -16 54 -12 63 6 15 9 14 25
-6 10 -12 18 -30 18 -39z m120 29 c0 -5 -4 -10 -10 -10 -5 0 -10 5 -10 10 0 6
5 10 10 10 6 0 10 -4 10 -10z m377 -61 c17 -49 16 -98 -2 -106 -9 -3 -17 -4
-19 -2 -2 2 -7 37 -11 78 -6 60 -5 73 6 69 8 -2 19 -20 26 -39z m-417 21 c0
-5 -6 -10 -14 -10 -8 0 -18 5 -21 10 -3 6 3 10 14 10 12 0 21 -4 21 -10z m78
-82 c-2 -21 -8 -33 -18 -33 -10 0 -16 12 -18 33 -3 27 0 32 18 32 18 0 21 -5
18 -32z m406 -7 c9 -14 -4 -41 -19 -41 -15 0 -28 27 -19 41 3 5 11 9 19 9 8 0
16 -4 19 -9z m-2164 -21 c0 -16 -47 -60 -64 -60 -24 0 -29 19 -12 45 11 17 26
25 46 25 17 0 30 -5 30 -10z m153 -45 c-11 -31 -33 -16 -33 23 l1 37 19 -23
c10 -13 16 -30 13 -37z m-73 7 c0 -4 -4 -13 -9 -21 -8 -12 -14 -13 -35 -3 -30
13 -33 27 -9 41 17 9 53 -2 53 -17z m1740 2 c0 -8 10 -32 22 -53 12 -21 19
-45 15 -54 -6 -15 -8 -15 -35 0 -27 15 -29 21 -28 70 0 36 4 53 13 53 7 0 13
-7 13 -16z m-920 -139 c0 -40 -22 -99 -41 -110 -9 -6 -11 5 -6 52 8 73 15 93
33 93 9 0 14 -12 14 -35z m-922 3 c5 -24 -51 -83 -71 -75 -22 8 -21 25 3 65
15 24 27 32 43 30 12 -2 23 -11 25 -20z m190 -17 c-4 -21 -58 -28 -58 -7 0 18
29 36 47 29 8 -3 13 -13 11 -22z m1080 -9 c-4 -22 -35 -39 -48 -26 -14 14 16
55 36 47 8 -3 14 -12 12 -21z m-1212 -21 c-8 -13 -36 -15 -36 -3 0 4 5 13 12
20 14 14 34 0 24 -17z m1754 -16 c0 -9 -9 -15 -25 -15 -16 0 -25 6 -25 15 0 9
9 15 25 15 16 0 25 -6 25 -15z m-542 -78 c5 -24 -26 -33 -46 -13 -15 15 -15
18 -2 26 21 14 44 8 48 -13z m-63 -166 c3 -6 -4 -15 -15 -21 -16 -8 -20 -8
-20 3 0 25 23 36 35 18z m79 -18 c7 -17 -10 -79 -26 -100 -16 -20 -28 -5 -28
32 0 64 38 111 54 68z m-364 -26 c0 -19 -21 -37 -42 -37 -21 0 -22 4 -8 31 12
21 50 26 50 6z m290 -49 c0 -36 -26 -112 -38 -116 -15 -5 -16 50 -1 101 11 41
39 51 39 15z m-1241 -32 c51 -11 95 -30 138 -57 80 -50 323 -171 404 -200 59
-22 60 -23 37 -35 -14 -7 -70 -22 -125 -33 -58 -12 -145 -40 -207 -67 -117
-50 -257 -84 -350 -84 -70 0 -68 4 36 81 42 32 66 55 60 61 -6 6 -50 -21 -113
-69 l-104 -79 -42 16 c-23 8 -44 18 -48 21 -3 4 21 30 55 59 33 28 60 56 60
61 0 20 -25 6 -89 -51 -37 -33 -75 -60 -83 -60 -17 0 -79 24 -90 35 -3 4 29
38 72 76 89 78 127 122 110 127 -14 5 -59 -30 -158 -123 l-81 -76 -33 17 c-18
10 -51 20 -73 23 l-40 6 30 28 c17 15 74 58 128 94 87 60 124 96 81 79 -26
-10 -160 -105 -209 -148 -52 -46 -68 -45 -117 9 -18 19 -46 43 -62 53 l-28 18
28 15 c47 24 292 117 309 117 8 0 15 7 15 15 0 20 -13 19 -62 -6 -45 -23 -245
-93 -317 -110 -41 -11 -46 -10 -63 11 -10 12 -18 26 -18 30 0 15 65 38 125 45
33 4 82 18 108 31 48 25 163 56 292 80 90 17 325 11 424 -10z m-1562 -5 c84
-10 153 -34 329 -115 56 -26 134 -56 174 -67 93 -25 132 -46 262 -136 133 -91
196 -121 284 -132 38 -5 110 -25 159 -44 50 -19 108 -38 130 -42 22 -4 56 -16
75 -25 19 -10 62 -21 95 -25 33 -3 80 -13 105 -20 25 -8 83 -22 130 -31 47
-10 90 -20 95 -24 6 -4 28 -10 51 -14 23 -3 65 -16 95 -29 42 -19 80 -26 169
-31 63 -3 136 -12 163 -18 47 -12 47 -12 47 -54 0 -31 -7 -51 -26 -73 -14 -17
-31 -31 -38 -31 -6 0 -45 -16 -86 -36 -74 -35 -99 -58 -161 -141 -29 -38 -34
-41 -58 -32 -48 19 -214 49 -346 65 -144 16 -222 30 -275 49 -19 7 -70 20
-112 30 -43 10 -78 20 -78 23 0 2 13 21 29 41 41 53 55 81 43 93 -8 8 -60 -51
-96 -109 -1 -1 -26 10 -57 26 -30 15 -91 33 -134 41 -44 7 -84 16 -89 21 -4 4
12 33 38 64 45 56 57 85 35 85 -6 0 -21 -12 -33 -27 -11 -16 -36 -45 -54 -65
l-33 -36 -46 20 c-51 23 -134 28 -155 10 -17 -13 -98 -28 -98 -17 0 4 17 28
38 54 64 77 93 124 82 135 -12 12 -5 19 -104 -106 l-76 -98 -80 0 c-90 0 -280
20 -280 29 0 3 61 62 135 131 74 68 135 130 135 137 0 35 -41 4 -192 -145
-122 -121 -128 -125 -146 -109 -10 9 -42 24 -71 33 -56 16 -103 13 -176 -13
-39 -14 -40 -13 -62 14 -13 15 -23 31 -23 34 0 15 128 93 232 142 181 85 278
155 278 198 0 27 -25 23 -38 -6 -15 -33 -87 -78 -252 -158 -74 -36 -159 -84
-189 -106 -30 -23 -58 -38 -62 -34 -3 5 -27 36 -53 71 l-46 64 28 22 c57 48
112 75 198 99 149 41 204 70 204 109 0 24 -27 23 -35 -1 -8 -26 -50 -44 -179
-79 -59 -17 -122 -40 -140 -53 -17 -12 -45 -33 -62 -46 l-31 -23 -52 78 c-28
43 -51 82 -51 88 0 5 59 31 131 57 188 70 224 86 212 98 -10 10 -119 -25 -270
-87 -45 -19 -86 -34 -90 -34 -5 0 -26 32 -47 71 -31 57 -36 73 -25 80 8 5 18
9 23 9 5 0 23 11 40 24 17 13 52 27 76 31 55 9 211 65 265 94 43 24 42 24 222
2z m3752 -72 c67 -37 87 -43 187 -55 121 -14 183 -32 402 -118 79 -31 154 -56
167 -56 14 0 84 -14 157 -31 226 -52 488 -84 488 -60 0 12 -20 18 -105 31 -96
14 -177 29 -259 47 l-70 16 27 23 c15 13 27 26 27 29 0 13 -31 3 -59 -21 -25
-21 -37 -24 -62 -19 l-32 7 37 21 c35 20 47 37 26 37 -18 0 -69 -29 -77 -45
-8 -13 -15 -12 -58 4 l-49 19 41 6 c39 7 83 37 83 56 0 15 -9 12 -37 -10 -14
-11 -37 -20 -50 -20 -14 0 -37 -7 -53 -16 -25 -16 -30 -15 -74 1 -54 21 -51
27 19 45 95 23 115 32 115 47 0 10 -5 13 -17 8 -27 -11 -193 -55 -207 -55 -7
0 -20 6 -30 13 -17 13 -17 15 5 40 17 18 44 32 89 43 36 9 75 22 87 30 13 8
56 17 97 21 64 5 79 3 108 -14 18 -11 67 -28 108 -38 103 -25 260 -80 340
-120 36 -18 86 -38 110 -45 25 -7 75 -30 112 -52 61 -36 145 -63 261 -83 20
-3 71 -24 112 -45 59 -32 85 -40 126 -40 62 0 62 -1 -17 -111 l-56 -77 -71 -6
c-40 -3 -124 -8 -187 -12 -143 -7 -239 -26 -294 -57 -42 -24 -45 -24 -222 -17
-121 5 -192 13 -219 23 -22 9 -79 17 -127 19 -59 3 -93 9 -105 20 -23 20 -229
48 -350 48 -82 0 -100 3 -156 30 -35 17 -79 30 -98 30 -19 0 -40 5 -46 11 -6
6 -42 15 -80 19 -63 6 -75 4 -173 -32 -117 -43 -500 -139 -630 -158 -47 -6
-91 -13 -98 -16 -24 -7 -34 50 -33 191 1 77 -2 160 -7 185 -4 25 -5 76 -2 115
l5 70 50 7 c125 20 220 43 367 89 146 46 241 64 342 68 29 1 59 -10 115 -40z
m-1255 -58 c8 -12 -21 -34 -34 -26 -17 11 -11 35 9 35 11 0 22 -4 25 -9z
m3383 -47 c100 -27 163 -50 163 -60 0 -4 -25 -48 -55 -99 l-56 -93 -42 4
c-103 11 -124 16 -160 38 l-39 24 49 18 c52 19 73 32 73 44 0 5 -17 0 -37 -10
-98 -47 -108 -50 -172 -38 -74 14 -70 23 31 74 37 19 68 39 68 45 0 17 -40 0
-123 -52 l-78 -49 -61 21 c-76 25 -142 58 -134 67 4 3 25 5 47 4 26 -2 75 10
141 34 92 34 165 49 257 53 18 0 76 -11 128 -25z m-3397 -89 c0 -19 -13 -25
-30 -15 -11 7 -11 11 -1 24 15 17 31 13 31 -9z m-65 -112 c-6 -130 -22 -273
-32 -299 -3 -8 -10 -14 -15 -14 -6 0 -7 8 -3 18 4 9 10 25 12 35 8 26 -22 21
-41 -8 -13 -20 -25 -25 -56 -25 -52 0 -57 13 -15 44 19 15 35 31 35 37 0 19
-34 8 -74 -24 -71 -58 -78 -60 -172 -47 -46 7 -84 16 -84 21 0 5 5 9 10 9 6 0
33 16 61 35 28 19 81 44 118 55 77 23 111 44 96 59 -7 7 -24 4 -54 -9 -24 -11
-51 -20 -60 -20 -9 0 -43 -16 -76 -35 -33 -20 -83 -46 -110 -60 l-50 -24 -63
21 c-34 12 -59 25 -55 28 5 4 85 35 178 70 94 35 191 74 217 87 26 12 56 23
67 23 24 0 37 18 23 32 -8 8 -41 -1 -114 -30 -57 -22 -179 -68 -273 -102 -93
-34 -177 -66 -186 -70 -9 -5 -31 -5 -50 0 -19 5 -60 14 -91 21 -65 14 -67 23
-6 33 52 8 410 126 511 167 40 17 110 38 157 49 47 10 103 25 125 34 79 29 77
32 70 -111z m142 -181 c-8 -97 -20 -132 -47 -132 -23 0 -25 13 -9 59 8 24 8
36 0 44 -6 6 -7 15 -2 21 5 6 14 28 20 49 8 22 19 37 28 37 14 0 15 -11 10
-78z m73 -17 c0 -40 -4 -54 -17 -59 -32 -12 -43 42 -22 103 17 48 39 23 39
-44z m1189 -16 c18 -11 65 -24 103 -29 38 -4 77 -15 87 -24 11 -10 52 -20 112
-26 265 -29 401 -51 439 -71 25 -14 56 -19 115 -19 44 0 98 -5 119 -11 22 -6
78 -14 125 -18 l86 -6 -65 -17 c-36 -10 -130 -34 -210 -53 -104 -26 -152 -43
-170 -59 -56 -52 -147 -76 -292 -76 -65 0 -76 2 -72 15 8 20 -32 20 -66 0 -14
-8 -47 -14 -75 -15 -48 0 -49 1 -27 16 23 15 29 39 13 48 -5 3 -27 -8 -50 -24
-37 -27 -48 -30 -117 -30 -47 0 -73 4 -69 10 3 6 15 10 26 10 11 0 19 7 19 16
0 18 -29 16 -93 -9 -33 -12 -51 -12 -119 -1 -44 7 -82 15 -84 17 -5 4 190 77
206 77 29 0 120 43 120 57 0 11 -6 14 -22 10 -44 -11 -154 -49 -232 -80 -44
-17 -106 -33 -138 -35 -69 -5 -194 7 -182 17 28 24 141 61 214 71 92 12 175
37 192 57 20 25 -1 26 -79 5 -43 -12 -112 -26 -153 -33 -41 -6 -104 -24 -140
-39 -36 -16 -88 -32 -115 -35 -55 -8 -204 10 -219 25 -6 6 -18 10 -27 10 -9 0
-27 8 -38 18 -22 17 -21 17 61 36 46 10 137 31 204 47 67 16 175 37 240 48
121 19 153 32 262 106 39 27 54 26 111 -6z m-1349 -71 c0 -47 -33 -112 -53
-105 -20 6 -19 54 2 102 26 59 51 61 51 3z m164 -57 c26 -51 28 -85 6 -109
-33 -36 -49 -28 -56 28 -4 32 -11 50 -20 50 -21 0 -17 37 7 61 23 23 40 15 63
-30z m3096 15 c0 -9 -111 -142 -212 -253 -197 -216 -426 -412 -689 -589 l-156
-104 -64 1 c-35 0 -86 8 -113 18 l-50 17 85 88 c46 49 135 127 197 173 104 79
124 103 85 103 -29 0 -203 -142 -300 -245 l-98 -104 -75 33 c-41 18 -91 37
-110 41 -19 4 -39 9 -43 12 -10 6 58 58 207 158 113 76 145 105 114 105 -23 0
-218 -123 -306 -193 l-85 -68 -81 25 c-44 14 -92 27 -106 30 -14 3 -32 10 -40
16 -13 9 -13 11 0 20 8 6 26 13 40 16 34 7 102 32 120 44 11 7 12 12 3 21 -9
9 -23 7 -62 -10 -27 -11 -56 -21 -63 -21 -7 0 -35 -12 -62 -26 -42 -22 -57
-25 -115 -21 -36 3 -92 11 -124 18 -51 12 -66 21 -114 72 -30 32 -54 60 -52
62 2 2 51 8 109 15 129 13 340 49 360 61 25 14 -88 10 -160 -6 -36 -8 -92 -15
-125 -15 -33 0 -91 -5 -129 -10 -69 -10 -69 -10 -95 19 -14 16 -46 39 -71 52
-101 51 -138 80 -161 123 -12 24 -35 51 -49 59 -14 9 -34 25 -44 36 -19 21
-19 21 5 21 14 0 49 -7 79 -15 30 -9 100 -24 155 -35 55 -10 132 -26 170 -34
81 -17 506 -40 710 -37 129 1 138 0 115 -14 -31 -19 -170 -62 -229 -71 -25 -4
-60 -18 -79 -31 -19 -12 -40 -23 -46 -23 -6 0 -4 -5 5 -10 10 -6 31 -1 65 16
28 14 73 27 100 29 96 8 217 52 343 124 125 71 193 98 306 121 55 11 156 32
224 45 68 14 165 41 216 60 51 19 106 35 122 35 17 0 52 7 79 15 27 9 87 18
134 21 47 3 87 8 89 10 5 5 71 5 71 0z m-2985 -100 c0 -72 -2 -80 -23 -94 -20
-13 -25 -13 -33 -1 -13 21 -11 64 7 126 12 40 20 53 32 51 14 -3 17 -17 17
-82z m75 44 c0 -5 -4 -10 -9 -10 -6 0 -13 5 -16 10 -3 6 1 10 9 10 9 0 16 -4
16 -10z m-2815 -51 c70 -19 118 -25 278 -34 32 -2 74 -9 95 -16 48 -16 149
-14 240 6 109 23 179 20 238 -10 27 -14 59 -25 72 -25 12 0 49 -11 82 -25 33
-14 64 -25 69 -25 6 0 27 -12 48 -26 52 -35 78 -45 148 -54 33 -4 113 -22 178
-39 65 -17 180 -37 255 -46 75 -8 162 -21 192 -29 30 -8 67 -17 83 -20 34 -8
34 -26 1 -66 -32 -38 -74 -59 -184 -95 -46 -14 -96 -35 -110 -44 -25 -18 -304
-71 -370 -71 -19 0 -52 -9 -74 -20 -23 -10 -75 -24 -116 -31 -41 -6 -88 -18
-105 -26 -19 -11 -61 -16 -125 -17 -75 -1 -105 -6 -144 -24 -77 -35 -107 -30
-200 34 -44 32 -83 59 -85 61 -15 12 211 173 315 224 76 38 108 69 69 69 -31
0 -144 -53 -181 -84 -22 -18 -84 -67 -138 -109 l-99 -77 -46 37 c-158 126
-212 176 -203 185 6 6 53 31 104 57 57 28 94 53 96 64 5 24 -28 22 -69 -6 -19
-12 -65 -40 -103 -61 l-69 -38 -106 106 -106 106 40 37 c48 44 33 56 -26 21
l-42 -25 -36 41 c-82 92 -78 84 -40 100 47 21 86 20 174 -5z m2475 -51 c0 -61
-35 -101 -68 -80 -9 7 -10 16 -1 43 24 70 69 94 69 37z m70 -1 c0 -32 -42
-107 -60 -107 -13 0 -13 8 4 64 23 77 56 102 56 43z m415 -13 c9 -4 21 -17 25
-30 5 -13 30 -34 58 -48 50 -25 79 -52 69 -62 -7 -7 -59 23 -130 74 -71 51
-84 89 -22 66z m-165 -28 c0 -8 -11 -28 -25 -44 -25 -30 -33 -62 -16 -62 6 0
13 5 16 10 12 20 23 9 35 -35 14 -51 30 -59 30 -15 0 19 5 30 14 30 24 0 66
-41 66 -64 0 -20 -4 -22 -26 -18 -26 5 -26 5 12 -48 33 -45 41 -51 66 -48 30
5 46 -6 28 -17 -21 -13 -9 -42 35 -85 27 -27 45 -53 45 -67 0 -30 -5 -29 -39
9 -29 33 -56 32 -33 0 15 -20 37 -67 46 -99 5 -16 3 -23 -7 -23 -17 0 -39 24
-61 68 -19 37 -42 50 -58 34 -7 -7 -4 -19 11 -38 11 -15 21 -32 21 -39 0 -7 7
-18 15 -25 27 -22 18 -40 -20 -40 -24 0 -35 -5 -35 -15 0 -19 -40 -20 -65 -2
-17 14 -17 15 1 34 68 74 65 69 44 88 -10 9 -24 14 -29 10 -6 -3 -11 0 -11 7
0 8 13 22 30 31 16 10 35 27 41 39 26 49 -124 256 -199 273 -30 6 -52 29 -52
54 0 16 92 111 108 111 6 0 12 -6 12 -14z m97 -33 c57 -39 93 -86 93 -122 0
-11 -1 -21 -3 -21 -12 0 -157 149 -157 163 0 24 6 22 67 -20z m-517 -3 c0 -13
-38 -32 -51 -25 -14 10 9 35 32 35 11 0 19 -4 19 -10z m260 -5 c0 -42 -82
-215 -102 -215 -12 0 -10 6 32 90 22 44 40 90 40 103 0 13 3 27 7 30 11 12 23
8 23 -8z m-70 -56 c0 -6 -11 -25 -24 -42 -13 -18 -36 -58 -51 -90 -23 -50 -68
-98 -80 -86 -8 8 76 204 92 217 20 15 63 16 63 1z m-325 -9 c-4 -6 -23 -19
-44 -30 -57 -29 -97 -80 -105 -134 -4 -25 -10 -46 -14 -46 -4 0 -13 -13 -19
-30 -6 -16 -17 -30 -25 -30 -11 0 -7 22 17 95 32 99 54 131 116 164 37 20 84
27 74 11z m185 -18 c0 -31 -29 -61 -58 -61 -49 2 -140 -17 -158 -32 -21 -17
-74 -127 -74 -154 0 -29 -42 -93 -76 -115 -18 -13 -46 -20 -75 -20 -65 0 -144
-26 -183 -60 -18 -17 -38 -30 -44 -30 -6 0 -32 -18 -57 -40 -66 -57 -81 -63
-117 -51 -17 6 -71 11 -119 11 -95 0 -162 -17 -214 -54 -23 -16 -41 -20 -80
-18 -54 4 -87 24 -68 43 6 6 46 15 89 20 68 8 83 14 105 38 22 23 38 30 90 35
53 6 71 3 104 -14 46 -23 71 -25 105 -5 14 8 36 14 49 15 13 0 44 19 72 44 27
25 63 48 80 51 17 4 50 16 74 26 34 15 49 17 70 9 23 -9 32 -6 68 25 22 19 44
35 48 35 12 0 52 86 47 100 -2 7 5 23 16 35 12 12 33 45 48 73 21 38 35 53 55
57 16 4 37 11 48 18 18 10 112 34 143 36 6 1 12 -7 12 -17z m646 -28 c35 -24
54 -63 43 -92 -9 -25 2 -53 43 -105 21 -26 21 -28 4 -45 -17 -16 -19 -16 -42
13 -14 17 -27 42 -30 56 -4 15 -24 48 -45 74 -41 49 -43 55 -33 93 7 26 26 28
60 6z m188 -93 c26 -27 29 -35 20 -59 -12 -34 -38 -35 -42 -2 -2 13 -17 40
-33 59 -20 24 -25 37 -17 42 15 10 36 -2 72 -40z m-604 14 c0 -31 -54 -125
-72 -125 -30 0 -21 43 20 94 39 48 52 56 52 31z m-380 -9 c0 -16 -60 -150 -75
-166 -11 -12 -15 -28 -12 -41 9 -32 -12 -69 -40 -69 -23 0 -32 23 -13 35 5 3
19 38 31 78 26 87 42 120 71 147 20 18 38 26 38 16z m100 -4 c0 -5 -12 -19
-26 -33 -15 -14 -23 -31 -21 -41 3 -10 1 -21 -4 -24 -5 -3 -9 -18 -9 -33 0
-31 -16 -51 -42 -51 -16 0 -17 3 -8 20 6 11 15 46 21 77 15 78 24 93 59 93 17
0 30 -4 30 -8z m167 -91 c6 -24 -5 -52 -23 -58 -15 -5 -34 89 -21 105 9 11 13
10 24 -5 8 -10 17 -29 20 -42z m168 23 c-32 -47 -31 -57 7 -105 17 -21 28 -42
25 -46 -12 -12 -43 26 -66 82 l-23 56 23 25 c12 13 31 24 40 24 16 0 16 -4 -6
-36z m483 24 c14 -14 16 -48 3 -48 -11 0 -41 39 -41 52 0 12 25 9 38 -4z m200
-54 c12 -20 22 -44 22 -55 0 -25 -27 -79 -40 -79 -19 0 -40 60 -40 115 0 46 3
55 18 55 9 -1 27 -17 40 -36z m-592 -11 c-13 -39 -46 -58 -46 -28 0 22 30 65
46 65 11 0 11 -6 0 -37z m-822 -35 c-13 -23 -37 -48 -46 -48 -13 0 -9 22 9 42
18 20 48 25 37 6z m916 -19 c0 -10 -7 -19 -15 -19 -15 0 -21 31 -9 43 11 10
24 -3 24 -24z m-498 -27 c11 -2 18 5 20 19 5 36 26 34 44 -4 29 -61 26 -63
-158 -97 -31 -6 -76 -24 -100 -39 -23 -16 -68 -37 -98 -47 -40 -14 -71 -35
-113 -76 -44 -44 -65 -58 -87 -58 -41 0 -80 17 -80 34 0 24 84 67 199 102 139
42 153 47 192 82 19 16 50 37 71 45 21 9 39 25 43 39 13 42 27 51 39 26 6 -13
19 -24 28 -26z m246 22 c12 -8 22 -21 22 -28 0 -6 16 -27 35 -46 37 -36 43
-50 22 -50 -15 0 -63 49 -95 97 -33 46 -26 57 16 27z m651 -6 c10 -26 6 -38
-14 -38 -16 0 -29 35 -20 50 10 17 25 11 34 -12z m-717 -23 c0 -5 -5 -11 -11
-13 -6 -2 -11 4 -11 13 0 9 5 15 11 13 6 -2 11 -8 11 -13z m-746 -20 c-11 -8
-25 -15 -32 -15 -7 0 -34 -19 -61 -42 -92 -79 -185 -107 -240 -70 -20 12 -48
17 -105 17 -65 0 -75 2 -61 13 9 6 45 12 81 12 35 0 91 7 124 16 80 20 107 13
48 -13 -39 -17 -42 -21 -24 -27 28 -9 67 7 127 52 66 49 107 70 137 71 24 0
24 0 6 -14z m1339 -35 c0 -38 -39 -35 -43 3 -3 25 0 28 20 25 17 -2 23 -9 23
-28z m-355 -9 c0 -16 -7 -34 -15 -41 -17 -14 -18 -8 -9 39 8 39 24 41 24 2z
m698 6 c6 -6 13 -24 17 -39 6 -24 4 -26 -15 -21 -25 7 -55 47 -45 63 9 14 30
13 43 -3z m-888 -37 c14 -11 32 -20 41 -20 9 0 22 -7 30 -16 7 -8 25 -22 41
-30 16 -8 26 -19 23 -24 -4 -6 -14 -6 -26 1 -26 13 -34 6 -20 -18 7 -14 6 -34
-5 -71 -13 -45 -19 -52 -41 -52 -23 0 -25 3 -18 28 4 15 9 48 12 75 5 46 3 49
-41 93 -25 25 -46 47 -46 49 0 11 27 3 50 -15z m672 -7 c92 -74 168 -165 168
-200 0 -27 -25 -10 -122 82 -55 52 -104 95 -109 95 -10 0 -12 33 -2 43 12 13
32 7 65 -20z m-775 4 c11 -11 -14 -24 -61 -31 -22 -4 -57 -18 -76 -31 -20 -14
-67 -32 -105 -41 -152 -35 -176 -44 -221 -86 -27 -25 -50 -38 -59 -34 -44 17
24 85 125 126 44 18 91 41 105 52 37 29 151 57 222 54 34 -1 66 -5 70 -9z
m977 -69 c87 -86 106 -113 106 -147 0 -40 -36 -23 -73 33 -19 29 -65 80 -101
112 -50 44 -62 61 -54 71 20 24 38 13 122 -69z m-1449 62 c3 -5 -1 -10 -10
-10 -30 0 -136 -49 -204 -94 -57 -38 -74 -45 -100 -40 -25 5 -29 9 -21 24 5 9
33 27 62 40 29 12 59 27 67 34 14 12 154 54 183 55 9 1 20 -3 23 -9z m1629
-26 c22 -22 20 -48 -7 -80 -30 -34 -56 -27 -91 26 -29 44 -21 59 17 30 14 -11
28 -20 31 -20 12 0 6 24 -11 42 -15 17 -15 18 15 18 17 0 38 -7 46 -16z m130
-14 c19 -19 19 -21 3 -56 -10 -20 -15 -44 -12 -53 11 -36 -78 -76 -115 -52
-13 9 -11 13 8 32 30 28 42 60 42 116 0 44 1 45 28 38 15 -3 36 -15 46 -25z
m101 -20 c18 -20 18 -21 -13 -52 -17 -18 -34 -29 -37 -26 -11 11 7 98 20 98 6
0 20 -9 30 -20z m138 -20 c37 -21 81 -34 152 -45 124 -20 158 -30 215 -65 25
-16 57 -32 73 -35 36 -9 43 -23 23 -43 -17 -17 -30 -12 -166 63 -55 30 -173
61 -269 71 -61 6 -71 4 -71 -10 0 -15 13 -20 75 -29 129 -19 345 -106 345
-139 0 -21 -79 -6 -123 22 -61 38 -113 60 -144 60 -46 0 -20 -31 52 -61 74
-32 108 -56 99 -70 -11 -18 -68 -8 -192 32 -70 22 -149 48 -175 56 -51 16
-131 13 -149 -5 -6 -6 -8 -18 -4 -28 5 -14 15 -16 62 -10 33 4 61 2 68 -3 7
-6 56 -20 109 -31 54 -12 114 -28 134 -37 35 -14 36 -16 18 -29 -26 -19 -33
-18 -153 17 -82 25 -116 30 -158 26 -29 -3 -59 -9 -65 -13 -21 -13 22 -34 70
-34 51 0 88 -16 105 -43 8 -13 8 -20 -4 -27 -28 -18 -58 -10 -99 24 -26 22
-57 37 -83 41 -24 4 -68 19 -98 35 -118 59 -314 114 -483 133 -54 7 -99 17
-100 22 -3 17 78 17 155 0 40 -9 105 -21 143 -26 114 -16 192 -37 271 -73 53
-25 74 -31 74 -21 0 8 -20 26 -45 41 -25 14 -45 29 -45 34 0 21 33 32 74 27
34 -5 49 -2 68 12 30 24 48 26 131 17 48 -5 72 -4 82 4 23 19 10 27 -50 35
-30 3 -55 9 -55 11 0 15 32 62 45 67 8 4 15 18 15 32 0 32 9 32 73 -5z m-2814
11 c30 -19 -1 -34 -58 -28 -38 3 -65 0 -82 -9 -32 -17 -49 -17 -49 0 0 23 20
31 95 37 39 3 72 6 75 7 3 1 11 -2 19 -7z m1331 -9 c22 -18 22 -18 -28 -19
-53 -1 -110 -24 -240 -99 -40 -23 -60 -40 -54 -46 6 -6 20 -4 38 5 35 18 195
67 219 67 30 0 10 -25 -33 -40 -56 -21 -69 -35 -52 -55 17 -20 39 -19 91 5 53
23 88 25 115 5 10 -8 27 -15 36 -15 24 0 78 49 78 71 0 25 13 24 69 -8 72 -40
115 -15 45 26 -35 21 -38 41 -5 41 27 0 111 -60 111 -79 0 -10 -10 -27 -22
-38 -21 -18 -50 -22 -318 -37 -162 -10 -303 -22 -312 -27 -28 -15 -84 -10
-110 10 -13 11 -42 23 -64 26 -78 15 -85 44 -16 80 26 14 58 34 72 45 18 14
47 22 104 27 66 5 84 11 110 33 49 43 127 53 166 22z m724 -38 c88 -75 87
-100 -4 -74 -19 6 -73 17 -119 25 -47 9 -96 23 -110 32 l-25 16 23 18 c28 23
54 24 72 3 17 -21 63 -44 89 -44 30 0 24 26 -10 47 -36 21 -38 33 -6 33 15 0
50 -22 90 -56z m-2369 -4 c3 -6 27 -15 51 -21 45 -12 65 -32 48 -49 -13 -12
-163 24 -183 44 -14 15 -14 18 -1 26 20 13 77 13 85 0z m1705 -25 c0 -16 -27
-32 -37 -21 -7 7 16 36 28 36 5 0 9 -7 9 -15z m414 -26 c19 -18 19 -19 1 -79
-15 -51 -22 -60 -42 -60 -29 0 -29 8 -1 65 l22 45 -23 31 -23 31 23 -7 c13 -4
33 -15 43 -26z m-1484 -8 c272 -50 391 -75 425 -91 22 -10 70 -32 108 -49 37
-16 67 -32 67 -34 0 -7 -239 -103 -288 -116 -34 -10 -51 -9 -90 4 -58 20 -158
12 -211 -16 -20 -10 -40 -19 -46 -19 -18 0 -145 43 -145 50 0 3 13 19 30 35
28 27 32 28 69 17 31 -10 53 -9 107 2 49 10 74 11 93 4 50 -20 200 -38 228
-27 50 19 8 37 -112 48 -60 6 -126 15 -145 21 -21 6 -78 7 -142 4 -105 -7
-108 -8 -153 -45 l-46 -38 -42 15 c-54 19 -87 41 -87 58 0 7 9 25 20 39 21 26
21 26 133 20 93 -5 118 -3 144 11 46 23 75 20 209 -19 91 -27 137 -35 197 -35
55 0 85 -5 102 -16 27 -18 55 -13 55 9 0 29 -148 66 -264 67 -27 0 -91 14
-143 30 -110 35 -136 37 -188 10 -46 -23 -128 -26 -165 -5 l-25 13 49 22 c81
34 174 46 256 31z m-587 -42 c47 -13 50 -34 4 -25 -18 3 -53 12 -78 20 l-44
14 40 1 c22 0 57 -4 78 -10z m176 -20 c17 -6 31 -15 31 -20 0 -4 -14 -25 -32
-45 -27 -30 -36 -35 -61 -30 -51 10 -57 22 -39 66 19 44 40 50 101 29z m2186
-77 c210 -40 380 -107 415 -165 51 -83 2 -90 -80 -11 -56 54 -63 57 -159 80
-55 13 -128 35 -163 49 -56 23 -72 25 -138 20 -68 -6 -77 -5 -94 14 -43 47 14
51 219 13z m-373 -36 c18 -7 77 -16 131 -19 108 -7 443 -84 507 -117 36 -18
80 -63 80 -81 0 -4 -13 -10 -29 -14 -35 -7 -80 10 -150 58 -68 47 -122 63
-271 82 -69 9 -147 23 -175 33 -36 12 -82 17 -160 16 -187 0 -418 -15 -460
-29 -22 -8 -89 -16 -148 -19 -103 -6 -144 -16 -207 -55 -40 -24 -217 -101
-233 -101 -10 0 -34 7 -55 16 -34 14 -36 16 -19 29 10 7 43 16 75 20 31 4 68
15 82 25 14 9 36 21 50 25 14 4 75 29 135 55 153 66 227 79 378 70 12 -1 47 5
77 14 67 19 339 14 392 -8z m93 -102 c195 -19 345 -68 385 -125 23 -31 18 -39
-25 -39 -23 0 -49 13 -91 45 -31 25 -66 45 -77 45 -11 0 -63 12 -115 26 -87
24 -103 25 -162 15 -36 -6 -132 -13 -215 -16 -82 -2 -215 -7 -295 -11 l-145
-6 -90 -44 c-94 -47 -164 -62 -230 -50 -35 7 -36 8 -21 25 9 10 41 23 71 29
30 6 90 30 134 53 67 35 86 40 123 36 24 -2 88 2 143 10 63 9 126 12 170 8 39
-3 75 -6 80 -6 6 1 55 5 110 10 98 8 126 8 250 -5z m790 -44 c14 -16 15 -20 4
-20 -16 0 -39 19 -39 32 0 14 16 9 35 -12z m-2100 0 c9 -14 -49 -40 -89 -40
-41 0 -56 18 -31 37 21 15 111 18 120 3z m1255 -51 c157 -13 240 -39 240 -76
0 -43 -53 -41 -122 5 -30 19 -45 23 -75 18 -115 -19 -148 -18 -252 9 -76 20
-118 26 -153 22 -26 -3 -50 -2 -53 3 -3 4 25 11 62 15 38 3 77 7 88 9 45 7
138 5 265 -5z m-497 -39 c48 -25 89 -40 112 -40 29 0 36 -3 33 -17 -5 -25 -40
-27 -85 -5 -32 16 -48 18 -97 11 -32 -4 -63 -12 -69 -18 -14 -14 -127 -14
-163 -1 l-28 11 26 17 c14 9 45 32 68 50 61 45 105 44 203 -8z m1027 -11 c0
-5 -7 -9 -15 -9 -15 0 -20 12 -9 23 8 8 24 -1 24 -14z m-210 -39 c0 -5 -4 -10
-10 -10 -5 0 -10 5 -10 10 0 6 5 10 10 10 6 0 10 -4 10 -10z m-342 -15 c93 0
106 -16 21 -27 -82 -9 -319 -9 -319 1 0 5 15 16 33 25 26 14 46 16 107 9 41
-4 112 -8 158 -8z"/>
<path d="M6836 9473 c-20 -66 -96 -349 -96 -359 0 -11 59 -29 67 -20 2 2 13
37 25 77 11 41 21 75 22 76 1 1 28 -5 60 -13 32 -8 60 -14 61 -12 2 2 5 16 7
32 3 28 0 30 -54 45 -54 14 -57 16 -51 40 12 52 24 73 36 68 34 -13 138 -39
142 -36 2 2 5 17 7 33 3 28 1 29 -97 57 -119 34 -122 34 -129 12z"/>
<path d="M4840 9401 c-47 -15 -84 -32 -84 -37 2 -7 115 -364 119 -371 1 -1 17
3 37 9 l36 11 -25 79 c-13 44 -23 81 -21 83 2 2 15 6 29 10 22 5 32 -2 80 -60
49 -60 57 -65 84 -60 16 3 33 9 38 14 5 5 -19 40 -53 79 -59 69 -61 72 -46 94
21 30 20 92 -1 125 -16 25 -68 53 -95 53 -7 -1 -51 -13 -98 -29z m120 -61 c34
-34 24 -61 -33 -85 -50 -21 -52 -20 -65 24 -17 55 -16 58 26 69 52 14 50 14
72 -8z"/>
<path d="M7211 9357 c-5 -12 -38 -95 -74 -185 l-66 -163 32 -14 c18 -7 35 -11
38 -7 3 4 16 34 29 67 30 77 34 81 65 67 24 -11 25 -15 25 -100 0 -85 1 -89
25 -100 48 -22 50 -19 47 81 l-3 93 36 13 c65 23 92 98 59 162 -15 30 -38 44
-152 88 l-53 21 -8 -23z m106 -88 c35 -17 43 -26 43 -48 0 -33 -16 -51 -47
-51 -18 0 -64 15 -82 26 -5 4 31 94 37 94 3 0 25 -9 49 -21z"/>
<path d="M4458 9245 l-107 -51 85 -181 86 -181 109 51 c60 28 109 54 109 58 0
4 -4 19 -10 34 l-10 25 -70 -35 c-38 -19 -74 -35 -80 -35 -8 0 -50 70 -50 85
0 3 26 17 57 30 31 14 59 27 60 29 6 6 -20 56 -29 56 -5 0 -31 -11 -58 -25
-27 -14 -52 -25 -54 -25 -6 0 -46 75 -46 85 0 3 32 19 70 36 72 33 78 40 57
75 -12 20 -14 20 -119 -31z"/>
<path d="M7531 9028 c-108 -198 -112 -171 35 -248 83 -44 85 -44 100 -26 7 11
14 25 14 30 0 6 -30 26 -66 45 -36 19 -68 40 -70 46 -5 13 33 85 44 85 4 0 30
-14 57 -30 28 -16 53 -30 56 -30 5 0 29 45 29 55 0 2 -25 18 -55 35 -30 17
-55 34 -55 37 0 3 10 23 22 44 l21 38 71 -39 72 -40 17 30 17 29 -103 55 c-57
31 -106 56 -108 56 -2 0 -46 -78 -98 -172z"/>
<path d="M4078 9026 c-57 -20 -139 -76 -131 -90 12 -20 205 -321 208 -324 2
-2 25 11 52 28 118 80 146 132 119 223 -20 70 -67 131 -119 156 -50 24 -77 25
-129 7z m92 -71 c37 -19 90 -109 90 -153 0 -25 -8 -42 -31 -63 -17 -16 -35
-29 -39 -29 -4 0 -39 50 -78 110 l-71 111 32 19 c39 24 59 25 97 5z"/>
<path d="M7866 8828 l-109 -162 29 -22 c16 -13 31 -20 35 -16 3 4 54 78 114
166 l108 159 -24 18 c-13 10 -29 19 -34 19 -6 0 -60 -73 -119 -162z"/>
<path d="M8051 8707 c-128 -155 -132 -164 -87 -191 18 -12 18 -12 96 82 l35
41 49 -43 50 -43 -58 -68 c-31 -37 -56 -68 -54 -69 2 0 15 -11 29 -24 l27 -23
126 152 c69 84 126 156 126 160 0 3 -12 15 -27 24 l-27 18 -51 -57 -50 -57
-48 37 c-26 20 -47 39 -47 42 0 3 20 30 45 60 25 30 45 58 45 62 0 5 -12 17
-27 28 l-28 19 -124 -150z"/>
<path d="M3485 8568 l-96 -91 25 -26 26 -25 36 34 36 35 114 -119 115 -120 27
27 27 27 -70 72 c-39 40 -90 94 -115 120 l-44 48 34 35 c33 34 33 35 15 55
-10 11 -21 20 -25 20 -4 0 -51 -41 -105 -92z"/>
<path d="M8372 8422 l-143 -138 85 -89 84 -90 23 22 23 23 -24 27 c-14 16 -39
44 -57 63 l-33 36 35 34 35 34 50 -49 c48 -48 50 -48 70 -30 28 25 26 33 -22
82 l-42 43 35 36 36 35 53 -61 53 -61 26 25 25 26 -79 83 c-44 47 -82 85 -85
85 -3 1 -69 -61 -148 -136z"/>
<path d="M3212 8268 c-39 -50 -70 -94 -67 -98 3 -5 72 -63 154 -129 l150 -121
20 26 c12 15 21 29 21 33 0 3 -27 28 -60 54 -33 27 -60 51 -60 54 0 3 16 26
36 50 35 42 36 45 19 64 -26 28 -37 24 -75 -26 -19 -25 -36 -45 -39 -45 -3 1
-21 14 -40 30 -38 33 -41 23 31 112 l38 46 -27 20 -28 20 -73 -90z"/>
<path d="M8632 8133 c-83 -65 -151 -121 -151 -125 -1 -4 9 -18 22 -33 l22 -25
140 110 c182 145 172 133 151 164 -9 14 -20 26 -25 26 -5 0 -76 -53 -159 -117z"/>
<path d="M8892 8065 l-22 -16 25 -39 c14 -22 25 -42 25 -44 0 -2 -61 -43 -135
-91 -74 -48 -135 -92 -135 -99 0 -6 9 -22 19 -35 l18 -23 138 92 139 93 15
-23 c41 -62 44 -64 71 -42 l24 20 -73 111 c-41 61 -77 111 -80 111 -4 0 -16
-7 -29 -15z"/>
<path d="M3007 7991 c-9 -16 -17 -31 -17 -34 0 -3 48 -35 108 -73 59 -37 117
-76 130 -87 40 -36 20 -99 -31 -99 -15 0 -77 31 -149 76 l-123 77 -22 -28
c-28 -35 -32 -31 126 -127 97 -59 133 -76 162 -76 95 0 166 140 109 213 -11
14 -69 56 -128 93 -59 37 -116 73 -127 80 -19 12 -23 11 -38 -15z"/>
<path d="M9058 7458 c-165 -112 -165 -112 -155 -141 5 -16 16 -31 24 -34 7 -3
68 6 136 20 67 14 123 24 125 23 1 -2 -47 -36 -108 -75 -60 -39 -110 -75 -110
-80 0 -23 24 -72 34 -68 6 2 95 19 199 37 198 35 207 39 174 84 -13 18 -18 18
-136 -8 -67 -15 -126 -26 -131 -24 -5 2 41 34 103 72 62 38 113 70 114 71 2 1
-4 20 -13 42 l-16 40 -116 -28 c-65 -16 -126 -28 -137 -29 -11 0 32 32 95 71
63 39 116 72 117 73 5 4 -21 66 -27 66 -4 0 -81 -50 -172 -112z"/>
<path d="M3068 7420 c-17 -38 -35 -70 -39 -70 -5 0 -70 29 -145 65 -75 36
-143 65 -149 65 -7 0 -18 -14 -24 -30 -10 -29 -8 -31 29 -50 65 -33 323 -151
325 -148 11 20 95 211 93 213 -8 6 -47 25 -53 25 -3 0 -20 -31 -37 -70z"/>
<path d="M9250 6977 c-102 -27 -187 -51 -190 -53 -2 -3 9 -57 24 -119 26 -101
32 -115 50 -115 44 0 47 11 26 85 -11 39 -20 75 -20 82 0 11 58 33 86 33 6 0
19 -29 28 -63 16 -60 19 -64 43 -59 34 6 37 22 19 84 -8 29 -12 56 -8 60 4 4
25 10 48 13 l40 7 21 -74 c19 -71 21 -73 49 -70 16 2 30 5 32 7 4 3 -55 226
-60 229 -2 1 -86 -20 -188 -47z"/>
<path d="M2531 6933 c-31 -121 -41 -163 -41 -180 0 -16 25 -25 183 -62 100
-24 186 -44 191 -45 8 -1 65 200 66 230 0 15 -53 26 -61 13 -3 -5 -13 -43 -23
-85 -13 -54 -22 -74 -31 -70 -8 3 -30 8 -49 12 -41 7 -41 9 -21 84 8 30 13 55
11 57 -1 2 -16 6 -33 9 -30 6 -31 5 -43 -47 -6 -30 -13 -59 -15 -66 -3 -8 -15
-8 -47 -1 -24 6 -45 12 -46 14 -2 1 4 37 13 79 10 42 16 77 14 79 -2 2 -16 6
-31 10 -25 6 -28 3 -37 -31z"/>
<path d="M9317 6585 c-93 -13 -171 -25 -174 -28 -3 -3 -2 -20 2 -37 l7 -32 67
7 c36 3 76 9 87 11 19 5 22 0 28 -56 4 -34 5 -64 2 -67 -2 -3 -41 -10 -85 -15
-78 -10 -81 -12 -81 -37 0 -50 3 -50 190 -25 96 13 183 23 193 24 13 0 17 9
17 41 0 38 -2 41 -22 36 -13 -3 -49 -9 -80 -12 l-57 -7 -6 38 c-4 22 -8 51
-11 65 -5 25 -3 26 71 37 42 5 78 12 81 15 2 2 1 18 -2 35 -8 38 2 38 -227 7z"/>
<path d="M2447 6514 c-4 -21 -5 -39 -4 -39 6 -4 390 -56 392 -53 1 2 5 18 8
35 8 39 21 34 -183 63 -80 11 -159 23 -176 26 -30 5 -31 4 -37 -32z"/>
<path d="M2525 6275 c-77 -27 -115 -95 -115 -207 0 -70 -15 -65 223 -72 l177
-5 0 85 c0 95 -11 127 -60 167 -55 46 -147 59 -225 32z m182 -91 c27 -21 49
-75 39 -100 -4 -11 -28 -14 -98 -14 -51 0 -110 3 -130 6 -35 6 -38 9 -38 41 0
25 8 43 30 65 29 29 34 30 100 26 50 -3 77 -9 97 -24z"/>
<path d="M9520 6126 l0 -56 -171 0 c-152 0 -170 -2 -165 -16 3 -9 6 -24 6 -35
0 -18 9 -19 165 -19 l165 0 0 -50 0 -50 35 0 36 0 -3 138 -3 137 -32 3 -33 3
0 -55z"/>
<path d="M3153 4233 c-20 -7 -15 -33 5 -33 19 0 42 18 42 32 0 9 -27 9 -47 1z"/>
<path d="M6837 4108 c-82 -57 -217 -191 -217 -217 0 -22 24 -10 59 31 66 77
106 113 188 168 45 30 84 61 87 68 12 27 -33 8 -117 -50z"/>
<path d="M6362 4118 c-24 -15 -30 -24 -22 -32 12 -12 81 20 88 42 6 19 -29 14
-66 -10z"/>
<path d="M6579 4082 c-85 -56 -279 -231 -279 -252 0 -27 38 -3 103 66 40 42
119 109 179 150 59 41 110 79 113 84 16 26 -38 3 -116 -48z"/>
<path d="M6238 4049 c-43 -22 -49 -39 -15 -39 28 0 67 26 67 46 0 18 -7 17
-52 -7z"/>
<path d="M7033 4040 c-47 -27 -83 -63 -83 -82 0 -18 39 -6 53 16 9 13 32 29
51 36 34 11 54 36 39 51 -5 5 -32 -5 -60 -21z"/>
<path d="M7176 3919 c-22 -18 -37 -59 -20 -59 12 0 74 56 74 68 0 18 -24 15
-54 -9z"/>
<path d="M6848 3882 c-28 -17 -38 -42 -17 -42 23 0 79 33 79 46 0 18 -28 16
-62 -4z"/>
<path d="M6554 3838 c-31 -37 -64 -86 -64 -98 0 -18 19 -10 37 16 10 14 30 40
45 56 15 17 25 34 22 39 -8 14 -19 11 -40 -13z"/>
<path d="M7252 3538 c-23 -18 -41 -39 -41 -45 -1 -22 38 -14 54 11 9 13 27 27
41 30 28 7 33 36 5 36 -10 0 -37 -15 -59 -32z"/>
<path d="M8203 3205 c-39 -17 -53 -30 -53 -45 0 -28 16 -25 79 13 92 55 73 79
-26 32z"/>
<path d="M9476 9632 c-3 -6 1 -15 9 -22 35 -29 18 -56 -122 -185 -158 -146
-177 -166 -204 -217 -39 -76 -10 -178 76 -263 125 -125 216 -102 450 115 144
134 175 151 205 115 9 -11 16 -13 24 -5 7 7 -11 32 -61 82 -70 70 -102 86 -68
34 9 -14 14 -34 11 -44 -6 -19 -265 -261 -315 -295 -72 -48 -141 -41 -203 20
-60 59 -69 129 -24 198 31 47 318 305 339 305 11 0 28 -7 38 -16 10 -9 23 -13
29 -9 7 4 -23 42 -77 98 -95 100 -98 103 -107 89z"/>
<path d="M2165 9291 c4 -13 -16 -47 -69 -117 -180 -238 -232 -299 -254 -302
-12 -2 -22 -7 -22 -11 0 -4 27 -31 60 -60 63 -55 73 -55 40 2 l-20 33 29 45
c16 24 42 60 58 79 l30 34 74 -57 c41 -31 137 -105 214 -165 148 -113 161
-131 131 -177 -11 -16 -12 -26 -5 -30 6 -4 12 -5 13 -4 2 2 22 31 46 64 24 33
61 81 83 107 45 53 42 86 -3 43 -22 -21 -34 -25 -52 -20 -12 4 -116 79 -231
167 l-207 159 47 61 c59 75 79 86 122 64 51 -27 39 5 -23 58 -59 51 -70 55
-61 27z"/>
<path d="M9967 9065 c8 -59 4 -62 -184 -192 -240 -164 -262 -174 -304 -132
-12 12 -24 17 -29 13 -10 -12 113 -191 128 -186 9 3 8 9 -3 25 -22 32 -18 62
13 91 40 37 352 248 352 238 0 -5 -43 -154 -95 -332 -56 -191 -91 -329 -87
-337 7 -11 18 -7 53 20 66 50 384 264 418 282 41 21 74 19 96 -5 33 -37 40 -5
8 37 -16 21 -44 62 -62 91 -35 56 -59 59 -39 5 9 -23 9 -38 1 -55 -11 -25
-323 -244 -323 -226 0 5 33 123 74 262 41 138 77 263 81 277 5 21 -3 41 -41
98 -26 39 -51 71 -55 71 -5 0 -6 -20 -2 -45z"/>
<path d="M1742 8692 c-59 -74 -72 -104 -72 -163 0 -74 36 -126 115 -164 71
-35 115 -30 225 25 45 22 94 40 112 40 56 0 117 -54 118 -103 0 -33 -32 -87
-61 -102 -32 -17 -96 -19 -133 -5 -20 7 -26 6 -26 -3 0 -14 100 -67 125 -67
23 0 94 69 117 114 25 49 27 129 5 171 -33 65 -112 115 -179 115 -18 0 -80
-22 -140 -51 -81 -38 -115 -49 -134 -45 -134 34 -135 208 0 208 25 0 50 -3 55
-6 5 -4 12 -2 16 4 3 5 -21 23 -54 39 l-60 31 -29 -38z"/>
<path d="M10376 8471 c-4 -6 -2 -20 4 -31 7 -14 8 -26 1 -39 -9 -16 -415 -242
-474 -264 -12 -5 -26 1 -43 18 -24 24 -49 34 -42 16 20 -52 116 -221 126 -221
15 0 15 2 2 34 -7 19 -5 30 8 45 16 19 460 261 479 261 5 0 20 -11 33 -25 45
-48 38 -13 -17 93 -63 121 -68 128 -77 113z"/>
<path d="M10534 8193 c-6 -2 -8 -17 -6 -33 2 -17 -2 -37 -9 -47 -8 -9 -115
-111 -239 -227 -124 -116 -226 -216 -228 -222 -2 -7 1 -15 6 -18 6 -3 153 0
328 8 304 13 364 11 364 -14 0 -5 5 -10 11 -10 14 0 8 29 -24 105 -30 68 -52
86 -42 33 11 -56 0 -59 -247 -72 -123 -7 -224 -11 -226 -10 -6 3 339 309 353
312 7 2 22 -9 33 -23 11 -14 23 -22 26 -17 5 8 -34 113 -82 223 -4 9 -12 15
-18 12z"/>
<path d="M1514 8020 c-54 -17 -128 -73 -160 -122 -18 -26 -44 -80 -60 -120
-15 -40 -42 -108 -60 -150 -21 -51 -28 -78 -21 -81 7 -2 20 9 29 25 10 15 23
28 28 28 6 0 93 -32 193 -71 349 -136 344 -133 326 -186 -5 -14 -4 -23 4 -26
7 -2 37 59 77 157 61 152 65 166 65 241 0 70 -4 87 -29 133 -60 107 -167 173
-290 178 -39 2 -85 -1 -102 -6z m154 -121 c133 -44 213 -126 220 -228 5 -68
-23 -145 -56 -156 -14 -4 -98 24 -254 85 -128 51 -243 96 -256 101 l-22 9 19
50 c59 155 167 198 349 139z"/>
<path d="M10777 7574 c-4 -4 -4 -16 -1 -28 11 -44 -13 -55 -275 -127 -140 -38
-262 -67 -272 -64 -11 4 -22 17 -25 31 -3 13 -12 24 -20 24 -18 0 -19 2 15
-109 16 -53 44 -150 61 -216 l31 -120 75 3 c56 3 74 7 74 18 0 9 -11 14 -34
14 -53 0 -92 39 -116 117 -23 76 -24 93 -7 116 10 15 197 76 233 77 6 0 18
-28 28 -61 15 -55 15 -64 2 -84 -9 -13 -25 -26 -36 -30 -11 -3 -20 -12 -20
-19 0 -10 15 -9 68 6 37 10 84 23 105 29 42 11 41 29 -3 29 -16 0 -35 7 -44
15 -13 14 -51 124 -44 130 5 5 230 66 233 63 10 -12 35 -124 35 -156 0 -32 -6
-45 -26 -61 -15 -12 -34 -21 -42 -21 -12 0 -13 -3 -5 -11 18 -18 145 19 138
40 -43 142 -66 223 -86 304 -22 93 -28 105 -42 91z"/>
<path d="M1142 7362 c-25 -110 -26 -122 -12 -122 6 0 10 6 10 14 0 27 35 57
66 58 33 1 374 -74 374 -82 0 -3 -119 -65 -265 -137 -236 -118 -265 -136 -271
-160 -10 -47 -25 -107 -30 -125 -8 -26 19 -22 31 4 6 13 22 29 37 36 23 11 56
5 264 -43 266 -61 284 -70 284 -137 0 -23 -7 -45 -18 -55 -11 -12 -124 -43
-330 -92 -207 -50 -312 -79 -312 -88 0 -19 33 -83 42 -83 23 0 526 -214 546
-233 12 -11 22 -29 22 -39 0 -10 7 -18 15 -18 11 0 15 11 15 43 0 23 3 66 6
95 8 58 -7 71 -25 22 -5 -17 -16 -33 -23 -35 -7 -3 -49 8 -93 24 l-80 29 3 69
c5 134 2 129 87 148 97 21 119 18 123 -17 2 -16 9 -28 18 -28 11 0 14 15 14
63 0 74 24 245 45 326 18 72 18 71 0 71 -8 0 -15 -9 -15 -20 0 -11 -9 -29 -21
-41 -18 -18 -28 -20 -63 -15 -43 7 -380 84 -406 93 -8 2 121 73 295 161 304
154 346 182 285 190 -41 6 -493 110 -520 120 -39 15 -63 48 -58 77 3 15 1 25
-6 25 -7 0 -22 -43 -34 -98z m207 -1018 c-4 -42 -9 -77 -11 -79 -4 -4 -234 88
-242 96 -5 5 207 55 244 58 14 1 15 -10 9 -75z"/>
<path d="M10920 6985 c0 -22 -6 -37 -17 -43 -27 -14 -520 -85 -539 -78 -8 3
-21 20 -27 36 -12 30 -27 40 -27 18 0 -7 7 -68 17 -135 13 -90 21 -123 31
-123 10 0 12 7 8 24 -12 48 17 65 147 84 89 14 117 15 117 6 0 -7 3 -19 6 -27
3 -10 -28 -41 -98 -95 -57 -45 -118 -95 -137 -111 l-34 -30 13 -80 c9 -56 17
-81 26 -81 8 0 14 10 14 24 0 32 15 48 144 156 l110 91 24 -31 c33 -43 72 -60
135 -60 100 0 161 66 154 170 -7 116 -42 320 -54 320 -8 0 -13 -14 -13 -35z
m24 -171 c16 -41 6 -94 -24 -128 -56 -63 -188 -69 -226 -11 -17 25 -38 104
-30 112 4 5 218 40 252 42 12 1 25 -6 28 -15z"/>
<path d="M10478 6317 c-65 -9 -67 -10 -82 -48 -23 -57 -20 -143 5 -197 42 -85
149 -124 244 -88 53 21 82 53 132 148 53 101 117 132 193 93 36 -19 50 -43 50
-90 0 -41 -32 -80 -80 -97 -52 -17 -34 -29 33 -22 34 4 65 9 70 11 13 7 8 162
-7 196 -31 76 -122 118 -214 99 -71 -15 -101 -39 -142 -112 -73 -130 -132
-169 -202 -136 -94 45 -75 183 30 217 80 25 65 39 -30 26z"/>
<path d="M1460 6032 c0 -5 18 -16 40 -25 59 -23 80 -65 80 -158 0 -55 -4 -80
-15 -89 -10 -8 -99 -15 -274 -22 -281 -12 -291 -10 -291 38 0 16 -6 24 -16 24
-13 0 -15 -7 -10 -31 3 -17 6 -76 6 -130 0 -81 3 -99 15 -99 10 0 15 10 15 30
0 18 7 33 18 39 10 6 134 15 274 21 277 13 298 10 298 -35 0 -16 6 -25 16 -25
14 0 15 14 10 108 -3 59 -8 159 -12 224 l-6 116 -62 11 c-75 13 -86 14 -86 3z"/>
<path d="M10395 5918 c-2 -13 -6 -71 -7 -131 -2 -80 0 -107 10 -107 6 0 12 8
12 18 0 11 8 26 19 36 17 15 40 16 282 5 246 -10 265 -12 282 -31 9 -11 17
-29 17 -39 0 -10 5 -19 10 -19 6 0 10 21 10 48 0 26 3 85 7 131 5 70 4 83 -8
79 -8 -2 -15 -14 -17 -26 -7 -45 -16 -46 -298 -34 -176 7 -270 15 -280 23 -8
6 -14 22 -14 35 0 31 -18 40 -25 12z"/>
<path d="M10906 5601 c-4 -6 9 -17 29 -25 19 -8 38 -22 41 -30 3 -9 1 -54 -6
-101 -10 -67 -15 -85 -29 -85 -9 0 -128 16 -265 35 -267 38 -286 44 -286 96 0
53 -19 39 -25 -18 -3 -32 -11 -89 -16 -128 -6 -38 -11 -76 -12 -84 -1 -8 4
-16 11 -18 7 -3 12 4 12 15 0 11 8 30 19 43 l19 23 243 -33 c304 -41 299 -40
299 -59 0 -42 -24 -145 -37 -157 -8 -8 -28 -15 -44 -15 -19 0 -29 -5 -29 -15
0 -8 8 -15 18 -15 10 0 42 -6 72 -14 30 -8 56 -13 58 -11 2 2 -2 11 -8 22 -17
27 51 512 74 525 28 16 18 24 -44 36 -34 7 -67 15 -74 18 -8 3 -17 1 -20 -5z"/>
<path d="M1490 5521 c0 -6 18 -15 39 -21 54 -14 77 -47 92 -129 15 -89 8 -117
-33 -130 -43 -13 -216 -36 -223 -30 -3 3 -8 33 -11 67 -6 52 -4 66 11 82 10
11 26 20 36 20 20 0 34 16 20 24 -12 8 -211 -25 -211 -35 0 -4 15 -10 34 -13
19 -4 39 -12 44 -19 12 -14 34 -128 27 -135 -10 -10 -230 -41 -237 -34 -11 11
-22 146 -14 175 4 17 19 31 46 43 57 26 35 37 -44 23 -60 -11 -67 -15 -62 -33
3 -12 17 -102 31 -201 15 -99 29 -186 31 -193 7 -23 24 -2 24 29 0 21 7 32 23
40 41 18 521 88 539 78 10 -5 21 -21 24 -34 3 -14 13 -25 21 -25 9 0 12 6 9
18 -4 14 -25 142 -64 392 l-7 45 -73 3 c-43 2 -72 -1 -72 -7z"/>
<path d="M1593 5023 c-39 -5 -44 -23 -7 -23 36 0 90 -27 107 -54 25 -37 50
-132 43 -159 -7 -29 0 -27 -323 -116 -100 -28 -190 -51 -198 -51 -9 0 -24 13
-33 30 -34 60 -39 31 -11 -67 15 -54 30 -110 33 -125 4 -16 12 -28 19 -28 9 0
12 10 10 28 -2 15 0 33 5 40 9 13 485 152 521 152 20 0 51 -30 51 -48 0 -13
13 -16 22 -6 3 3 -9 55 -27 117 -19 62 -41 141 -50 177 -39 156 -30 140 -83
138 -26 0 -62 -3 -79 -5z"/>
<path d="M10915 4962 c-7 -24 -28 -34 -216 -97 l-157 -53 -108 30 c-128 35
-148 49 -139 95 5 26 3 33 -10 33 -8 0 -15 -6 -15 -13 0 -8 -15 -68 -33 -135
-23 -84 -30 -122 -22 -122 7 0 18 13 25 29 6 16 20 31 30 34 17 4 254 -52 278
-66 6 -4 58 -61 116 -127 76 -86 106 -127 106 -146 0 -51 24 -17 45 64 15 57
18 82 10 82 -6 0 -17 -11 -23 -25 -6 -14 -17 -25 -24 -25 -17 0 -190 183 -180
191 10 9 228 79 247 79 10 0 15 -10 15 -31 0 -52 21 -27 40 47 10 39 25 94 34
123 12 43 13 51 1 51 -7 0 -16 -8 -20 -18z"/>
<path d="M9736 3340 c-37 -50 -73 -90 -80 -90 -7 0 -52 16 -100 36 -49 19 -90
33 -92 31 -2 -2 24 -42 57 -90 42 -60 58 -92 52 -100 -6 -7 -36 -45 -67 -85
-32 -40 -56 -75 -54 -78 3 -2 49 12 103 31 54 20 102 32 106 28 4 -4 35 -51
69 -103 l61 -95 -6 122 -7 122 23 5 c13 3 64 14 112 25 49 11 90 21 92 23 2 2
-46 21 -108 41 l-113 37 12 112 c6 62 10 114 10 115 -1 1 -32 -38 -70 -87z"/>
<path d="M2184 3320 c4 -41 9 -93 12 -115 l6 -40 -104 -34 c-57 -18 -107 -37
-111 -41 -4 -3 42 -17 104 -30 l111 -24 -3 -118 c-2 -65 -3 -118 -2 -118 1 0
31 45 67 100 64 98 66 100 93 89 124 -48 183 -67 176 -56 -4 6 -35 49 -70 93
-62 81 -63 82 -45 105 10 13 40 54 66 91 l48 68 -64 -24 c-35 -14 -80 -32
-100 -40 -21 -9 -40 -16 -42 -16 -3 0 -38 42 -77 93 l-72 92 7 -75z"/>
<path d="M9254 2769 l-81 -81 -93 57 c-51 31 -94 55 -95 53 -2 -2 18 -47 43
-101 l45 -98 -82 -76 c-45 -41 -81 -77 -79 -78 2 -2 44 5 93 15 136 29 124 35
175 -85 24 -57 46 -102 48 -100 2 2 10 52 17 110 7 59 16 109 19 112 3 3 56 9
118 12 l113 6 -65 37 c-36 20 -82 44 -102 54 -21 10 -38 24 -38 32 0 8 12 57
26 109 14 52 24 96 22 98 -2 3 -40 -32 -84 -76z"/>
<path d="M2671 2702 c16 -59 29 -108 29 -109 0 -2 -48 -27 -107 -57 l-108 -54
75 -6 c41 -3 95 -7 120 -9 l45 -2 12 -105 c7 -58 14 -111 15 -119 2 -8 25 36
52 97 43 98 51 111 70 107 79 -16 180 -35 190 -35 6 1 -27 36 -73 78 l-83 78
51 103 c29 57 48 101 44 99 -4 -3 -47 -28 -94 -56 -48 -29 -91 -52 -96 -52 -5
0 -38 30 -73 66 -101 102 -103 102 -69 -24z"/>
<path d="M8446 2289 c14 -45 30 -94 35 -107 5 -14 8 -27 5 -29 -2 -2 -46 -34
-97 -70 l-94 -65 115 4 115 3 30 -118 31 -119 33 116 c22 76 39 116 48 116 8
0 57 -5 109 -11 53 -6 98 -8 100 -6 3 2 -33 33 -78 67 -46 35 -86 66 -91 70
-4 4 9 42 29 86 20 43 40 89 45 102 10 27 14 29 -89 -40 -39 -27 -79 -51 -87
-54 -9 -4 -41 17 -82 52 -38 32 -76 64 -85 72 -14 12 -13 1 8 -69z"/>
<path d="M3471 2259 c-47 -39 -88 -66 -94 -62 -7 4 -51 33 -99 65 l-88 58 26
-57 c62 -141 67 -155 57 -161 -20 -13 -181 -137 -180 -138 1 -1 54 4 117 11
63 7 116 12 118 10 1 -1 18 -54 36 -116 l34 -114 10 40 c6 22 19 74 30 115
l18 75 112 5 111 5 -90 59 c-49 32 -89 64 -89 70 0 6 14 54 30 106 16 52 28
95 27 96 -1 2 -40 -29 -86 -67z"/>
<path d="M6638 1611 c-49 -48 -88 -90 -88 -94 0 -14 20 -7 65 25 24 17 47 30
49 27 2 -2 21 -110 42 -241 42 -261 42 -262 -22 -274 -32 -6 -44 -31 -13 -27
15 2 193 30 247 39 48 7 39 24 -13 24 -38 0 -47 4 -55 23 -5 12 -28 139 -50
282 -49 313 -47 305 -63 303 -6 -1 -51 -40 -99 -87z"/>
<path d="M5333 1613 c-71 -35 -110 -60 -107 -68 4 -10 17 -8 55 6 27 11 55 19
62 19 10 0 6 -53 -20 -237 -18 -130 -38 -242 -44 -250 -6 -7 -29 -13 -50 -13
-43 0 -62 -17 -27 -24 30 -6 251 -36 266 -36 27 0 9 20 -27 30 -21 5 -41 17
-45 25 -3 8 13 143 34 300 22 157 40 290 40 295 0 17 -23 9 -137 -47z"/>
<path d="M5685 1616 c-100 -60 -112 -208 -25 -291 17 -16 30 -32 30 -36 0 -3
-14 -12 -30 -19 -62 -26 -105 -117 -85 -180 32 -100 186 -148 277 -86 104 71
112 196 19 287 l-47 45 36 23 c53 34 73 68 78 131 4 49 1 60 -23 88 -38 45
-75 62 -137 62 -38 0 -64 -7 -93 -24z m148 -26 c57 -45 51 -167 -12 -224 -20
-19 -21 -18 -59 7 -50 35 -72 75 -72 132 0 86 81 134 143 85z m-15 -398 c27
-38 33 -72 21 -115 -12 -45 -42 -67 -91 -67 -104 0 -145 145 -67 235 l31 35
43 -30 c24 -17 52 -42 63 -58z"/>
<path d="M6157 1611 c-61 -39 -91 -97 -91 -172 1 -69 27 -126 73 -156 56 -38
115 -29 174 25 32 31 38 58 8 42 -63 -33 -132 10 -157 97 -26 91 8 163 76 163
58 0 101 -61 121 -174 32 -172 -59 -346 -221 -424 -50 -24 -61 -32 -47 -38 10
-3 39 2 65 11 179 68 312 241 312 405 0 100 -51 199 -121 236 -15 7 -54 14
-87 14 -47 0 -67 -5 -105 -29z"/>
<path d="M3840 11266 c-38 -50 -64 -92 -57 -94 7 -1 58 -10 113 -21 l101 -18
68 89 c37 49 66 91 63 93 -2 2 -52 13 -111 23 l-108 20 -69 -92z"/>
<path d="M7990 11323 c-47 -8 -87 -17 -89 -19 -3 -3 92 -134 129 -177 5 -6
218 27 226 36 2 2 -26 42 -63 90 -74 98 -63 94 -203 70z"/>
<path d="M3456 11093 l-65 -98 52 -6 c29 -4 80 -9 115 -13 l63 -6 59 91 c33
50 60 95 60 99 0 4 -42 10 -92 14 -51 4 -101 9 -110 12 -13 4 -33 -19 -82 -93z"/>
<path d="M8380 11158 c-47 -5 -86 -11 -88 -13 -1 -1 25 -46 59 -99 44 -70 66
-95 78 -92 9 3 57 8 106 12 50 3 93 8 97 10 4 3 -21 47 -55 99 -69 106 -51 99
-197 83z"/>
<path d="M3123 10959 c-35 -59 -93 -167 -93 -173 0 -3 51 -6 114 -6 l114 0 55
100 55 100 -52 0 c-29 0 -80 3 -113 6 -60 7 -60 7 -80 -27z"/>
<path d="M8698 10963 c-16 -2 -28 -6 -28 -9 0 -3 23 -47 52 -99 l52 -95 90 1
c148 2 145 -3 83 109 l-52 95 -85 1 c-47 1 -97 -1 -112 -3z"/>
<path d="M2819 10763 l-46 -4 -46 -102 -46 -102 37 -3 c20 -1 72 1 115 5 l78
8 44 98 c25 54 45 100 45 103 0 4 -108 3 -181 -3z"/>
<path d="M9030 10742 c0 -5 20 -52 44 -104 l44 -95 68 -6 c38 -4 90 -7 116 -7
l46 0 -45 103 c-25 56 -46 103 -47 103 -6 8 -226 13 -226 6z"/>
<path d="M2506 10516 l-79 -11 -38 -109 -39 -109 37 6 c21 3 67 9 103 13 36 3
71 10 79 14 7 4 30 53 51 109 l37 101 -36 -1 c-20 -1 -71 -7 -115 -13z"/>
<path d="M9372 10498 c51 -139 73 -194 81 -199 12 -8 208 -32 214 -25 5 5 -51
171 -67 196 -5 8 -46 18 -107 26 -123 17 -126 17 -121 2z"/>
<path d="M2199 10247 l-97 -20 -29 -106 c-17 -58 -26 -107 -22 -109 5 -2 54 6
110 17 56 12 103 21 104 21 2 0 6 10 9 23 3 12 17 61 30 110 29 101 39 95
-105 64z"/>
<path d="M9700 10236 c0 -13 57 -206 62 -210 8 -7 211 -46 216 -41 6 6 -47
197 -58 208 -14 15 -220 55 -220 43z"/>
<path d="M1895 9952 c-49 -14 -91 -26 -93 -27 -5 -4 -45 -216 -40 -220 4 -4
207 50 213 57 3 3 45 206 45 214 0 8 -39 1 -125 -24z"/>
<path d="M10004 9943 c3 -10 14 -60 26 -112 11 -52 21 -95 22 -96 9 -8 213
-61 215 -56 1 3 -8 53 -20 111 l-23 105 -109 32 c-61 18 -111 33 -113 33 -2 0
-1 -8 2 -17z"/>
<path d="M1628 9641 c-53 -20 -99 -39 -102 -42 -6 -6 -37 -222 -32 -226 2 -3
206 74 212 80 6 6 31 227 25 226 -3 -1 -50 -18 -103 -38z"/>
<path d="M10290 9632 c2 -60 29 -205 41 -212 26 -17 190 -72 196 -66 3 3 -1
53 -8 112 l-14 107 -107 38 c-94 34 -108 36 -108 21z"/>
<path d="M1360 9305 l-95 -44 -8 -73 c-4 -40 -6 -92 -5 -115 l3 -42 100 45
c55 25 100 46 101 47 7 9 14 227 7 227 -4 -1 -51 -21 -103 -45z"/>
<path d="M10551 9253 c0 -37 4 -90 7 -117 l7 -48 99 -45 c54 -24 100 -42 102
-40 3 2 2 54 -2 114 l-7 110 -96 43 c-53 24 -99 45 -103 47 -5 2 -8 -26 -7
-64z"/>
<path d="M1123 8947 l-93 -52 1 -85 c1 -47 4 -97 8 -112 l6 -28 95 53 95 52 3
70 c4 75 -5 155 -16 155 -4 0 -49 -24 -99 -53z"/>
<path d="M10780 8856 l0 -114 100 -55 100 -55 2 104 c0 57 1 110 2 116 1 11
-176 117 -196 118 -5 0 -8 -51 -8 -114z"/>
<path d="M928 8581 c-48 -31 -89 -59 -92 -62 -5 -5 13 -220 19 -227 1 -1 46
25 99 59 68 44 95 67 92 78 -3 9 -8 58 -12 109 -4 51 -9 94 -13 96 -3 2 -45
-22 -93 -53z"/>
<path d="M10986 8567 c-3 -23 -8 -76 -11 -117 l-6 -75 92 -58 c50 -32 94 -55
97 -52 7 7 21 123 21 181 1 45 7 39 -132 128 l-55 35 -6 -42z"/>
<path d="M755 8199 c-44 -33 -84 -64 -89 -69 -7 -7 16 -173 30 -218 3 -11 114
63 177 118 8 7 -21 210 -32 222 -3 4 -42 -20 -86 -53z"/>
<path d="M11155 8132 c-9 -53 -18 -104 -21 -113 -3 -10 26 -38 86 -84 50 -37
92 -66 94 -64 6 6 36 179 36 204 0 20 -12 31 -141 127 l-37 28 -17 -98z"/>
<path d="M602 7798 c-45 -40 -82 -79 -82 -86 0 -13 11 -61 41 -175 l10 -38 37
30 c20 17 59 51 87 75 l49 44 -23 99 c-13 54 -27 104 -30 111 -5 9 -32 -10
-89 -60z"/>
<path d="M11296 7727 l-28 -110 68 -64 c83 -76 103 -89 109 -71 2 7 15 56 28
109 l24 97 -60 53 c-33 29 -72 63 -86 75 l-27 22 -28 -111z"/>
<path d="M479 7387 l-76 -82 36 -108 36 -107 81 81 81 81 -35 109 c-20 60 -39
109 -42 108 -3 0 -39 -37 -81 -82z"/>
<path d="M11406 7323 l-36 -108 77 -77 c43 -43 80 -78 83 -78 3 0 22 48 42
106 l38 106 -77 79 c-42 44 -80 79 -84 79 -4 0 -23 -48 -43 -107z"/>
<path d="M391 6966 c-39 -47 -71 -88 -71 -91 0 -17 84 -205 90 -203 11 4 140
161 140 170 0 8 -78 200 -84 205 -2 2 -35 -34 -75 -81z"/>
<path d="M11491 6919 c-33 -83 -39 -105 -29 -118 15 -19 107 -130 123 -149 10
-10 21 8 53 87 23 55 42 104 42 108 0 10 -128 167 -140 171 -4 1 -26 -43 -49
-99z"/>
<path d="M331 6540 l-62 -89 51 -102 c28 -55 54 -98 58 -95 3 4 34 46 68 94
l62 87 -51 97 c-29 54 -55 98 -58 98 -3 0 -34 -40 -68 -90z"/>
<path d="M11567 6548 c-20 -35 -43 -80 -53 -100 -21 -44 -20 -45 61 -157 l54
-73 51 102 c58 116 62 90 -31 223 l-47 68 -35 -63z"/>
<path d="M311 6108 c-30 -51 -54 -97 -54 -103 0 -13 106 -194 113 -195 3 0 31
45 63 99 l58 99 -58 96 c-32 52 -60 95 -63 95 -3 0 -29 -41 -59 -91z"/>
<path d="M11567 6094 l-59 -95 60 -101 60 -100 56 95 c31 52 56 100 56 106 0
11 -86 158 -104 178 -8 9 -25 -11 -69 -83z"/>
<path d="M347 5738 c-14 -23 -38 -69 -53 -100 l-28 -57 61 -88 c33 -48 64 -88
69 -90 15 -5 108 192 98 208 -10 17 -104 151 -115 162 -4 5 -18 -11 -32 -35z"/>
<path d="M11556 5659 l-67 -90 53 -100 c29 -54 55 -99 58 -98 3 0 33 40 67 90
l63 90 -50 99 c-28 55 -52 100 -54 100 -2 0 -34 -41 -70 -91z"/>
<path d="M384 5324 c-9 -21 -29 -69 -44 -106 l-28 -66 70 -84 c38 -45 73 -84
77 -85 3 -2 24 41 46 94 22 53 41 100 43 104 1 3 -25 40 -59 80 -93 113 -86
109 -105 63z"/>
<path d="M11521 5255 c-34 -42 -64 -82 -67 -89 -5 -12 75 -221 81 -214 1 2 29
35 61 73 32 39 65 77 72 86 11 14 6 33 -29 118 -23 56 -45 101 -49 101 -4 0
-35 -34 -69 -75z"/>
<path d="M429 4842 l-36 -108 78 -84 c43 -47 79 -83 82 -80 2 3 20 53 39 111
l36 107 -82 81 -82 81 -35 -108z"/>
<path d="M11437 4829 l-75 -81 36 -109 36 -109 78 77 c43 43 78 84 78 92 0 23
-63 211 -71 211 -4 0 -41 -36 -82 -81z"/>
<path d="M555 4528 c-2 -7 -15 -57 -29 -111 l-24 -97 84 -76 c47 -42 86 -75
88 -73 9 9 56 210 51 218 -2 5 -41 41 -85 81 -53 47 -81 67 -85 58z"/>
<path d="M11335 4426 l-79 -73 18 -78 c10 -42 23 -93 28 -112 l9 -34 37 32
c20 18 59 52 86 76 l49 44 -17 76 c-27 114 -36 143 -44 143 -4 0 -43 -34 -87
-74z"/>
<path d="M680 4128 c0 -7 -9 -58 -19 -114 l-18 -101 94 -72 c70 -55 93 -68 93
-54 1 10 9 62 19 115 l18 98 -76 57 c-118 91 -111 86 -111 71z"/>
<path d="M11207 4033 c-48 -36 -87 -73 -86 -82 1 -34 35 -206 41 -206 13 0
178 130 178 140 -1 22 -38 206 -42 210 -2 3 -43 -25 -91 -62z"/>
<path d="M825 3629 c-4 -60 -6 -111 -4 -113 2 -2 45 -30 95 -64 l91 -61 12
116 c6 64 10 117 9 118 -19 15 -181 115 -187 115 -5 0 -12 -50 -16 -111z"/>
<path d="M11042 3649 l-92 -60 6 -47 c3 -26 9 -77 12 -115 l7 -67 98 62 c79
51 97 67 93 83 -3 11 -8 62 -12 113 -3 50 -9 92 -13 92 -3 0 -48 -28 -99 -61z"/>
<path d="M1020 3323 c0 -26 -3 -78 -6 -114 l-7 -66 103 -57 c57 -31 105 -56
106 -56 2 0 4 51 4 114 l0 114 -32 20 c-18 10 -63 36 -100 56 l-68 37 0 -48z"/>
<path d="M10852 3277 l-93 -52 3 -107 c2 -58 6 -109 9 -113 4 -3 50 18 103 47
l96 53 0 45 c0 67 -12 180 -19 179 -3 0 -48 -24 -99 -52z"/>
<path d="M1235 2888 c4 -62 8 -113 9 -114 0 0 46 -21 101 -46 55 -25 102 -41
104 -36 2 5 0 57 -4 115 l-7 105 -83 38 c-45 21 -92 41 -104 45 l-23 7 7 -114z"/>
<path d="M10639 2923 l-97 -45 -7 -110 c-4 -60 -5 -111 -3 -114 4 -3 197 81
205 89 7 8 14 227 7 226 -5 0 -52 -21 -105 -46z"/>
<path d="M1470 2642 c0 -9 5 -61 12 -114 l12 -97 103 -37 c57 -20 106 -34 109
-31 5 5 -10 138 -22 195 -3 13 -16 27 -32 33 -155 60 -182 68 -182 51z"/>
<path d="M10395 2590 l-100 -38 -16 -108 c-8 -60 -12 -110 -7 -112 11 -5 208
69 208 78 0 11 19 158 25 193 2 15 1 27 -3 26 -4 0 -52 -18 -107 -39z"/>
<path d="M1735 2298 c4 -18 14 -69 23 -113 l17 -80 110 -32 c61 -18 111 -33
111 -33 3 0 -47 224 -50 227 -3 3 -207 63 -214 63 -2 0 0 -15 3 -32z"/>
<path d="M10123 2272 c-50 -15 -94 -30 -97 -33 -9 -8 -48 -210 -43 -216 6 -5
198 46 209 56 7 6 48 189 48 212 0 13 -14 11 -117 -19z"/>
<path d="M2042 1918 c16 -57 33 -106 37 -110 8 -9 211 -51 217 -46 3 4 -52
208 -58 213 -5 4 -198 45 -212 45 -11 0 -7 -24 16 -102z"/>
<path d="M9822 1970 c-46 -10 -86 -20 -88 -23 -8 -7 -63 -211 -59 -215 2 -2
52 6 111 19 l108 24 32 108 32 107 -27 -1 c-14 -1 -64 -9 -109 -19z"/>
<path d="M2359 1630 c21 -55 40 -102 43 -106 7 -6 219 -36 224 -31 2 1 -14 50
-36 107 l-38 105 -84 12 c-45 6 -97 12 -114 12 l-31 1 36 -100z"/>
<path d="M9508 1697 c-64 -7 -89 -14 -93 -26 -4 -9 -22 -58 -40 -108 -39 -107
-48 -99 89 -81 98 12 108 17 124 63 5 17 21 60 35 98 l26 67 -27 -2 c-15 0
-66 -6 -114 -11z"/>
<path d="M2696 1373 c25 -54 48 -101 52 -104 10 -10 222 -18 222 -9 0 4 -20
50 -44 102 l-45 95 -47 7 c-26 3 -78 6 -115 6 l-68 0 45 -97z"/>
<path d="M9140 1441 l-54 -6 -44 -98 c-24 -54 -42 -101 -39 -103 3 -3 54 -2
114 2 106 6 110 7 120 33 6 14 27 61 47 104 l35 77 -62 -2 c-34 -1 -87 -4
-117 -7z"/>
<path d="M3000 1234 c0 -4 24 -51 53 -106 l52 -99 110 7 c61 3 111 8 113 9 2
2 -20 46 -49 99 l-53 96 -113 0 c-62 0 -113 -3 -113 -6z"/>
<path d="M8727 1198 c-8 -13 -33 -58 -56 -100 l-42 -78 118 0 118 0 50 93 c28
50 52 95 53 99 2 5 -48 8 -112 8 -109 0 -116 -1 -129 -22z"/>
<path d="M3465 1038 c-55 -6 -101 -11 -103 -13 -2 -1 25 -46 59 -100 60 -93
63 -96 93 -91 17 3 68 8 114 12 45 4 82 8 82 10 0 13 -125 194 -134 193 -6 -1
-56 -6 -111 -11z"/>
<path d="M8317 940 c-33 -50 -56 -94 -53 -97 6 -6 137 -22 186 -22 33 -1 38 4
97 93 l61 94 -71 6 c-40 4 -92 9 -117 12 l-45 5 -58 -91z"/>
<path d="M3842 860 c-51 -9 -95 -19 -97 -22 -9 -9 128 -178 144 -177 43 2 206
36 205 43 -4 21 -131 176 -144 175 -8 -1 -57 -9 -108 -19z"/>
<path d="M7932 777 l-71 -92 62 -12 c34 -6 87 -14 117 -18 l55 -5 67 89 68 89
-28 6 c-15 3 -56 10 -92 16 -36 6 -75 13 -86 15 -17 4 -35 -13 -92 -88z"/>
<path d="M4231 715 c-51 -13 -95 -26 -97 -28 -2 -2 30 -42 71 -90 l75 -85 106
28 c59 16 108 31 110 33 7 7 -138 162 -154 164 -10 0 -59 -9 -111 -22z"/>
<path d="M7533 647 c-44 -51 -67 -84 -60 -88 7 -4 56 -17 111 -30 l99 -24 73
80 c40 44 74 83 74 86 0 6 -201 60 -217 58 -4 0 -40 -37 -80 -82z"/>
<path d="M4632 596 c-52 -17 -94 -34 -95 -36 -1 -3 34 -40 79 -82 l81 -78 107
36 108 36 -78 79 c-43 44 -85 79 -94 78 -8 0 -57 -15 -108 -33z"/>
<path d="M7134 549 c-43 -43 -75 -81 -72 -84 3 -3 50 -20 104 -39 l100 -33 83
79 c46 43 82 80 80 82 -7 6 -112 43 -165 59 l-51 15 -79 -79z"/>
<path d="M5041 510 c-52 -22 -96 -42 -98 -44 -3 -3 110 -99 158 -134 15 -10
34 -6 119 29 55 23 99 46 98 50 -5 14 -159 139 -172 139 -6 0 -53 -19 -105
-40z"/>
<path d="M6722 478 c-62 -52 -80 -73 -70 -79 7 -5 54 -25 105 -45 l92 -37 71
59 c40 32 79 65 88 71 8 7 14 15 11 17 -6 6 -200 86 -208 86 -3 -1 -44 -33
-89 -72z"/>
<path d="M5471 456 l-104 -53 84 -59 c46 -33 89 -63 96 -67 7 -5 55 15 113 46
l100 53 -28 20 c-15 11 -56 41 -92 66 l-65 46 -104 -52z"/>
<path d="M6318 446 c-48 -34 -90 -65 -94 -69 -10 -9 195 -108 209 -101 34 20
167 118 167 124 0 3 -44 29 -97 57 l-98 51 -87 -62z"/>
<path d="M5889 437 c-48 -29 -87 -56 -89 -61 -1 -5 40 -35 91 -66 l92 -58 99
60 c55 33 98 61 96 63 -12 11 -190 115 -196 114 -4 0 -46 -24 -93 -52z"/>
</g>
</svg>
